<svg xmlns="http://www.w3.org/2000/svg" xmlns:xlink="http://www.w3.org/1999/xlink" viewBox="0 0 1920 770.29"><defs><style>.cls-1{fill:none;}.cls-2{isolation:isolate;}.cls-3{clip-path:url(#clip-path);}.cls-4{fill:#5f8eb0;}.cls-11,.cls-12,.cls-13,.cls-14,.cls-15,.cls-16,.cls-17,.cls-18,.cls-20,.cls-21,.cls-22,.cls-23,.cls-24,.cls-25,.cls-26,.cls-27,.cls-28,.cls-29,.cls-30,.cls-31,.cls-32,.cls-33,.cls-5,.cls-6,.cls-7,.cls-8,.cls-9{mix-blend-mode:multiply;}.cls-5{fill:url(#linear-gradient);}.cls-6{fill:url(#linear-gradient-2);}.cls-7{fill:url(#linear-gradient-3);}.cls-8{fill:url(#linear-gradient-4);}.cls-9{fill:url(#linear-gradient-5);}.cls-10{fill:#fffff5;}.cls-11,.cls-25{opacity:0.43;}.cls-11{fill:url(#linear-gradient-6);}.cls-12,.cls-13,.cls-14,.cls-15,.cls-16,.cls-17,.cls-26,.cls-27,.cls-28,.cls-29,.cls-30,.cls-31,.cls-32,.cls-33{opacity:0.42;}.cls-12{fill:url(#linear-gradient-7);}.cls-13{fill:url(#linear-gradient-8);}.cls-14{fill:url(#linear-gradient-9);}.cls-15{fill:url(#linear-gradient-10);}.cls-16{fill:url(#linear-gradient-11);}.cls-17{fill:url(#linear-gradient-12);}.cls-18{fill:url(#linear-gradient-13);}.cls-19{clip-path:url(#clip-path-2);}.cls-20{fill:url(#linear-gradient-14);}.cls-21{fill:url(#linear-gradient-15);}.cls-22{fill:url(#linear-gradient-16);}.cls-23{fill:url(#linear-gradient-17);}.cls-24{fill:url(#linear-gradient-18);}.cls-25{fill:url(#linear-gradient-19);}.cls-26{fill:url(#linear-gradient-20);}.cls-27{fill:url(#linear-gradient-21);}.cls-28{fill:url(#linear-gradient-22);}.cls-29{fill:url(#linear-gradient-23);}.cls-30{fill:url(#linear-gradient-24);}.cls-31{fill:url(#linear-gradient-25);}.cls-32{fill:url(#linear-gradient-26);}.cls-33{fill:url(#linear-gradient-27);}.cls-34{fill:url(#linear-gradient-28);}.cls-35{fill:url(#linear-gradient-29);}.cls-36{fill:url(#linear-gradient-30);}.cls-37{fill:url(#linear-gradient-31);}.cls-38{fill:url(#linear-gradient-32);}</style><clipPath id="clip-path"><polygon class="cls-1" points="562.2 346.37 599.51 329.5 661.75 272.12 670.37 265 676.67 241.3 726.52 193.99 738.01 192.94 748.6 180.55 758.14 167.28 770.68 163.91 778.21 153.31 817.08 122.45 855.26 112.54 923.54 164.03 949.98 177.32 957.46 179.48 979.12 192.42 986.67 195.09 1060.5 235.89 1174.17 343.37 562.2 346.37"/></clipPath><linearGradient id="linear-gradient" x1="2351.19" y1="176.93" x2="2581.87" y2="377.88" gradientTransform="matrix(1, -0.09, 0.51, 0.96, -1690.7, 227.69)" gradientUnits="userSpaceOnUse"><stop offset="0" stop-color="#46598a"/><stop offset="1" stop-color="#f1ffff"/></linearGradient><linearGradient id="linear-gradient-2" x1="2282.43" y1="242.82" x2="2513.12" y2="443.77" xlink:href="#linear-gradient"/><linearGradient id="linear-gradient-3" x1="2401.68" y1="59.48" x2="2714.68" y2="332.13" xlink:href="#linear-gradient"/><linearGradient id="linear-gradient-4" x1="2388.91" y1="114.51" x2="2635.84" y2="329.61" xlink:href="#linear-gradient"/><linearGradient id="linear-gradient-5" x1="2299.52" y1="57.97" x2="2696.11" y2="403.43" xlink:href="#linear-gradient"/><linearGradient id="linear-gradient-6" x1="771.36" y1="303.88" x2="771.36" y2="216.56" gradientUnits="userSpaceOnUse"><stop offset="0" stop-color="#c7d9e8"/><stop offset="0.24" stop-color="#c7d9e8" stop-opacity="0.99"/><stop offset="0.38" stop-color="#c9dbe9" stop-opacity="0.95"/><stop offset="0.49" stop-color="#ccddea" stop-opacity="0.89"/><stop offset="0.6" stop-color="#cfe0ec" stop-opacity="0.81"/><stop offset="0.69" stop-color="#d4e5ef" stop-opacity="0.69"/><stop offset="0.77" stop-color="#daeaf2" stop-opacity="0.55"/><stop offset="0.85" stop-color="#e1f0f6" stop-opacity="0.39"/><stop offset="0.93" stop-color="#e8f7fa" stop-opacity="0.2"/><stop offset="1" stop-color="#f1ffff" stop-opacity="0"/></linearGradient><linearGradient id="linear-gradient-7" x1="2548.65" y1="627.76" x2="2809.71" y2="394.06" gradientTransform="matrix(-0.08, -1.71, -1.82, 0.08, 2023.33, 4587.57)" xlink:href="#linear-gradient"/><linearGradient id="linear-gradient-8" x1="2579.53" y1="556.07" x2="2840.58" y2="322.36" gradientTransform="matrix(-0.22, -0.97, -0.97, 0.22, 1919.96, 2687.72)" xlink:href="#linear-gradient"/><linearGradient id="linear-gradient-9" x1="2587.15" y1="625.01" x2="2848.2" y2="391.32" gradientTransform="matrix(-0.1, -0.99, -0.99, 0.1, 1623.18, 2777.33)" xlink:href="#linear-gradient"/><linearGradient id="linear-gradient-10" x1="2337.77" y1="254.95" x2="2741.77" y2="-106.72" xlink:href="#linear-gradient"/><linearGradient id="linear-gradient-11" x1="2193.59" y1="372.92" x2="2597.59" y2="11.25" xlink:href="#linear-gradient"/><linearGradient id="linear-gradient-12" x1="2144.25" y1="317.81" x2="2548.26" y2="-43.86" xlink:href="#linear-gradient"/><linearGradient id="linear-gradient-13" x1="2453.15" y1="343.03" x2="2538.03" y2="343.03" xlink:href="#linear-gradient"/><clipPath id="clip-path-2"><polygon class="cls-1" points="0.02 355.26 769.71 210.34 855.57 156.32 891.57 145.31 911.76 118.98 935.55 107.61 993.25 79.83 1006.42 75.87 1048.48 45.25 1103.26 27.43 1149.42 53.01 1204.79 62.13 1216.29 58.6 1231.6 61.23 1427.47 154.55 1492.75 189.56 1546.67 220.62 1920 349.53 1919.99 770.29 0 770.29 0.02 355.26"/></clipPath><linearGradient id="linear-gradient-14" x1="2763.37" y1="18.34" x2="2925.26" y2="322.85" gradientTransform="matrix(1, 0, 0.69, 1, -1729.44, 0)" xlink:href="#linear-gradient"/><linearGradient id="linear-gradient-15" x1="2774.5" y1="140.64" x2="2974.85" y2="267.33" gradientTransform="matrix(1, 0, 0.69, 1, -1729.44, 0)" xlink:href="#linear-gradient"/><linearGradient id="linear-gradient-16" x1="2771.65" y1="8.37" x2="2933.55" y2="312.9" gradientTransform="matrix(1, 0, 0.69, 1, -1729.44, 0)" xlink:href="#linear-gradient"/><linearGradient id="linear-gradient-17" x1="2811.09" y1="-90.12" x2="2986.48" y2="239.79" gradientTransform="matrix(1, 0, 0.69, 1, -1729.44, 0)" xlink:href="#linear-gradient"/><linearGradient id="linear-gradient-18" x1="2935.95" y1="18.92" x2="3035.01" y2="205.26" gradientTransform="matrix(1, 0, 0.69, 1, -1729.44, 0)" xlink:href="#linear-gradient"/><linearGradient id="linear-gradient-19" x1="1023.9" y1="246.14" x2="1023.9" y2="158.82" xlink:href="#linear-gradient-6"/><linearGradient id="linear-gradient-20" x1="2603.24" y1="161.44" x2="2657.6" y2="107.45" gradientTransform="matrix(1, 0, 0.69, 1, -1729.44, 0)" xlink:href="#linear-gradient"/><linearGradient id="linear-gradient-21" x1="412.01" y1="711.99" x2="812.45" y2="353.51" gradientTransform="matrix(-1, 0, -0.69, -1, 2154.46, 768.02)" xlink:href="#linear-gradient"/><linearGradient id="linear-gradient-22" x1="2469.32" y1="563.48" x2="2966.21" y2="118.64" gradientTransform="matrix(0.08, -1, -1, -0.08, 1150.85, 2875.64)" xlink:href="#linear-gradient"/><linearGradient id="linear-gradient-23" x1="2479.02" y1="589.11" x2="2983.89" y2="137.14" gradientTransform="matrix(0.08, -1, -1, -0.08, 1150.85, 2875.64)" xlink:href="#linear-gradient"/><linearGradient id="linear-gradient-24" x1="2557.45" y1="556.59" x2="3062.32" y2="104.62" gradientTransform="matrix(0.08, -1, -1, -0.08, 1150.85, 2875.64)" xlink:href="#linear-gradient"/><linearGradient id="linear-gradient-25" x1="2460.39" y1="541.66" x2="2948.7" y2="104.52" gradientTransform="matrix(0.08, -1, -1, -0.08, 1150.85, 2875.64)" xlink:href="#linear-gradient"/><linearGradient id="linear-gradient-26" x1="2546.11" y1="708.54" x2="3059.66" y2="248.8" gradientTransform="matrix(0.08, -1, -1, -0.08, 1150.85, 2875.64)" xlink:href="#linear-gradient"/><linearGradient id="linear-gradient-27" x1="2502.65" y1="627.14" x2="3014.63" y2="168.8" gradientTransform="matrix(0.08, -1, -1, -0.08, 1150.85, 2875.64)" xlink:href="#linear-gradient"/><linearGradient id="linear-gradient-28" x1="516.14" y1="110.74" x2="516.14" y2="66.12" gradientUnits="userSpaceOnUse"><stop offset="0" stop-color="#fff" stop-opacity="0"/><stop offset="0.08" stop-color="#fff" stop-opacity="0.15"/><stop offset="0.22" stop-color="#fff" stop-opacity="0.37"/><stop offset="0.36" stop-color="#fff" stop-opacity="0.56"/><stop offset="0.5" stop-color="#fff" stop-opacity="0.72"/><stop offset="0.63" stop-color="#fff" stop-opacity="0.84"/><stop offset="0.76" stop-color="#fff" stop-opacity="0.93"/><stop offset="0.89" stop-color="#fff" stop-opacity="0.98"/><stop offset="1" stop-color="#fff"/></linearGradient><linearGradient id="linear-gradient-29" x1="924.31" y1="86.01" x2="924.31" y2="47.98" xlink:href="#linear-gradient-28"/><linearGradient id="linear-gradient-30" x1="5385.06" y1="43.5" x2="5385.06" y2="5.47" gradientTransform="matrix(-1, 0, 0, 1, 7164.14, 0)" xlink:href="#linear-gradient-28"/><linearGradient id="linear-gradient-31" x1="1333.6" y1="77.91" x2="1333.6" y2="27.85" gradientUnits="userSpaceOnUse"><stop offset="0" stop-color="#fff" stop-opacity="0"/><stop offset="0.03" stop-color="#fff" stop-opacity="0.04"/><stop offset="0.24" stop-color="#fff" stop-opacity="0.33"/><stop offset="0.44" stop-color="#fff" stop-opacity="0.57"/><stop offset="0.62" stop-color="#fff" stop-opacity="0.75"/><stop offset="0.78" stop-color="#fff" stop-opacity="0.89"/><stop offset="0.91" stop-color="#fff" stop-opacity="0.97"/><stop offset="1" stop-color="#fff"/></linearGradient><linearGradient id="linear-gradient-32" x1="3926.47" y1="55.54" x2="3926.47" y2="19.41" gradientTransform="matrix(-1, 0, 0, 1, 4160.87, 0)" xlink:href="#linear-gradient-31"/></defs><title>Layer1_2</title><g class="cls-2"><g id="Layer_2" data-name="Layer 2"><g id="Big_mountains" data-name="Big mountains"><g class="cls-3"><path class="cls-4" d="M657.24,356.14s19.18-25,22.84-40,14.59-40.08,15.44-44.23,8.38-4.25,9.25-7.58,11-20.77,11.82-23.82,7.54-5.81,7.54-5.81a139.54,139.54,0,0,0,7.74-16.14c2.6-7,10.64-13.4,12.92-16s4.34-9.88,6.05-11.65,6.53-4.63,6.53-4.63l11.12,2s7.83-.67,12.19.58.91-13.21.91-13.21,6-8.66,11.37-13.2,8.82-11.84,10.25-14.13,10.38-2.79,13.44-3.6,4.2-10.14,8.09-11.28,13.16-24.58,15.79-26.16,12.6-3.26,13.44-3.6,60.35,48.53,72.91,54.78,26.53,13.2,28.26,14.13,3.92-.34,8,2.3,20.74,12.34,23.14,13.76a26.57,26.57,0,0,0,8.07,2.84c1.51.14,73,40.24,74.75,41.18s167.75,130.11,167.75,130.11L967.77,384.83,826.2,403.52,711.35,393.3,645,397.92l-62.56,8.64s34.74-17.74,44.32-22.82C640.9,376.25,652.22,363,657.24,356.14Z"/><path class="cls-5" d="M887.68,299.05l19,8.22s46.53,26.92,47.6,27.37,40.45,22.87,40.45,22.87L923.1,307.74l-10.86-10.9,9.68,3.47-29.44-19.52s-15.9-14-16.45-15.07,33.68,7.81,33.68,7.81L861,254.77l2.9-12.86,67.46,31.67L878.79,243l-19.31-17-20.77,35.75L847.21,275l12,1.12Z"/><path class="cls-6" d="M910.11,368.74l19,8.22s46.53,26.92,47.6,27.37,40.45,22.87,40.45,22.87l-71.61-49.77-10.86-10.9,9.68,3.47-29.44-19.52s-15.17-4.34-15.72-5.37-7.72-14.93-7.72-14.93l10.5,5-16.74-12.91,8.71,3.65-16.92-19L857.43,324.5l-50.56,37.83,51.5,24.21Z"/><path class="cls-7" d="M872.64,162.07l10.45,25.12L985.42,233s-29.37-26-31.8-27.89-69.29-47-69.29-47l-9.62-15-19.44-30.6-3.14,20.41,12.68,24.72Z"/><path class="cls-8" d="M820.29,164.92l21.62,17.79-9.51,19.17s78.12,22.53,83.37,24.9,39.54,28.47,40,28.22-37.18-31.49-37.18-31.49l-23.75-12.28L975.77,232l-97.44-56.89s-10.34,21-11.26,20.12-20.82-11.12-20.82-11.12-12.41-11.44-12.72-12-16.73-12.48-16.73-12.48Z"/><path class="cls-9" d="M1027,377.62c-16.17-18.46-40-55.83-46.65-60.11l8.58-.65-31.36-29.42L989,298.77l-32.79-33.94,6.63-11.26,18.55,6.7-40.86-29.42L991.13,253l-5.37-10.36c16.63,10.25,33.93,14.14,46.33,10.44l-97.36-91.81c20.28,10.36,40.67,20.79,60.72,34,21.52,14.16,68.43,28.52,89.9,43,25.67,17.28,130,107.37,156.14,120.61C1235.08,362.2,1035.09,370.61,1027,377.62Z"/><polygon class="cls-10" points="849.57 104.61 857.69 116.55 862.61 151.46 859.67 159.37 850.43 176.95 865.24 158.51 868.22 155.76 878.45 162.54 883.04 170.56 877.34 186.15 877.12 208.03 859.25 227.72 865.99 231.73 874.3 238.67 869.98 246.52 879.45 254.65 879.8 265.56 888.82 277.55 897.22 283.94 903.96 312.62 923.21 332.02 950.09 376.47 953.86 426.29 860.65 400.77 835.92 420.5 689.48 435.39 531.4 429.08 528.99 360.79 647.61 226.97 832.13 96.16 849.57 104.61"/><path class="cls-11" d="M613.61,250.62c10.22,1,25.35-.77,37.23-2.92,33.42-6,66.74-12.63,99.7-19.79,25-5.43,57-17.58,82.38-7.44,21.53,8.6,36.09,21.76,45.76,37.55,5.81,9.5,13.9,17.45,24.69,24.59,6.92,4.58,20.66,8.92,24.21,15.44,2.18,4,2.49,2.65-2.1,4.75-6.5,3-24.9-1-31.49-1.82-18.15-2.33-36.15-5-54.66-5.33-15.72-.3-31.44.3-47.15-.43-12.24-.57-24.32-2.21-36.59-2.56-22.29-.63-41.15-1.49-62.34-6.53-17.49-4.16-34.18-9.52-46.93-18.82C638.67,261.74,627.7,252.9,613.61,250.62Z"/><path class="cls-12" d="M746,213.53l36.5-34.06L729.8,238.22l35.26-30.42L690.8,282.19,689.27,278l-5.89-11.75-4.1-.25A1403,1403,0,0,0,793,162.46C776.76,179.23,761.37,196.38,746,213.53Z"/><path class="cls-13" d="M830.91,236.86l20-40.28L824,264.82l19.87-36.3-39.71,87.31-2-4.21L795.35,300l-3.1.24A1257,1257,0,0,0,855.2,177.4C846.65,197,838.77,216.95,830.91,236.86Z"/><path class="cls-14" d="M716.57,280.91l21.89-26.22L715.77,290l27.88-27.63-39.31,56.07c2.85-8.66,1.83-16.28,1.85-25,0-3.25,1.46-5.56,3.45-8,3.33-4.16,6.73-8.23,9.86-12.54A143.21,143.21,0,0,0,729,258.53Z"/><path class="cls-15" d="M796.13,219.12l12.56-33.5-26.56,49.46L792.07,203l-30,68.75,4.41.77L779.6,276l2.17,3.31a676.65,676.65,0,0,1,36.88-104.09C811.62,190.24,803.88,204.68,796.13,219.12Z"/><path class="cls-16" d="M766.76,254q4.51-5.81,8.9-11.69C772.64,246.12,769.71,250,766.76,254Z"/><path class="cls-17" d="M605.9,371.59,623.05,332l-29.61,43.37,13.51-48.73-43.84,73.64c9.84-6.66,21.86-7.36,34.55-9.92,4.7-.95,6.67-3.74,8.37-7.36,2.85-6.07,5.51-12.21,8.79-18,3.49-6.2,7.12-12.53,11.7-18Z"/><path class="cls-18" d="M923.65,335.46l34.86,14.66-45.29-38.46,28.45,14-.88-4.39c4.28,4.89,11.48,6.13,17.52,7.21,20.53,3.69,41.6,13.25,62.19,22.66l-19.44,18.51c-4.5,4.29-8.53,10.82-18.46,7.14-9.07-3.35-19-12.39-26.89-18.08l-16-11.61C935.25,343.87,928.51,337.47,923.65,335.46Z"/></g><g class="cls-19"><polygon class="cls-4" points="665.97 312.87 718.08 260.81 754.07 242.85 778.61 228.94 805.78 206.05 828.58 170.6 871.67 140.98 885.36 132.95 912.82 118.98 931.01 101.48 952.43 105.07 984.28 91.61 1015.9 78.59 1062.67 51.66 1091.76 27.43 1104.31 27.43 1150.47 53.01 1205.85 62.13 1208.89 47.72 1218.41 37.02 1236.44 48.66 1317.59 95.88 1428.53 154.55 1493.81 189.56 1544.49 217.38 1920 349.53 1192.09 301.65 849.9 307.03 665.97 312.87"/><path class="cls-20" d="M1059,124l98.61,10.72s64.66,22.54,66.62,23.19,148.15,32.65,148.15,32.65l-134.8-68.11-21.16-14.41,17.52,5.24-55.21-26.85s-27.23-6.88-28.4-8.19-16.57-19-16.57-19l19.28,7.2L1121.22,49l15.88,5.36-33.4-24.9-22.27,28.17,17.56,17,21.12,2.62Z"/><path class="cls-21" d="M1296,215.68,1260.45,170l51.94,24.49,42.54,13.9-4.63-7.2,12.49.66S1460.42,251,1467,251.67s27.91,26.52,27.91,26.52l-96.64-33.73-28.83-9.17,12,14.41L1463.28,291l-85-9.5L1340.36,254Z"/><path class="cls-22" d="M1173.71,139.79l27.11,7.58,37,16.7s90.18,39.3,85.54,36.68-130.19-64.51-130.19-64.51L1163,120.52l-24.88-30.71-6.22,12.37,27.28,31.44Z"/><path class="cls-23" d="M1149.42,53l34.68,29.28,36.07,19.16,101.41,42.24L1397,182.25,1325.83,140,1282,122.56l36.54,5.89s-59.17-19.65-59.83-20.38-53.94-45.95-53.94-45.95l-19.91-37.83-28,.44-23.59,5.9Z"/><path class="cls-24" d="M1420.09,272.46l14.72.08,11.76-1.23L1535,294.89l-24.34-28.16L1392.49,211l31.51,7.78-68.91-30.93,85.85,24.9-8.82-10.16c28.1,11,79,13.55,79,13.55l-163.39-94.08,102.73,36.81,95,39.08V308.62l-29.49-1.77-33.69-9.15Z"/><polygon class="cls-10" points="1075.37 2.87 996.67 70.1 690.5 200.44 658 276.8 0.02 355.26 0 770.29 1919.99 770.29 1920 349.53 1453.65 277.86 1380.16 265.69 1296.01 215.68 1276.71 216.29 1280.28 203.13 1257.07 210.87 1245.54 219.17 1245.53 215.47 1243.55 199.38 1236.77 205.7 1236.91 190.19 1217.15 173.52 1208.94 174.67 1191.02 185.59 1206.97 158.58 1178.37 141.92 1159.47 123.53 1144.94 102.85 1142.78 91.93 1159.17 97.71 1132.99 81.02 1125.68 64.35 1111.03 43.09 1108.36 31.6 1096.19 35.05 1101.25 28.15 1096.51 18.39 1076 0 1075.37 2.87"/><path class="cls-25" d="M782.24,192.89c15.66,1,38.83-.77,57-2.92,51.2-6,102.25-12.63,152.73-19.79,38.3-5.43,87.33-17.58,126.2-7.44,33,8.6,55.28,21.76,70.1,37.55,8.91,9.5,21.29,17.45,37.82,24.59,10.6,4.58,31.65,8.92,37.08,15.44,3.34,4,3.81,2.65-3.22,4.75-10,3-38.15-1-48.24-1.82-27.81-2.33-55.37-5-83.74-5.33-24.08-.3-48.16.3-72.24-.43-18.75-.57-37.26-2.21-56.05-2.56-34.14-.63-63-1.49-95.51-6.53-26.8-4.16-52.35-9.52-71.89-18.82C820.62,204,803.82,195.16,782.24,192.89Z"/><path class="cls-26" d="M977.27,170.43c4.38-4.4,8.71-8.82,12.93-13.31C985.8,161.52,981.56,166,977.27,170.43Z"/><path class="cls-27" d="M1192,195l4.87-6.07L1193,212.52l12.07-14.66,1.31,4.73c.86-4.22,9.16-33.58,11.67-44.6-5,6.87-19.85,21.08-24.85,28l3-30.85a169.74,169.74,0,0,1-15.68,44.49l11.77-11.48Z"/><path class="cls-28" d="M968.76,195.83q9-6.7,18-13.34C980.84,187,974.78,191.39,968.76,195.83Z"/><path class="cls-29" d="M1016,135l-45.11,32.38L1008,146.07l-55.47,37.35,36.75-19.52-58.5,36,30.64-23.38-67.37,36Z"/><path class="cls-30" d="M1054.76,59.48l-45.11,32.38,37.09-21.35-55.47,37.35L1028,88.34l-58.5,36,30.64-23.38-67.37,36Z"/><path class="cls-31" d="M1012.42,181.59a254,254,0,0,1,50-41.61l-27.59,13.3,60.64-47.46-43.34,32.44,60.26-45.45A404.52,404.52,0,0,1,1054.49,141l34.82-22.32-42.09,35.48,32.62-19.08a1104.31,1104.31,0,0,1-121.16,91.65l92-71.73Z"/><path class="cls-32" d="M848.08,102.58l-11,7.42,41.27-17.18L851.76,111l8.08-1.84c-7.41,3.21-59.16,27.32-78.51,35.9,12.4-8,38.48-28,50.88-36L778.4,129.93A852.39,852.39,0,0,0,857.11,91l-21,16Z"/><path class="cls-33" d="M890.68,205.17l-27.94,10.61,50.06-29.17L862.25,208.8l120.31-70.15L881.72,189.9,914.45,167l-38.68,20.31,50.85-34.12-124.8,70.32,41.8-30c-22.19,12.81-44.43,25.64-64.49,39.87-8,5.68-24.76,18-15.4,26.35,8,7.1,23.43,2,31.34-2.06C827.83,241,858.89,222.62,890.68,205.17Z"/></g></g><g id="Clouds"><path id="_Path_" data-name="&lt;Path&gt;" class="cls-34" d="M595.74,105s-3.06-32.85-27.5-32.09c-21.88.68-20.91,20.63-20.91,20.63s-5.07-35.14-27.23-32.09c-29.2,4-27.42,35.27-27.42,35.27S486.87,79,476.56,82.47s-10.2,20.13-10.2,20.13l-50.53,8.14H616.46Z"/><path id="_Path_2" data-name="&lt;Path&gt;" class="cls-35" d="M1012.43,73.81s.14-30-22.12-30-21.37,24.67-21.37,24.67-3.33-14.08-17.53-12.46c-16.27,1.85-15.07,17.75-15.07,17.75s-3.4-12.5-19.69-8.88c-10,2.22-11.83,13.31-11.83,13.31s-5.56-16.11-17.75-16.64c-17-.74-24.41,17.75-24.41,17.75L806.08,86l236.46-4.44Z"/><path id="_Path_3" data-name="&lt;Path&gt;" class="cls-36" d="M1690.95,31.29s-.14-30,22.12-30S1734.44,26,1734.44,26s3.33-14.08,17.53-12.46c16.27,1.85,15.07,17.75,15.07,17.75s3.4-12.5,19.69-8.88c10,2.22,11.83,13.31,11.83,13.31s5.56-16.11,17.75-16.64c17-.74,24.41,17.75,24.41,17.75l56.58,6.66-236.46-4.44Z"/><path id="_Path_4" data-name="&lt;Path&gt;" class="cls-37" d="M1468.21,72s3.33-49.69-35.09-49.57c-36.12.12-40.5,34.5-40.5,34.5s-2.08-13.93-23.74-13.6c-21.49.33-21.7,19.6-21.7,19.6s-.14-27.83-18-28.5c-29.33-1.1-28.09,30-28.09,30S1294.38,49,1277.88,52s-19.67,17-19.67,17l-91.63,8.93h334Z"/><path id="_Path_5" data-name="&lt;Path&gt;" class="cls-38" d="M137.24,51.26s-2.41-35.86,25.33-35.77c26.07.08,29.23,24.9,29.23,24.9s1.5-10.05,17.14-9.81S224.6,44.71,224.6,44.71s.1-20.09,13-20.57c21.17-.79,20.27,21.65,20.27,21.65s4.87-11.14,16.78-9,14.19,12.27,14.19,12.27l66.13,6.44H113.86Z"/></g></g></g></svg>