<svg xmlns="http://www.w3.org/2000/svg" viewBox="0 0 1920 663.39"><defs><style>.cls-1{fill:#2c3836;}.cls-2{opacity:0.7;}.cls-3{fill:#1c2826;}.cls-4{fill:#232d22;}</style></defs><title>Layer2</title><g id="Layer_2" data-name="Layer 2"><g id="Small_mountain" data-name="Small mountain"><path class="cls-1" d="M1538.07,119.49c-3.62-1.08-7.08.06-10.35-1.05-3.27-8-6.36,1.82-9.23.33-5.75-1.64-10.67-.7-14.56-2.46-4.28-2.65-8.77,2.32-13.38-4a63.91,63.91,0,0,1-14.11-4.42c-4.77,1.69-9.57-1.09-14.33-2.7-4.76,1.54-9.47-3.67-14-6.59-4.58-5.46-9-8.26-13.27-4.36-4.24.57-8.26.3-12-4.23-3.72-2.31-7.15,2.55-10.19-2.07-3,.94-5.71,3.34-7.9-4.24-4.39,6-6.92-2.19-6.92-2.45a9.81,9.81,0,0,0-2.82-4.73c-1.8-5.3-4.36-3.22-7.43-1.33-1.54-4.63-3.2-2.34-5-4.84-1.76,1.18-3.61.56-5.53-2.15-1.92-3-3.89-2.06-5.9-2.85a29.7,29.7,0,0,0-6.08-1.73c-8.14-2.06-16.25-9.58-22.25-7.24-2.25,6.63-4.57-2.89-7-1.82-2.39-5.91-4.84-6.87-7.35-3.72-2.51-3.09-5.09-1.42-7.73-5-2.64-5.66-5.33-3.75-8.08-5.73-2.75.46-5.55,1.92-8.41-4.75-2.85.46-5.76-4.16-8.71-6.44-3,.55-5.95-.81-9-1.87-3,2.16-6.13-.93-9.25-5-12.49-.17-15.74,4.53-17.18,1.48-1.44-1.12-1.06,2.25-6.31-2.07-5.25-9.93-8.62-6.54-10.68-5.7-2.06,3-2.81-.56-2.81,1-11.49-2-17.62.23-20.86-2.22-3.25.89-3.62-1.15-3.62.44-5.41-3.58-10.48-3.48-15.2-5.71a59.74,59.74,0,0,0-13.1-2.11c-8-1.24-14.66-2.09-19.86.56-5.2.19-9-1.62-11.31-1.24-3.5-8.19-8.08-7.62-11.78-2.07-3.71-8.21-6.54-3.28-6.54,2.07a62.59,62.59,0,0,1-25.27,14.27c-6.32,1.07-10.66,5.16-13.42,2.52-2.76,2-3.95,2.38-3.95-1,0-3.15-3.17-5.68-8.32,4.4-2.57-2.69-5.64,4.43-9.06,6.4-3.41,2.25-7.17,5.59-11.13,3.91-4,4.82-8.11,6.25-12.3,7.25s-8.44,1.56-12.58,4.65c-4.14-9.1-8.18,2-12,5.2-3.79,1-7.32.35-10.46,4-3.13-1.06-5.87,1.67-8.05,2-2.18,8.2-3.82,3.06-4.75.12-2.33-8.86-4.58-8.76-6.8-3.47-2.22-3.51-4.4,5.49-6.61-.09a10.66,10.66,0,0,0-6.74.42c-2.3.77-4.67,1.59-7.17.77-5,1.49-5.5.92-5.91,4.34-.42,3.76-.75.15-5.41-2.76-2.33-5.6-4.58-4.21-6.64-4.56A31.33,31.33,0,0,0,956,52.43a20.54,20.54,0,0,0-5.16-1c-1.89,1.5-4.42,3.9-7.34,6s-6.21,2-9.62,5.83c-3.41,8.4-6.92.54-10.28,5.26-3.36,7.73-6.56,6-9.34,4.27-2.78,5.23-5.13,3.76-6.78,8.25-1.66,5.61-2.62-1.36-2.62-4.33,0,4-1.88,2.93-5.44,1.55-1.78-4.3-4-5.29-6.59-.1-2.61,3.25-5.61,9.59-9,4.11-1.69-4.11-3.47,5.22-5.35,1-1.88.93-3.84,1.26-5.9,2.59-2.05.26-4.2-2.78-6.43.75-2.23,0-4.54,3.16-6.94,1.16-2.87,2.87-5.87-5.84-9,1.31-3.11-4.49-6.33,1-9.66,2.26-1.66.13-3.36,3.15-5.07-.22-1.72-.75-3.46,1.93-5.23,5.24-3.54-4.58-7.19.15-10.93-1.49-1.87,7.73-3.77-7.29-5.69-.73-1.92,1.07-3.86,6-5.83,3.61-2,4-4,2.3-6-1.69-2,2.09-4.05,1.8-6.11,2.07-2.06,9.95-4.14-1.17-6.24.79-2.1,3-4.23.71-6.37-1.9-2.14-12.2-4.31.52-6.5-.07-2.19,10.57-4.39.41-6.62,4-2.23-.7-4.47,15.77-6.74.22-2.26,0-4.55.61-6.85.29-2.3-1.74-4.62-5.1-7-.81-2.34,17.13-4.69,13.09-7.07,2.41-2.37,3.6-4.76-.94-7.17.42-2.41-3-4.83-8.69-7.27-.57-2.44-3-4.89-8.62-7.36-.17-2.47,4.09-5,6.56-7.45,1.53-3.33-6.41-6.69-2.45-10.07-1.32-3.38-6.83-6.79,2.54-10.22,1.53-3.43,3-6.88-4.37-10.36-3.35a33.56,33.56,0,0,0-10.48,3c-3.52,1.83-7.05,6.51-10.6-1-3.55-3.7-7.13-5.51-10.72,0-3.59-2.5-7.2-7.87-10.82-2.35-3.62-1.41-7.26-3.37-10.91.69-3.65-2.7-7.32,3.65-11-.37-3.68-1-7.37,2.64-11.07-2-3.7,8.1-7.41,10.92-11.14,1.62-3.72-14-7.45-2.94-11.19-4.84-3.74,4.94-7.49,3-11.24,1.63-3.75-1.85-7.51-6.52-11.28-5.72-3.77,1.42-7.54-4.92-11.31-3.68-3.77,3.16-7.55,2.61-11.33-1.35-3.78,6.91-7.56,3.73-11.34,1-3.78-12.72-7.57,11.43-11.35-7-4.38,1.75-8.83,5.11-13.35-1.28-4.51-1.9-9.09-3.29-13.72-5.7-4.63-2.24-9.32-6.39-14.06-1.33a37.37,37.37,0,0,1-14.36-4.47c-9.67,1.43-19.53-2.81-29.52-4.7a53.59,53.59,0,0,1-15.09.71,21.73,21.73,0,0,1-15.27-4.4c-.57-.9-2.53-5.41-5.77.41-3.24,4.13-7.75,5-13.4-.8-5.65-3.93-12.43-.5-20.23-1.54-7.79-5.49-16.59,8.57-26.26-1.83-9.67,9.72-20.22-1.16-31.51-1.66-5.64,1-11.47.46-17.47-.2-6,.28-12.17-2.91-18.49-.83-3.82-3.1-7.54-.47-11.16-2.21-3.63-.39-7.16-.36-10.62-.65-3.46.39-6.83-1.89-10.15-2.74-3.31,2-6.56-1.26-9.76-4.1-3.2-1.27-6.34-6-9.44-4.17-3.1-2-6.17-12.53-9.21-5.06-3,4.15-6.05-5.9-9.05-5-3-.81-6-15.11-9-5-6-11.48-12-12.72-18-9.27-3-2.63-6.1-6.41-9.21-5s-6.25-2.48-9.44-1.91C150,6.63,146.78.55,143.47,4.7c-3.31,1.54-6.69,5.67-10.15.23-3.86-1.65-7.83,1.44-11.89-.48-4.05,4.09-8.19.67-12.37,2.88-4.18-1-8.4,6.79-12.64,3-2.12,4.08-4.24,4.62-6.35,4.37-2.12,1.85-4.23,1.59-6.34-.39-4.22,9.65-8.41,4.19-12.54,5.42C67.06,26.49,63,25.19,59,24.19c-4-2.11-7.85,3.92-11.6,5.89C43.67,37.2,40,25.14,36.6,35c-3.45-.38-6.74,8-9.82,4.57-3.08-4.81-6,4.85-8.61,5.41-5.29-1.66-9.64,4.72-12.76,7.32-3.12-2-5,9.69-5.4,2.85V262.53H1920V116.8a127,127,0,0,1-22.14,6.31c-6.83,1.34-15,.34-24.38,2.84-9.33,3.54-19.77-.94-31-1.72-5.84,1.7-11.91,3.91-18.17-3.52C1818,123,1811.57,110,1805,115.8c-6.59-1-13.32.12-20.17-5.71C1778,108,1771,104.3,1764,104.14c-3.51-1-7-6.27-10.59-3.79-3.54,1.05-7.1-5-10.66-1.81-3.56,1.37-7.14,3-10.71.57-3.58-1.69-7.15,1.63-10.73-5.25-3.58-.84-7.15-1.66-10.72-1.06-3.57-.49-7.13-5.78-10.68-2.13-3.55-.43-7.09-.42-10.62-.79-3.52,3-7,1.17-10.52-.32a304.6,304.6,0,0,0-30.48,1.75c-9.94,1.06-19.61,2.53-28.83,4.26-9.21,4.83-18,2.92-26.09,5.76-8.12-5.93-15.6-4.77-22.27,6.27-6.67,1.39-12.51,1.82-17.36,5.78-4.85,8.23-8.7-1.65-11.37,4.29C1539.7,119.73,1538.21,113.2,1538.07,119.49Z"/><g class="cls-2"><path class="cls-3" d="M1209.45,9.64c.46.64,1.3,1.29.76,2.64s1.82,1.61,1,3.3c-.23.84,1.39.92.8,2,.79.45.84,1.23.71,2.1-.79,1.15.62,1.38.64,2.2.28.71,1.18,1.17.59,2.25,1.07.38.31,1.53.55,2.25.62.56,1.67.93.53,2.19.28.83.94,1.48.64,2.49.5.45.57,1.07.09,1.89s.31,1.08.58,1.53c1.08.67-.53,2.35.78,2.63,1,1.25,1.66,2,1,2.26.95-.4-1.55.88-.15.71,0,.44.29.91,1.13,1.32-.81.72,3-.46,1.08.8,1.24-.07-.22,1,.25,1.35a1.4,1.4,0,0,1,.71,1.33,2.72,2.72,0,0,1,1,1.37c.46.62,0,1.66,1.16,2-.42.9.81,1.13,1,1.79s2,.69,1.06,1.83c1.94-.05.75,1.21,1.11,1.82a2,2,0,0,1,1,1.84,2.56,2.56,0,0,1,1,1.8c1.25.19.95,1,1,1.67-.3,1.35-.22,2.46,1.44,2.8.83.68.72,1.65,1.46,2.1,1.46.91,1.08,2,1.08,2,.29-.12,0,1.13.54,2.64a2.74,2.74,0,0,0,.56,2.71l.64,3.11,1.74,8.46-.56-7.18-.34-4.37a6.28,6.28,0,0,0-.18-2.3c-.36-.64-.88-1.22-.18-2.3,0-.77-.49-1.35-.16-2.25-.26-.64-1.44-.88-.18-2.12.3-1.19-1-1.64.05-3-.55-.66,0-1.69,0-2.34-.32-1.19-.31-2-.59-1.87.51-.21-1.11-.3-1.08-1.6-.59-.39-.68-1.12-1.16-1.79s-.62-1.57-1.55-2.2c-1.32-.13-1.13-.92-1.26-1.6.23-.83.1-1.52-1.14-1.76s-1.37-1-1.08-1.84c-1.76.36-1.26-.24-1.13-.68.89-.76.37-.92,0-1.16-.58-.52,0-1.5-1.11-1.77,0-.36,2.27-1.68,0-1.07-.1-.31-.17-.63-1.31-.49.33-.65-.59-.76-1-1.06-2.55.6,0-.94-.88-1,.79-1.2-2.12-.74-.87-1.91,1.08-1.74-1-1.62-1-1.62,1.32-.56.5-.43-.89-.24,1.87-1.18.88-1.34-.2-1.61-.07-.69.06-1.61-.87-2.19-.36-.82.22-2.14-1-2.79-.56-.53.14-1.63-.65-2.11s-.61-1.13-.69-1.8c-1.09-.25-1-1-.78-1.81a4,4,0,0,0-.84-1.81c.06-.74.62-1.69-.86-1.78.61-1-1-1-.84-1.72.34-.82-1.07-.89-.79-1.65a2.73,2.73,0,0,0-1.16-2.71c-.11-.93-.86-1.47-.93-2.16l-.14-.29A2.5,2.5,0,0,1,1209.45,9.64Z"/><path class="cls-3" d="M1086.32,59.68c-.32,0-1.39.24-1.36.69a4.48,4.48,0,0,0,1.11,1.9c-2.09.81,2.27,1.78-.44,2.86,1,1.09-2.45,2.3-.18,3.59.5,1.29-1.2,2.66-.39,4.07.24,1.65-1.36,3.35-.23,5,1.45,1.69.23,3.38-.74,5,2,1.61.46,3.15-.44,4.55-2.49,1.4-.35,2.66-.36,3.72-.19,2.12-.33,3.44-.33,3.44a6.48,6.48,0,0,0,.65-3.05c1.1-.94,4.14-2.06.71-3.3.08-1.24-.91-2.61.86-4a3.79,3.79,0,0,0,.95-4.42c1.41-1.5,2.84-3,1-4.47,1.83-1.25.65-2.47.77-3.61-.58-1.15.87-2.22.63-3.19-2.93-1-2.79-1.83.59-2.54-.64-1.43.1-2.29.49-2.29.68,0,1.13-.58.61-1.6.51-.13,1.32-.26,2.19-.4.13-.14-.18-.29.68-.44,1.14-.31-.28-.64-2.05-1-1.39-.36-1.12-.73-1-1.13-.58-.4,1.16-.82,1.75-1.25-2.34-.44-2-.89-.18-1.36,1.36-.47.64-1,1.14-1.46,1.77-1,.89-2.06,1.31-3.15-.54-.55-.66-1.1-1.76-1.66-.52-.28-.1-.56,1.2-.85-.7-.28,1.45-.57,1.84-.86,1.11-.57.05-1.15,1.79-1.73,1.28-.58-2.15-1.16-.47-1.75,1.13-1.17-.27-2.33,1.32-3.48-.33-1.34,3.3-2.65,1.79-3.91-1.66-1.26.76-2.47,1.06-3.59,2.71-.56,2.1-1.1,1.88-1.62.3-.52.49-1-.58-1.47-.49-.93,1.51-1.75.8-2.42,1.79-1.35-1.47-2.15.82-2.15-.35,0-1.12-3.48-.86-3.48.75.45-3.59.66-1.09,1.34,3.09.14.73-1.52-1.26.41.64,0-1.3,1.73-1.36.64-.36,1.57-3-3.2-1.75.72.66-.66-.31-.93-.49-.95-.72,0,.75.84-.59,2.1,2.37,1.26-1,2.94-.4,4.63.92,1.68-.82,3.37-.79,4.63-.18,1.26.81,2.1-.2,2.1,1.89,0-1.25.85-.9,2.21-1.35.68.89,1.49-1,2.38-1.52.45-1,.91-1.55,1.4-1.23.48,1.54,1,.37,1.49,3,.51,2.65,1,.18,1.55-.33.53-2.59,1.06-1.46,1.59,1.58,1.06.35,2.12-1.28,3.14,1.54.51,1.17,1-.28,1.49.83.48-2.26.95-.8,1.4-1,.89,1.64,1.7-1.07,2.38C1088.34,58.83,1088.32,59.68,1086.32,59.68Z"/><path class="cls-3" d="M1150.78,74.25c-1.89.77,4.34,1.52,5.15,2.27,2.4.75,2.69,1.49,2.64,2.22.6,1.46-.9,2.88-4.74,4.27-9.1,2.77,2.44,5.4,1.6,7.87-4.71,2.48,2.8,4.81,1.61,7,4,2.18-1.68,4.21,1.17,6.09-1.4,1.88-4.66,3.61.74,5.19,2.82,1.58-2.11,3,.34,4.28,1.2,2.55-3.74,4.5-.42,5.82-4,1.77,0,2.16.45,1.28-3.28-.88-1.25-3,2.57-6.33-1.54-1.66-3.45-3.6,1.26-5.83,7.35-2.22.53-4.73.8-7.5,2.71-1.38-6.44-2.69-.12-3.95-9.66-1.26-2.76-2.46-.73-3.65.24-1.18,5.76-2.35-1.16-3.52-7.18-1.17-1.82-2.34-1.43-3.55-5.5-1.21-8.27-2.45-1.53-3.75-1.63-1.3,2.47-2.66-1.46-4.11-3-1.45-3.58-3-1.81-4.65-1.3-.83.71-1.69,1.12-2.57-1.22-.89,1.8-1.81-1.36-2.77,1.7-1-3.16-2-2.68-3-3.7-1-.34-2.11,2.4-3.22,7.39-1.12-3.76-2.28.76-3.48-1.94-1.21-1.56-2.46-.24-3.76,4.41-1.3,1.18-2.65-.59-4.06-.13-1.41-.31-2.86,2.48-4.38-2.35-1.52-1-3.09.78-4.72,1.55-1.63,4.58-3.33,1.2-5.08,2.3-2.48,4.49-4.8,1.85-7,.31-2.17,4.07-4.19,1.26-6.08-4.11-1.88,4.34-3.63.73-5.24,1.43-1.62,4.08-3.1.26-4.47,1.94-2.74-2.63-5-.64-6.86-2,.05-3.72.11-.37.17s2-.31-4.54-.53c9.49,1.36-.32,2.89.19,4.62,2.9,1.73,1.17,3.67,0,5.82,6.28,1.86,1.4,3.62-.29,5.29,4.26,1.67-4.29,3.24-.59,4.74-5.13,1.5-10,2.92-.84,4.28-4.2,1.36,2.45,2.65-1,3.89,2.7,1.24,1.59,2.43-1,3.58.25,1.15.72,2.26-1.34,3.34,6.33,1.62-3,3.19-1.48,4.73-3.61,1.55,6,3.07-1.76,4.63.5,1.55,4.59,3.14-.11,4.78-.84.82-8,1.67-3.83,2.53-.25.86.72,1.75,2.54,2.67-2.64,1.83-.22,3.77,1,5.87-2.81,1-5.37,2.14-3.27,3.27,2.62.57-.69,1.14-.5,1.73C1145.13,73,1145.13,73.64,1150.78,74.25Z"/><path class="cls-3" d="M1043.86,85.82c-.51-1.2.8-1.21,1.25-1.84-.45-1.22,1.43-.93-.06-2.92,1.17-.22-1.25-2.87-.73-3.6-1.77-2.26.33-2,2.11-1.94,4.32,1.73-1.5-3.37,1.28-2.77-.76-1.77-.25-2.72.79-3.38,2.74.48,1.3-1.89.68-3.77.28-1.28.54-2.62,2.44-2.92-.92-2.19.2-3.08,1.59-3.85s3.33-1.23,1.91-4c1.87-1.33,3.64-2.56,2.73-5.43.71-1.79,3.26-2.18,2.19-4.86l0-.05c-.27.29-.54.26-.81-.79a1.93,1.93,0,0,0-1.38-.12,4.3,4.3,0,0,1-.9.36c-.24.12-.47.24-.71.34-.32.25-.4.65.08,1.43a10.72,10.72,0,0,0-3.42-.31,4.56,4.56,0,0,0-.17,1.09c0,.1,0,.18,0,.26a14,14,0,0,0,2.09,2.39c-2.63-.35.69,3.22-1.52,3,1.17,2.08.27,2.71-1.42,2.77-.14,1.1-.16,2.24-1.56,2.43,3.07,3.74-2.45,1.68-2,3.6-2.36,0,2.5,4.88-2.1,3.41-.11,1.54,1.74,4.43-1.24,4.15-.66.42-4.77-1.47-2.72.81-.35.67,0,1.8.73,3.27-1.9.63-1,3.22-.92,5.49-1.8-.11-3.47-.1-2.59,1.66,1.3,1.46-.66.75-.7,1.33-.52.26-.67.79,2.27,3.4-1,0,.84,1.82,1.77,3.06A2,2,0,0,1,1043.86,85.82Z"/></g><g class="cls-2"><path class="cls-3" d="M123,6c-.21.72-.74,1.54.07,2.72s-1.09,2,.08,3.4c.41.75-.91,1.21-.15,2.07-.54.62-.37,1.38,0,2.19,1,.92-.16,1.47.05,2.27,0,.75-.68,1.4.11,2.3-.79.61.14,1.55.14,2.29-.37.68-1.15,1.28.14,2.24,0,.87-.39,1.64.13,2.55a1.52,1.52,0,0,0,.43,1.85c.52.66,0,1.12-.07,1.61-.73.89,1.07,2.14,0,2.71-.49,1.43-.87,2.28-.2,2.4-.9-.17,1.53.49.32.65.15.41,0,.94-.6,1.53.87.51-2.64.25-.69,1-1.05.22.46.95.15,1.36a1.47,1.47,0,0,0-.24,1.45,2.76,2.76,0,0,0-.43,1.54c-.22.71.43,1.6-.42,2.24.59.77-.37,1.28-.38,2s-1.45,1.12-.4,2c-1.64.4-.31,1.34-.44,2a2.12,2.12,0,0,0-.37,2,2.69,2.69,0,0,0-.33,2c-1,.47-.52,1.21-.42,1.85.61,1.23.84,2.32-.46,3-.51.85-.16,1.75-.66,2.36a1.87,1.87,0,0,0-.37,2.17c-.28-.05.27,1.1.25,2.67a3.06,3.06,0,0,1,.26,2.74l.3,3.14.8,8.56-1.44-7-.88-4.29a7.21,7.21,0,0,1-.46-2.26A2,2,0,0,0,116.3,67c-.18-.75,0-1.42-.46-2.2,0-.68,1-1.19-.41-2.09-.57-1.07.37-1.81-.83-2.85.28-.77-.45-1.63-.6-2.26-.05-1.22-.27-2,0-1.94-.48-.09.85-.55.48-1.79.39-.51.27-1.24.49-2s.1-1.65.71-2.48c1.07-.43.7-1.15.63-1.83-.41-.74-.49-1.45.49-2s.89-1.23.42-2c1.56-.06,1-.52.77-.91-.95-.53-.55-.8-.34-1.11.35-.63-.39-1.45.46-2-.08-.35-2.34-1.1-.26-1,0-.32,0-.65,1-.78-.45-.55.29-.87.57-1.26,2.3,0-.26-.9.47-1.16-1-1,1.57-1.21.22-2-1.37-1.42.42-1.8.42-1.8-1.25-.23-.53-.3.68-.43-1.88-.71-1.09-1.09-.26-1.6-.13-.68-.48-1.54.14-2.31.08-.87-.75-2,.07-2.92.33-.64-.55-1.54,0-2.19s.21-1.23.1-1.9c.85-.49.53-1.2.17-1.93a4.3,4.3,0,0,1,.22-1.93c-.25-.7-1-1.49.24-1.91-.77-.79.57-1.17.24-1.85-.5-.71.66-1.1.22-1.77A2.91,2.91,0,0,1,122.51,8c-.16-.92.33-1.62.2-2.3,0-.11,0-.21,0-.31A2.88,2.88,0,0,0,123,6Z"/><path class="cls-3" d="M66.72,57.24c-.28,0-1.21.24-1.18.69a4.7,4.7,0,0,0,1,1.9c-1.82.81,2,1.78-.38,2.86C67,63.78,64,65,66,66.28c.43,1.29-1,2.66-.34,4.07.21,1.65-1.18,3.35-.2,5,1.26,1.69.2,3.38-.64,5,1.69,1.61.4,3.15-.38,4.55-2.16,1.4-.3,2.66-.31,3.72-.16,2.12-.29,3.44-.29,3.44A7.29,7.29,0,0,0,64.36,89c1-.94,3.59-2.06.61-3.3.07-1.24-.79-2.61.75-4a4.21,4.21,0,0,0,.82-4.42c1.22-1.5,2.46-3,.83-4.47,1.59-1.25.56-2.47.67-3.61-.5-1.15.76-2.22.55-3.19-2.54-1-2.42-1.83.52-2.54-.55-1.43.09-2.29.42-2.29.59,0,1-.58.53-1.6.44-.13,1.15-.26,1.9-.4.11-.14-.16-.29.59-.44,1-.31-.24-.64-1.78-1-1.21-.36-1-.73-.84-1.13-.51-.4,1-.82,1.52-1.25-2-.44-1.7-.89-.15-1.36,1.18-.47.56-1,1-1.46,1.53-1,.77-2.06,1.13-3.15-.47-.55-.57-1.1-1.53-1.66-.45-.28-.09-.56,1-.85-.61-.28,1.26-.57,1.6-.86,1-.57,0-1.15,1.55-1.73,1.11-.58-1.86-1.16-.41-1.75,1-1.17-.23-2.33,1.15-3.48-.29-1.34,2.86-2.65,1.55-3.91s.66-2.47.92-3.59c2.35-.56,1.82-1.1,1.63-1.62.26-.52.43-1-.5-1.47-.43-.93,1.31-1.75.69-2.42,1.55-1.35-1.27-2.15.71-2.15-.31,0-1-3.48-.75-3.48.65.45-3.12.66-.95,1.34,2.68.14.63-1.52-1.09.41.55,0-1.13,1.73-1.18.64-.31,1.57-2.63-3.2-1.52.72.57-.66-.26-.93-.43-.95-.62,0,.65.84-.52,2.1,2.06,1.26-.86,2.94-.35,4.63.79,1.68-.71,3.37-.69,4.63-.15,1.26.71,2.1-.17,2.1,1.64,0-1.08.85-.78,2.21-1.17.68.77,1.49-.84,2.38-1.32.45-.86.91-1.34,1.4-1.06.48,1.34,1,.32,1.49,2.63.51,2.3,1,.15,1.55-.28.53-2.25,1.06-1.26,1.59,1.37,1.06.31,2.12-1.11,3.14,1.34.51,1,1-.24,1.49.72.48-2,.95-.69,1.4-.85.89,1.42,1.7-.93,2.38C68.48,56.39,68.46,57.24,66.72,57.24Z"/><path class="cls-3" d="M163.73,77.69c1.64.77-3.77,1.52-4.47,2.27-2.09.75-2.33,1.49-2.29,2.22-.52,1.46.78,2.88,4.11,4.27,7.89,2.77-2.12,5.4-1.39,7.87,4.09,2.48-2.43,4.81-1.4,7-3.44,2.18,1.46,4.21-1,6.09,1.22,1.88,4,3.61-.65,5.19-2.45,1.58,1.83,3-.3,4.28-1,2.55,3.24,4.5.36,5.82,3.43,1.77,0,2.16-.39,1.28,2.85-.88,1.08-3-2.23-6.33,1.34-1.66,3-3.6-1.09-5.83-6.38-2.22-.46-4.73-.7-7.5-2.35-1.38,5.59-2.69.11-3.95,8.38-1.26,2.4-2.46.63-3.65-.21-1.18-5-2.35,1-3.52,6.23-1.17,1.58-2.34,1.24-3.55,4.77-1.21,7.18-2.45,1.33-3.75,1.42-1.3-2.14-2.66,1.27-4.11,2.57-1.45,3.11-3,1.57-4.65,1.13-.83-.62-1.69-1-2.57,1.05-.89-1.56-1.81,1.18-2.77-1.47-1,2.74-2,2.33-3,3.21-1,.3-2.11-2.08-3.22-6.41-1.12,3.26-2.28-.66-3.48,1.68-1.21,1.35-2.46.21-3.76-3.83-1.3-1-2.65.51-4.06.11-1.41.27-2.86-2.15-4.38,2-1.52.89-3.09-.68-4.72-1.35-1.63-4-3.33-1-5.08-2-2.48-3.9-4.8-1.6-7-.27-2.17-3.53-4.19-1.09-6.08,3.57-1.88-3.77-3.63-.63-5.24-1.24-1.62-3.54-3.1-.22-4.47-1.68-2.74,2.28-5,.55-6.86,1.74.05,3.22.11.32.17s-1.77-.31,3.94-.53c-8.24,1.36.28,2.89-.17,4.62-2.52,1.73-1,3.67,0,5.82-5.45,1.86-1.22,3.62.25,5.29-3.7,1.67,3.72,3.24.52,4.74,4.45,1.5,8.64,2.92.73,4.28,3.64,1.36-2.12,2.65.88,3.89-2.34,1.24-1.38,2.43.85,3.58-.22,1.15-.62,2.26,1.17,3.34-5.49,1.62,2.63,3.19,1.28,4.73,3.13,1.55-5.17,3.07,1.53,4.63-.43,1.55-4,3.14.1,4.78.72.82,6.91,1.67,3.32,2.53.21.86-.62,1.75-2.21,2.67,2.29,1.83.19,3.77-.84,5.87,2.44,1,4.66,2.14,2.83,3.27-2.28.57.6,1.14.43,1.73C168.62,76.47,168.62,77.07,163.73,77.69Z"/><path class="cls-3" d="M212.22,108c.44-2.15-.7-2.18-1.08-3.3.39-2.2-1.24-1.66.05-5.24-1-.39,1.08-5.14.63-6.45,1.54-4.06-.29-3.53-1.83-3.48-3.75,3.11,1.3-6-1.11-5,.66-3.17.22-4.88-.69-6.06-2.37.86-1.13-3.39-.59-6.76-.24-2.29-.47-4.7-2.11-5.24.79-3.93-.17-5.52-1.38-6.89-1.09-1.54-2.88-2.21-1.65-7.19-1.62-2.38-3.16-4.58-2.37-9.73-.61-3.2-2.83-3.9-1.9-8.71l0-.1c.23.52.47.47.7-1.41a.92.92,0,0,1,1.19-.21,3.19,3.19,0,0,0,.78.65,7,7,0,0,0,.62.6c.27.46.35,1.17-.07,2.56,1.19-.44,2.35-.87,3-.55a16.35,16.35,0,0,1,.15,2c0,.18,0,.32,0,.46a28.71,28.71,0,0,1-1.82,4.29c2.28-.63-.6,5.77,1.31,5.43-1,3.72-.24,4.85,1.23,5,.13,2,.14,4,1.35,4.36-2.66,6.71,2.12,3,1.71,6.46,2,.05-2.17,8.74,1.82,6.11.1,2.77-1.51,7.94,1.08,7.43.57.75,4.14-2.63,2.36,1.46.3,1.2,0,3.22-.64,5.86,1.64,1.14.91,5.78.8,9.85,1.56-.2,3-.18,2.25,3-1.13,2.61.57,1.34.61,2.39.45.47.58,1.41-2,6.09.84,0-.73,3.26-1.54,5.48A5,5,0,0,0,212.22,108Z"/></g></g><g id="Forest"><path class="cls-4" d="M1907.73,177.95c-.45-.81-2.63-1.49-6.14-2.25-14.32-1.31-20.32-16.31-31.32-21.31-21-9-38,16-60,17-8,0-15-2-19.89-7.75a77.6,77.6,0,0,1-6.58-7.21c-6-7.54-11.53-15.54-19.53-19-14-8-24,16-34,26-6,6-12,5-19.39,8.56-3,2-6.08,4.52-9.16,3-6.16-.19-12.4,7.11-18.38-4.24-3-3.17-5.9,2.47-8.71-5.87-2.81,8.09-5.51-3.46-8.06-10.62-3.05,7.49-7-3.34-11.51-5.66-4.55,10.4-9.74-11-15.38-1.11-2.82-8.22-5.74,16.22-8.76,4.9-3,16.87-6.11-8.81-9.27,3.93-3.15,7.44-6.37,5.17-9.62,6.12-3.25-1.4-6.54-6.37-9.83-4.62-1.65-11.37-3.3-11-4.94-.71-1.65-5-3.3-1.46-4.94,12-3.29,9.29-6.55,3.94-9.78,2-3.22,5.92-6.41,10.19-9.52,8.46-3.12,4.77-6.16-5.82-9.12-5.57-3-1-5.81,4.62-8.55-2.77-1.37-2.95-2.72-2.54-4-.15-1.31,1.26-2.59,2.28-3.83,8.67-2.47,4.78-4.81,3.72-7,1.9-2.17.81-4.16,1.08-6,3-3.6-7.62-6.42-12.67-8.25-10.22-1.7,2.11-2.55,5.5-2.39,4.4-.28.18-.9-.56-1.81-6.26-.79,7.88-1.81,5.33-3-.77-1.21-4.09-2.63-7.15-4.21-7.36-1.59-1.13-3.34-6.86-5.24-4.93-1.9,4.44-3.94,1.23-6.1-.16-2.16,1.33-4.44,4.36-6.81,7-2.37-3.67-4.82.17-7.34-3.9-2.52-1.15-5.1-6.7-7.72-.81-4.2,1.08-9.3,5.16-13.47,3.17-4.18-.92-7.43-4.34-7.93-10.26a4.14,4.14,0,0,1-5-3c-3-5.62-6.5-3.4-10.75-15.75-4.25-8.08-9.25-9-15.25-5.25-5,2.51-8.25,5-10.5,10.25-2.25,2.1-3.5,13.8-4.5,17.75v-1c-1.5-2.54-4.25,15.28-7,10.5-2.75,6-5.5,6.29-7,10.5-1-4-3-7.09-5.12-3.88-2.13-5.31-4.38-.08-5.88,2.88-1-5.13-1-9.79-2-9-1,1.62-1-2.34-1,1-1.5-1.84-2.5-4.4-3.61-5.93-1.11-1.36-2.34-3.29-4.29-5.51-1.55-.68-3.36-.57-5.48,6.41-1.06-8.69-2.09-2.71-3.08-9.69-1-3.31-2,.09-2.89-1.55-3.82-3.57-4.74,5.23-5.44,8.49-.71,3.64-1.21,11.36-4.21,9.78,0,2.6-1-.23-1-1-3.5-4-5.75,4.53-7.12,13.75-1.38,1.42-1.88,12.43-1.88,15.25-1.66-7-3.11-7.16-4.59-17-1.48-9.56-3-5.47-4.81-16.74-1.82-6.12-3.93-7.87-6.6-16.3,0,2.91-1,1.33-1,2-1-2.15-1.25-6.71-2-12.25-.75-12.19-2-13.11-5-7.75-6.33,4.07-11.44-1.72-15.85,1-4.41-10.51-8.11,6.28-11.63,11.26-3.52,5.48-6.85,12.91-10.52,15.7-1-5-3,5.83-5,0-1,8.57-2.5,4.79-4.39,5.87-1.89,9.32-4.17,13.8-6.73,2.1-2.94,8.65-5.41-1.73-8-5.47-2.61-.78-5.36-.56-8.86-2.5-1,3.34-2,.32-2-4-3-2.13-6.25-5.73-9.62,1.62-3.38-1.29-6.88,5.06-10.38-.63-2.17-2.65-4.28,4-6.35,4.89-2.07-2.21-4.09,7-6.09,1.49-2,5.36-4,4-5.93,5-2,11-3.91.1-5.85,3-1.94,1.8-3.89,9.9-5.85,5.57-2-5.73-3.93,5.24-5.93,2.13-.75.48-1.81-1.86-3.14-7.93-1.33-4.17-2.92-11.54-4.73-5.69-1.81,3.3-3.85-.37-6.05-4.75-2.2.69-4.58.43-7.08-3.63-3-2-5.93-2.58-8.73.29-2.8,1.5-5.45-.36-7.89-.91-2.44,3.45-4.66,4.78-6.58,5-1.87-1-3.47.75-4.7,5.28.27-1.8-.41-8.56-1.1-6.64a23.2,23.2,0,0,1-1-4.68v5.68c-.75-4.2-1.56-7.78-2.4-6.12-.85-4.4-1.72-4.44-2.6-5.38-.87-6.89-1.75-12-2.59-9.63-.84-.81-1.66,1.3-2.41-1.87-2,5.28-3,6.33-3,11-2.5-10.29-3-.87-3.87-6.75-.88.19-2.13-12.37-6.13-5.25-2.16-5.93-3.86-9.59-5.26-11.7-1.39-.72-2.5-1.08-3.48,2.26a11.85,11.85,0,0,0-2.76-3.56c-.92,3-1.89-3.52-3.09-7.88-1.21-.06-2.64.76-4.49-2.16-1.84-6.09-4.09,3.2-6.92,2.07-2.75,1.47-5.5,3.44-8,1-2-5.77-4.21-.38-6.6,6.45-3.68,5.51-7,4.62-10.32,5-3.3,4.32-6.55,7.45-10,4.57-5,2.15-4-3.27-4-7-1-6.36-3,2.09-4,2-2.5-14.35-6-4.49-9.75-8.62-3.66,1-7.56-2.5-11-6.12a15.44,15.44,0,0,1,.52,3.8c-.2,1.28-.41,1.33-.66,1.45,0-.17-.07-.34-.11-.51a2.15,2.15,0,0,0,.07.53c-.29.14-.63.45-1.07,2.72-1,4.65-2.5,3.39-5,4.75-3-1.7-6-2.32-8.9-4.07-2.91-4-5.72,5.36-8.35,3.69-2.62,4.38-5.06.3-7.22-3s-4-7.52-5.53-8.63c1,7.2-5-11.73-5-10-2-7.54-5-5.32-7-1.8-2.52,14.45-5-3.23-7-.29-2.57-6.58-5.07-8.3-7.59-6.22-3.79-1.88-7.64-4-11.62,2.6-4-.57-8.12-5.15-12.48,4.71-2.06,7.7-3.91-1.08-5.49,3.1-1.57,5.55-2.89,3.1-3.89,7.9-2-2.44-4,.59-6-3-2,2.64-4,12.1-6.78,8.9-1.62,5.73-3.16,5.71-4.61,6.13-1.45-4.89-2.81,7.11-4.07,9.84-1.26,2.41-2.43,8-3.48-.49-2.11,7.76-3.77,5.18-4.91,9.36-1.14,8.16-1.75,2.62-1.75,1.15,0-7.1-2.46-11.75-6.29-11.64-1-19.2-2-6.39-3.12-11.07-1.12-2.09-2.3-1.08-3.54-.35-2.47-1.88-5.16-16.44-7.93-12.37-2.76,5.16-5.61-23.84-8.4-8.66-2.79-4.81-5.52-17.56-8.07-10.61-2.55,0-5.66-8.13-9.14-2.56-3.48,3.45-7.33,17.39-11.36,7.51-4-7-8.22,3.18-12.39,10.55-4.17-.78-8.32,4.71-12.25,8-3.93-4.54-7.64,4.57-10.94-.58-3.29-10.5-6.16,9.08-8.43,3.83-3.39-9.15-7.64-10.82-12.09-7.59-4.46-5.1-9.13,6.61-13.37,2.35-8.49,13.76-15.28-2.36-15.28,5.24,0-1.69-1.13-7.36-3.2-8.59a10.6,10.6,0,0,0-8.81-2.2c-3.74-2.27-8.22,3.23-13.24-9-2.51-2.22-5.16-1.16-7.92-7.24-2.75,6.54-5.62-4.81-8.58-1.57-3,5.82-6,.06-9.1,2.34-3.1-10.9-6.27-17.71-9.47-7.21-3.2,1.68-6.44-3.89-9.69-3.7-3.26-12.2-6.52-13-9.78,5.41-4.88,13.74-9.15-2.79-12.91-.25-3.76-1.12-7-10.42-9.84,4.14-5.68,8.53-9.71-1.52-12.89-3.28-3.19-2.84-5.52-25.77-7.8-8.44-2.28-.1-4.51,24.38-7.48-6.4-3-29.66-6.26,10.23-9.68-4-1.71-5.25-3.46-4-5.21,5.37-1.76,21.25-3.52,3.86-5.27,8.81-3.5,13.72-7,3.86-10.16,11-3.21,8.24-6.18-1.64-8.73-8.22-1.69,1.71-3.86,17-6.39-6.95-2.53-20.36-5.43-1.39-8.57-2.8-3.14-10.51-6.54-15.91-10.08-6.28-3.53-6.29-7.21-.84-10.92,6.7C552.5,86,550.63,86,548.78,83.65s-3.71-7.48-5.54-6c-3.66,2.92-7.25-13.42-10.64-4.93-2.55-2.91-5.12-12.31-7.68-4.48-2.56,2.56-5.11,10.79-7.6,5.52-5,1.61-9.76-5.92-14,3.33-4.24-.16-8,.36-10.82,6.79-2.86-10-4.88-3.17-5.73-2.93-.85,15.25-3.82-3.41-8,.61-4.22-.15-9.69,5.19-15.52.06-5.84-4.4-12,11-17.75,2.87-5.7,1.29-10.9,4.87-14.72-2-7.64-11-13.58,7.58-17.61,5.45-4,7.57-6.15-2-6.15,11.45,0-20.43-4.25-2.49-10.83-6.36C392.87,99,389,86.2,384.78,88.36c-4.22-8.32-8.78-8-13.45-5.41-3.11,23.52-7.12,6.47-11.64,1.53-2.26,4-4.65,3.92-7.12,9.52-2.46,8.56-5,7.9-7.59-1.77-3.43-3.37-6.93,5.29-10.36,6.25-3.44,10-6.81,18.47-10,8.75-3.2,10.27-6.23,8.33-9,5.49-2.74,5.76-5.2-14.29-7.26,8.54-4.12,7.44-6.63-11.79-6.63,6.21,0,7-5.94,10.13-15.07-1.83-4.56,12.57-9.92,16.23-15.73-5.39-2.9-5.16-5.92-22.86-9-2.76-3.08,8.25-6.24-4.49-9.42-8.47-3.19-11.06-6.26-2.14-9.22-7.7a20.35,20.35,0,0,0-8.53,1.27c-5.43,3.43-10.37,13.53-14.72,4.61-4.35-4.89-8.11,8.85-11.22,6.56-3.1-7.89-5.54,18.93-7.24-.28-1.7-6.75-4.29-9.18-7.23-7.87a10.46,10.46,0,0,0-4.28-3.28c-2.53-1.08-6.11-.63-10.52,1.17-1.58.15-5.11-4.27-11.24-2.15-.29,2.62-1.83-.42-4.22.75-2.38,3.28-5.62-1.8-9.3.69-7.43-8.52-10.12-1.16-10.1-1-3.22-3-4.36-8.69-5.2-5.91s-1.38-1.21-3.41-4.68c-3,.31-5.63-1.82-7.79-2.73-2.16-2-3.85-6.73-5-.07-1.11,4.2-5,4.74-8.25,2-3.25,9.18-5.89,3-4.52,2.5-.64-.59-3.53-2.71-6.4,2.39-2.88,2.33-5.74,5.62-6.33,1.63-1.6,2.88-3.6.59-5.86.23-2.26,6.17-4.78-3.2-7.45-1.8C78.1,89.64,79.77,96.6,77,93.4c-3.77-1.43-7.49,3.87-11.12.39-1.82-6.5-3.62,6.94-5.4,2.75-1.78,7.8-3.53,2.31-5.26,5-4.61-.56-9-9.37-13.21-6.41-4.17,4.25-8.1,3-11.72,2.61-3.63,2.24-6.94,2.75-9.88,5.2-4.42,3.35-8-1.17-10.55.83-2.54-4.26-4,1.4-4.3,1.9C1,113.46.14,108.38,0,105.76V663.39H1920V175.29C1917.47,174.51,1913.18,174.73,1907.73,177.95ZM1030.5,118.43c.19.41.45.47.62-.74,0,1.1.1,2.37.14,3.81,0,.32.08.8.1,1.29C1031.22,121.82,1030.88,120.17,1030.5,118.43ZM1524,178.35c0,.14,0,.25,0,.33C1524.14,178.54,1524.16,177.9,1524,178.35Zm-380.71-23.64v-2.32C1143,152,1143.08,153.21,1143.27,154.71Zm-113-42.32.25.26C1030.45,112.45,1030.36,112.37,1030.27,112.39ZM0,105.76v-1.19A4.63,4.63,0,0,0,0,105.76Z"/></g></g></svg>