<svg xmlns="http://www.w3.org/2000/svg" viewBox="0 0 1920 344.61"><defs><style>.cls-1{fill:#3e5849;fill-rule:evenodd;}</style></defs><title>Layer5</title><g id="Layer_2" data-name="Layer 2"><g id="Shrub"><path class="cls-1" d="M1670,83.58l-1.11-.39A3.72,3.72,0,0,0,1670,83.58Z"/><path class="cls-1" d="M1668.92,83.19a4.06,4.06,0,0,0-1.67-.58Z"/><path class="cls-1" d="M1330.45,116.73l-.24-.12A.36.36,0,0,0,1330.45,116.73Z"/><path class="cls-1" d="M1670,83.58l.15.05.07,0Z"/><path class="cls-1" d="M1658.87,82.39a3.74,3.74,0,0,0,1.38-.78A14.27,14.27,0,0,0,1658.87,82.39Z"/><path class="cls-1" d="M1576.5,14.2a5.33,5.33,0,0,0,.74-.6A.83.83,0,0,0,1576.5,14.2Z"/><path class="cls-1" d="M1903,33.19a2.42,2.42,0,0,0,.28-.58C1903.17,32.81,1903.08,33,1903,33.19Z"/><path class="cls-1" d="M361,61.3a2.52,2.52,0,0,1-.55,1.42A4.73,4.73,0,0,0,361,61.3Z"/><path class="cls-1" d="M482,149.1a5,5,0,0,1-.67,1.86A4,4,0,0,1,482,149.1Z"/><path class="cls-1" d="M552.05,167.1a4,4,0,0,1,.44.53,3.39,3.39,0,0,1-1.44.47Z"/><path class="cls-1" d="M632.05,124.28a2.63,2.63,0,0,1-1,1.82C631.06,125.16,631.94,125.1,632.05,124.28Z"/><path class="cls-1" d="M772.07,150.1a14.67,14.67,0,0,0,1.54,1.12A3.56,3.56,0,0,1,772.07,150.1Z"/><path class="cls-1" d="M1914.18,51.1c1-1,3-2,2-4l-2,2c-1-1-1-3-1-5-3,1-6,1-9,2,1-2,1-4,2-6-2,1-4,2-5,1-1-2,1-1,2-1-1.89-3.8-2.89-4.9-1.27-8.42-.9,1.37-2.31-1.34-3.27-1l-.46.46a.81.81,0,0,1,.46-.46l.54-.54c-1,0-2,1-3,2,1-1,1-3,2-4-2,0-4-1-6,1,1-4,0-6-4-8l3-3c-1,0-3,0-4,1,0-1,0-2,1-2a40.74,40.74,0,0,0-8.69.64c3.69-1.09,7.59-3.07,6.7-6.64,0-2-2,7-6,2l1-1h-3a12.68,12.68,0,0,0,1-6c-5,3-1,0-7,1v2c0-2-1-2-2-3,2,2,2,6,1,8-2,3-3-1-5-1l3,3c-3,0-5-1-7-4,0,5,5,5,7,9-3,0-7,1-10-1,1.31,1.31,3.2,1.86,5.17,2.39,0,0,0,0,0,.07l.18,0c2.47.67,5,1.36,6.68,3.56-4-2-4,1-8-1a20.92,20.92,0,0,1-6-4c1,3,4,5,4,9-3-1-6-3-9-3,2,2,3,5,6,6-2,1-4-1-6-2,2,3,1,9,6,8-4,2-8-2-11,0-2,2,3,3,3,5-1,0-1-1-2-1-1,3,4,2,3,4-1,1-2,0-3-1-1,2,1,2,2,3-2,0-4-4-7-1l1.62,1.63c-.87-.86-1.74-1.63-2.62-1.63,0,2.07.49,3.19,1.45,4a1.92,1.92,0,0,1,1.55,1,7.53,7.53,0,0,1-1.55-1c-1.81-.1-3.92,2.28-5.45,0,2-1,3-2,3-4-2,1-4,1-5,3-3-2,0-7-4-8v2c-2-1-3-1-5-2v6h-3l2,2-6-3c1,3,5,3,5,6-2,0-5,0-7-1,0,4,8,0,5,6-2-3-5-3-7-5,0,6,8,4,3,7-1,1-4-2-6-3,0,3.63,2.48,4.79,4.43,6.48-2.81-2.36-5.68-1.48-9.43-1.48,0-1,1-1,1-2h-3c0-2,2-2,4-2a3.67,3.67,0,0,0-3-1h2c-3-4-5-4-2-9-3-1-4,3-7,3l1-1c-1-1-2-1-3-2v2a2,2,0,0,1,0-2,10.82,10.82,0,0,1,2-2,3.49,3.49,0,0,0-2,1c-2-1,3-3,1-4-8-3-11-8-19-10,3,4-3,8-6,5,2,2,5,4,5,7-2-1-5-1-7-2,1,4,6,2,7,6-3-2-7,0-9-3,0,3,5,3,4,5-3,4-4-4-6-3-4,3,5,3,3,6a3.45,3.45,0,0,1-1.65,1.11.36.36,0,0,1-.14,0c-.39,0-.64-.3-.83-.74a3.61,3.61,0,0,1-.38,1.61c-1-1-3-1-4-1,1,1,1,2,2,3-1,0-2-1-3-1l2,2h-2c2,1,2,5,5,5a4.83,4.83,0,0,1-7,0c1,1,3,3,3,4-3,4-11,6-8,12l-6-9c.84,0,1-.71,1.6-.93-3.73.64-5.67-3.14-7.6-5.07-4,5-8-1-12,1,1,1,1,2,2,3-2-2-4-3-6-2,6,2-3,6,1,8-1.71-.86-3.41-1-5.12-1.63,2.52,1.24,4.32,3.83,6.12,5.63-4,0-7-1-11,1l2,2c-1,2-6,0-7,3-1-3,3-1,3-3-1-3-4-2-6-2,1-1,3-1,4-2h-10a9,9,0,0,0,1-5c-3,3-7,2-11,1,5,0,5-5,8-7-3,1-6,5-10,4,3-1,10-3,7-7-1,0-3,2-4,3,1-1,1-3,2-4a41,41,0,0,1-11,1v-5c-1,1-1,2-2,3v-3c-3,2-5,4-9,2,5,3,2,6-2,8,1,0,1,1,2,1-2,0-5,0-7-1l1-1c-1,1-3,1-4,2,1,2,3,3,5,2a3.67,3.67,0,0,1-3,1c1,4,5,6,9,5-2,1-4,3-6,3,.94,0,1.88.88,2.81,1a14.82,14.82,0,0,1-4.88-1,6.32,6.32,0,0,1-1.5.52l-.14,0a24.36,24.36,0,0,1-5.29.42c3,4,10,1,13,5-6,1-13-5-19,0,0-2.86,4.54-3,4.09-6.49h0a4.36,4.36,0,0,0-.09-.51,4.65,4.65,0,0,1-.52.83l-.15.2a3.45,3.45,0,0,1-4.33,1,14.91,14.91,0,0,1,2.63-2.22,7.1,7.1,0,0,0-2.63,1.22c0-2,1-2,2-2-1-2-7,0-6-5-1,1-1,2-2,3,1-2-1-3-2-2-2,4-12,2-16,6,0,0,.3.58.72,1.28l.28-.28c0,1,1,1,1,2a10.25,10.25,0,0,1-1.28-1.72l-1.72,1.72c0-2,0-5,3-5-4-5-6-11-7-18-1-5-7-11-11-16-1,2-3-1-4,0-3-8-12-6-18-10-1-1-1-5-3-5-1,0-3,1-5,1,2-1,4-3,6-3a3,3,0,0,0-4,0c1-1,1-3,2-4-2,0-5-1-7,2v-1c-2,0-4,2-6,3,3-2,3-6,6-8-3-2-2-7-7-7a4.15,4.15,0,0,1,.26-1.41c-1.05.73-2.47,1.2-3.26.41v-4c-3-1-9,0-9,5-1-1-3-1-4-1a3,3,0,0,0,.48,1.84c.91,0,1.78.16,2.52.16-1.21.6-2,.47-2.52-.16a4.72,4.72,0,0,0-4.48,2.16c0-1,1-2,1-3-1,0-1,1-2,1,5-5-3-7-2-13h-4l1-1c-5-3-6,5-8,8,0-2-2-3-3-1,0,2,2,3,3,5h-3c1,1,2,1,3,2-3,2-9,4-9-2-1,1-2,1-3,2,1-2,2-4,1-6-2-1-3,2-5,2,2-2,3-4,1-6a3.49,3.49,0,0,1-2,1,3.67,3.67,0,0,1,1-3c-4-1-8-5-12-2,0,1,1,2,1,3h-4a2.65,2.65,0,0,0,3,3h-4c1,1,2,1,3,2-1,0-2-1-3-1,1,1,2,1,2,2-.75,2.25-4.32,3.37-3.94,5.06l1.94,1.94c-1.25-.75-1.82-1.38-1.94-1.94l-.06-.06c-3,2,0,4,1,5h-2c-1,1,0,2,1,3a5.2,5.2,0,0,1-4-2c-1,5,5,6,6,9-1-1-3-1-4-1,1,1,1,2,2,3h-5c1,2,5,1,3,4-1,1-3,0-3-1s1-1,1-2c-2,0-5,1-7-1l1-2c-3-4-7-4-11-4a3.49,3.49,0,0,0,1,2c-3,4-4-1-6-2,0,3,6,5,3,6-8,2-9-8-17-11h2c-3-1-3-7-8-4,1,0,1,1,2,1a5.5,5.5,0,0,1-5-3c1,0,1-1,2-1-4-1-6-5-10-7a8.72,8.72,0,0,0,0,1,2.55,2.55,0,0,1,1,2,3.17,3.17,0,0,1-1-2,3.51,3.51,0,0,0-4.16-.27,2.85,2.85,0,0,1,1.12,2.25,3.49,3.49,0,0,1-2-1,2.52,2.52,0,0,1,.88-1.25,3.29,3.29,0,0,0-1.88-.75c-2,3,4,3,3,5-1,1-2-2-3-1,0,3,5,4,4,8-2-1-4-3-6-4v6c-1,0-2-1-3-1a9,9,0,0,1,1,5c-1,0-1-1-2-1-1,5,6,2,6,6-2-1-5-3-8-1,4,0,0,4,2,5-1,0-2-1-3-1,1,2,3,3,5,4-3,1-5-2-8-1,3,3,2,6,5,9a13.81,13.81,0,0,0-4-3l1,1c-1,2-3-1-4,0-3,2,1,3,1,5-1,0-1-1-2-1,1,1,1,3,2,4h-1l2,2a9,9,0,0,1-5-1c1.49.74.76,3.16,1.54,4.34.47.19,1,.41,1.46.66a1.58,1.58,0,0,1-1.46-.66c-3.31-1.31-6-1.09-9.54.66,2-5,2-8-3-9-1.67,0-1.25,1.4-.48,2.44-.84-1.06-1.68-2.61-2.52-3.44a9,9,0,0,0,1,5c-4-3-9,2-7,5,1,1,5,1,7,3-3,1-5-1-7-2l.81.82c-.94-.82-1.87-.88-2.81-1.82,0,1,0,3-1,4a3.49,3.49,0,0,0-2-1c3,2,2,5,4,7h-5c1,5-6,11-1,14-1,0-3,0-4-1,4,4,6,9,10,13-4,1-8-1-12-2,.88.88,2.55,1.76,2.23,3.34h0c0,.05,0,.09,0,.13a3.53,3.53,0,0,1-.2.53c-1,1-3-2-4,0,2-4-3-4-5-5-1-1,0-2,1-3a12.69,12.69,0,0,1-6,1c2,0,2-2,2-4-2,1-2,5-5,2,2,0,4-1,4-3-1-1-4,1-6-1,1.83,0,2.82-1.67,3-3.48-.34,2.37-3,1.61-4,3.48v-3c-2-3-6,0-8,1-1,2,0,4,1,6-1-1-2-2-3-2-4,3-2,7-1,11-2-1-4-3-7-2l2-2c-1,0-3,0-4,1a9,9,0,0,1,1-5c-3,0-7-1-8,1-6,6-16,16-6,24-2-1-3-2-5-3v1c-2-2-5-1-7-1,1,2,2,3,1,5-1.81-2.72-2,1.12-2.75,1.12,1.92,1,3.79,2,4.75,3.88-7-1-11,11-16.84,14.71-2.41-.09-2.69,3.81-4.7,5.31-.07-.48.06-1.16-.4-1.24.32,2-1.12,1.86-1.57,2.05.21.61.65,1.71.39,2-1.16-.81-1.74,1.66-3.14,1.22,1.18.77.29,1.18.79,2.45-1.45-.2-1-.7-.79.81-.73.39-1.31-1.22-1.57,0,.48.06.93.13.79.83-.7,1.23-1.22-1.12-1.58,0,.13.53.57.77.4,1.62-1.9.07-.39.74-1.57.81.2.61.58,1,.78,1.64-2.18-.51-2.78,1.75-2.75,4.07-.92.19-1.63.21-.78,1.65-1.69.09-1.78,1.12-2,2.85-.08-.46-.44-.64-.79-.83.58,1.7.38,1.79-.78,2,.89,4-1.6,7.7-2.36,13-.72,1.28-1.33-1.37-2,0,1.72.58,2.05,5.67,1.18,3.66,0,.54,0,1.31-.06,2.1-.12,1.75-.52,3.63-1.91,3.21-.11.79.53.81.79,1.22-.59,1.12-1.6-.7-2,.4.54.54.24,1.94.78,2.45-1-.27-1.62-.4-2.36.41,1.24,1.66,1.9.88.4,2,0,1,1.53.59,1.56,1.64-1.37,2.62-1.6,4-3.92,5.7a39.91,39.91,0,0,0,2.36,3.69c-1.33.51-2.74-.93-3.14,0,1.57,1.76,1.84,2.39,3.92,3.66-.89-.13-1.48.09-1.57.81-.19.35,1.26,2.1.79,2.45-.59-.47-1-1.18-2-1.23.55,1.44-1.11,2.62-1.58,1.64a6.45,6.45,0,0,0,2-3.26c-3,.73,0-2.12-2-2.45-1.25-.35-1.21.64-2,.81-1-.54.71-1.22-.39-1.63-1.35.36-1.76,1.7-2.35,2.86-.63-.16-.92-1.1-2.37-.42-.51-1,1.84-1,.39-1.62-.68.88-1.36,1.18-.77-.41-2-.79-2.52.46-4.72.41a2.37,2.37,0,0,1-1.17,2.45,6.56,6.56,0,0,0-.4-4.07c-2.28.09-2,1.5-2.36,2.83-.45-.88-.07-2.63-1.17-2.83-1,1.12,1,4.36-.79,5.28-.7-1.47-1.23.57-1.57.81-.36-.7-.73-1.42-2-1.21.74.75-1.36,1.66.39,2.45-1.31.52-2.08-1.6-2.75-.41-.3,1.83,3.25,1.77,2,3.27-1.77-1.4-2.81-2.6-3.92-2,.86,2,2.73,2.87,3.92,4.48-1.76.75-3.07-2.14-5.1-2.43-.66,2.91,2.16,3.77,3.54,5.71a1.07,1.07,0,0,0-1.18.81c.58.61,1.65.72,2,1.62-2.33.39-4.11-1.53-5.11-1.22-.41-1,1.7-1.43.4-2-1,.68-1.32,1.68-2.36.4-.14,1.9-1.34,2.69-2.74,3.27-.05-.5-.12-1-.79-.81-1.9,2.58-6.35,3.74-8.24,4.07.58-.33.56-1.31.78-2,5.12-1.34,10-2.91,12.56-6.93a13.47,13.47,0,0,0-4.28,1.46.47.47,0,0,1-.43.16,2.07,2.07,0,0,0,.43-.16c.38-.32.67-1,0-1-1.29.24-1.6,1.47-2.75.81,1.34-.65,2.61-1.36,3.14-2.86-3.26.83-4.89,3.36-7.46,4.9.29-1.78-.78.34-.79-.83a7.3,7.3,0,0,0,2.36-1.62c-.71-1.6-2.07,0-3.53-.81.1-.94-.1-1.55-.79-1.64a.4.4,0,0,1-.79,0c2.84-1.25,6-2.17,7.46-4.88a2.94,2.94,0,0,1-1.18-.83c1.76-.59,1.05-1.81,2.36-3.26-1.63-.08-2.41,1-2.75-.81,1.82-.83,3.91-1.39,4.32-3.67-1.75-.9-2.22,1-3.53-.41-.78.94.1.45.39,1.22-1.75-1-3.08.17-3.93,1.24-.15-.93-2.08-.34-2.35,0-.09-1.46,1.84-.82,1.57-2.46-.52,0-.36-.72-.78-.83-1.42.65-2.58-.29-3.54,1.24.38-1.4,1.46-2.77-.39-3.26,1.6-2.12,1.39-3.67,3.14-5.72-1.7,1.11-1.23-.73-2.75-.81-1.41.72-1.88,4.55-3.14,4.08.65-.7.65-4.21,0-4.89a7,7,0,0,1-3.14-.42c-.37,2,1,3.24-.4,4.09-.45-1.7-.38-4-2-4.5a36.8,36.8,0,0,1,0,8.17c-.82-1.09-2,.92-3.14.81-1.05-.69-1-2.47-3.15-2,.69,1-.49.44-1.18,1.64-.28-.83-2.23-2-3.14-.81,1.07,3.08,4.14,4.55-.39,2.43a1.11,1.11,0,0,0-.79-1.21c.07,2-1.33-1.29-1.57.81.23,2.34,2.81,2.27,2.36,5.31,2.23.27,3.37,1.65,4.71,2.85-4,1.22-6-3.5-9.42-5.31.62,4.8,4.34,6.36,7.45,8.57-1.41-.2-3,.48-2,1.63-.91-.11-1.69-.87-2,.42.11.61,1.69,1.71.78,2-.1-.63-.86-.28-1.17,0,.59-1.85-.09-3-2-3.26-.46.6-1.48.64-2,1.23-.08.31,0,.79-.39.81-.2-1.84-1.55-2.47-2.36-3.67-.76,2.84,2,4.13,1.57,5.29.12-.48-1.13-1.4-1.17-.4s2.14,1.53,1.17,2c-1.64-1.31-3.14-.24-4.31-2-.55.94,1,1.53,0,1.64-1.37-.76-3.4-.83-5.12-1.24,0,.54-.49.57-.38,1.24a35.14,35.14,0,0,0,3.53,2.85c-1.37,1.33-3.54-1.58-5.1,0,.68,2.25,5.1,3.91,2.74,5.7.16-1.37-.67-1.73-1.17-2.43a2.94,2.94,0,0,1-2.76-.83v1.64c-1.49.61-.07-1.83-1.56-1.22-1.46-.33-.73,2.51-2,1.22-.73-.78,1.77-1.66,2.35-2.45-.29.66.79,1.78.79.81-.06-.76-.26-1.37-.79-1.63a2.14,2.14,0,0,1-2.75.41,5.44,5.44,0,0,0,2-2c-1.5.08-.14-.33-.39-1.21-2.14.13-2.83.59-2.74-.81-2.21-.67-.63,2.61-2.75,2-.39-1.62,1.17-1.21.78-2.85-.39,0-.47-.33-.78-.41-.89.32-.86,1.57-2,1.64-.25-2-2.3-1.12-3.14-1.23,1.77-2.64,4.14-2.38,4.32-4.48,1.68.24,2-.89,2.75-1.62-2.91-.78-4.39,3.55-5.89,1.62a2.91,2.91,0,0,0,2-3.67c-.81.24-1.26.85-2,1.22.53-2.18-1.32-1.88-1.18-3.67a11.3,11.3,0,0,0,2-3.26c-.79,0-.51-1.11-1.57-.81-1.63-.17-2.77,2.27-3.93,1.21.56-1.3,2.28-1.43,2.35-3.26-4.17,0-7.22-1.42-9,1.64-.25-3-2.36-4.07-5.49-4.09a5,5,0,0,0,.39,4.5c-2,1.51-4.63-1.62-6.28-.41.69.5,1.59.8,2,1.62-.1,1.37-2,2.25-.79,3.67-2,.63-3.16,4-3.14,5.31-1.23-.46-1,.65-1.56.81.1-1.46-1.56-1.1-1.58-2.43,1.23.18,1.25-.89,1.18-2,1.82-.05,3.44-2.65,2-3.67-.37.21-1.3,1.83-1.56.82a1.85,1.85,0,0,0,.78-1.62c-1.65-1.15-2.63-.63-2.74-2.46a5,5,0,0,0-3.54-.4c.83-.15-.07-1.79-.39-2-1.22,0-2.07,2.45-2.75,1.62-.37-1.86,1.58-2.1.78-4.88,1.94,0,1.94-2.06,2.75-3.26-1.36-.76-2.09.18-3.53.4-.16-.7.58-1.05,0-1.23-1.2-.11-2.68,1.55-3.14.83.32-.26,1.22-1.92.39-2-.44,0-.62.59-.79,0,1.89-.75,4.11-1.16,4.71-3.26-1.84-.11.25-1.82.39-2.45-1-1.53-1.82,1.22-2.35,0a16.6,16.6,0,0,0,1.57-2c-.84-1.38-2.14.89-2.36,0,.74-.59,1.74-.92,1.58-2.45-2,.48-3-.44-3.93-1.21.8-1,3.76-1.79,2.35-3.69-1.41,1.86-2.42,1.6-3.92,3.26-.63-1.84-1.84.17-2.36.83,0-2.76,4.3-4.48,5.89-7-.34-.59-.59-1.29-1.57-1.21-1.22.86-1,1.36-2.35.4,0,1-.73,1.44-1.18,2,0-2.18-1.85,2.12-2.35-.41,1.73-.25-.81-1.82.39-2.45.77.65,4-1.77,2.75-3.26-2,.83-3.28.06-4.33,2-1.15-.94-.56-1.33-1.56-2a2.5,2.5,0,0,1-2.75-.41c2.87-.7,8-1.21,7.46-4.07-1.82,1.73-3.89.76-5.5,2.43-1.28-1.54-2.42-2.58-1.58-4.47,2-.81,4.14-1.42,4.72-3.67-1.17,0-2.62.5-3.14.41.43-.1.61-.47.79-.82-1.82.52-1.09-1.6-2-2-.67-.17-1,.61-1.17,0,1.2-.52-.45-1.24-.79-.41-.65-2.3,1-3.61.39-5.3-1.1.2-1.67,1-2.75,1.23-.57-1-.16-3.11-2.36-2.45-.21.59.47,2.1-.39,2-.21-1.64-1.61-2.58-2.75-1.22a6.32,6.32,0,0,1-1.17,5.71c-.51-.7-.82-1.6-2-1.64-.06.61.14,1.51-.38,1.64-.4-.55-.38-1.53-1.18-1.64-1.89-.09-2.78,3.6-5.5,1.64.66,1.61.66,1.24,0,2.86h1.17c-.86,1-.3,1.62-.78,2.45.07-.9-.32-1.31-1.18-1.24-.06,2.12,3.37,2.75,2,4.91-.21-.74-.2-1.7-.78-2a7.65,7.65,0,0,0-2.36,1.22c-.35,1.31,1,.85,1.18,1.64-2.89-1.13-4.16-6-7.46-5.31.65,2.75,2.47,3.94,2,6.52-.47-1.23-1.87.22-.79.83-1.21.3-.75-1.12-2-.83-.4,1.77-.46,1.44-.79,3.27.68-.1,2.32.77,1.18,1.23-.14-.59-2-1.4-2.36-.4.36.7,1.23.88,2.36.81.38,1.23.79,2.43,1.17,3.66-1.11.06-1.83-2.41-3.14-.81.3.92,1.5.89,1.58,2-2.73.11-.76-.7-3.14-1.22-.21,1.29.92,1.66-.39,2-.53-1.88.23-2.06-.4-3.28-1.32,1.14-4.9,1.73-5.73,2.62,1.32-2.16,3.65-3.29,4.94-5.46-1-.55.44-1.53-.39-1.64-1.89,1.09-4.35,1-6.28,2.86,1.1-2.95-1-2.1-1.57-3.67,2.41-.63,6-2.23,4.71-5.31-2,.35-3.7,2.29-5.11,2-.56.77-.57,2.12-1.57,2.45.26-2.12-1.87.48-2-.83,1.34-.09,1.23-1.29.39-1.62,1.72-1.62,5.65-.94,6.29-3.67-2.82,2.21-5,0-7.07,0,1.21-.4-.45-1.09-.4-1.64,2.35.3,1-.87,1.58-2,2.25,0,5-1.56,3.93-3.68-2.48.29-4.65,3.06-6.29,2.86.62-1,2-1.18,2.36-2.44-1.73-.24-2.75,0-3.54-.42a17.5,17.5,0,0,0,1.58-2c-1-.53-1.91.9-2,0,.7-1.1,1.85-5,.79-5.31-.69-.11-.72,2.44-1.19,1.22.12-.24,1-1.57,0-1.62-1.2,1.55-2.79.37-3.52,2a3.46,3.46,0,0,0-.79-2.45c-1.74.32-.77,1.62-2.36.41.75,1.4.74,3.59,1.18,5.31-1,.84-.83.57-2.35.4-1,1.35,1.27,1.77-.4,2.45a21,21,0,0,0-1.18-2.85c-1.33,1.08-1.62-1.64-3.14-1.64,0,.4-.31.48-.38.81.06,2.78,2.2,3.42,3.52,4.9-1.88-.32-1.84,1.34-3.52,1.22a20.33,20.33,0,0,0-.79-2c-1-.21-2.22,1.43-2.75.4a18.37,18.37,0,0,0,3.14-2.45c-1.8-.48,1.2-2.27-.78-2.85-.74.6-2.07,2.72-3.15,1.64.79-.69,1.82-1.11,2-2.46-2.84.61-1,0-2-1.64a26.23,26.23,0,0,0-3.14,3.27c.28-1.11-1.85.29-1.58-.81.52-.7,2.36,0,2.37-1.22-1.08-.87,1.39-1.53-.39-2-.61.1-1.84,1.57-2.36.41.7-.2-.17-.43-.39-.81,1.7-.94,1.76-1.35,2.75-3.26-1.26-.35-1.22.64-2,.81-.1-2,2-1.75,2.76-2.86-1.15-.68,1.23-1.82,0-2.45-.57-.2-1,1.6-1.18.42.9-1-1.22-.83-1.58-1.23,1,.64,1.16-1.38.4-1.22-2.13.85-2.38,2.66-4.71,2.45-.06-.61.14-1.51-.39-1.64-.87.48-2.25,2.53-3.53,1.22.19-2.51,4.68-.57,4.71-3.26-.78.85-.9-.43-1.57-.81,2.3-1.46,3.75-3.87,3.13-6.53-1.21,1.46-4.36,3.6-5.49,1.64,2.45-1.27,3.83-3.65,5.1-6.11-1.89-.15-2.19,1-4.31.4.06.54-.62,2.25-.79,1.22.06-.48.7-.92,0-1.22-.58,1.49-2.26,1-3.53,2.45.07-1.36.94-2.67-.4-3.26,2-1.57,5.11-4,3.93-6.54-1.47.94-2.86,3.15-4.72,2.45,0,1-.71,1.44-1.17,2-.92-.75-2.25,1.13-3.53,0,1.06-.36-.33-1.51-.79-1.64-.54.83-2.12,2.68-3.14,1.64,2.32-.36.27-1.06,0-2h4.32c.07-.61-.14-1.49.4-1.62,1.28,2.5,5.76-.67,6.66-2.45-3.82,2-4.78.46-9.81.81,1.67-3.93,6.86-3.58,7.46-9.38-2.62,1.71-4.78,3.39-7.46,4.07.31-1.88,3.08-1.07,3.54-3.67-2.33-.07-3.33,3.12-5.11,1.24,1.94-.48-.09-2.26-.68-2.11.88-.74,1-5.06,1.07-6.06-1.36.22-1,2.18-2,2.86-.23-.85.49-2.67-.39-2.86-.7.24-2.31-.49-2.35.41,0,1.29,0,2.47-.79,2.85-.46-1.14-.55-2.69-1.58-3.26-1,.54-1.63-1.19-2,0,1.7,2.45-.06,3.62,1.58,6.12-1.25.63-1.74.15-3.15,0,.12.48,1.58,1.55.4,2-.49-1.7-1.14.14-2,.4-.59-2.28-2.64-1.9-4.32-3.67,1.1,4.3,5,5.7,8.64,7.34-3.56-1.59-7.06.88-9.82-.81-.56,1.42,1.93,1.75.79,2.45a5.57,5.57,0,0,0-3.53-.83c.27,1.6,3,2.56,3.14,3.47-.22-.45-1.82-.37-1.57.2-.21.59,1.53,1,.39,1.23-.67-1.55-.65.89-1.17.81-4.54-1.34-1.35,5.88-1.58,6.53-.81-1-1.93-1.7-2.35,0,.13-2.27-2.3-1.61-3.14-1.62.26.94,1.3,1.08,1.56,2-1.21.41-1.52-2.15-2.35-.81,0,2,2.79,3.08,2.35,4.07-1,.26-1.89-1.38-3.53-1.62-.45,1.27.62,1,.79,1.62-1.74-.49-2.15,0-2.36.81,0-1.08-2-1.07-2,0,.5.83,1.63,1,2,2-1.1.41,0,1.9.39,2.05-.69,1.23-1.21-1.11-1.57,0-.34,1.34,1.93,2,.79,2.85-1.11-1.27-1.22,2-1.57,2.86.59.11,2.83.52,1.57,1.22-1.74-.8-4,.55-5.1-.41,1.54,2.21,1.41,4.46,2.27,6.69-.37-.63-1.66,0-1.1,1.05-1.87-1.88-3.79-.22-5.89-.41.13-1.1-1.81-2.13-2-1.62,1.75,1.73-1.64,4.5-.79,6.53-1.47,0-1.43-1.5-2.75-1.64.45,1.29,0,.92,0,2.45,1,.14,2.48,1.73,2,2-3.31-.48-5.15-1.38-8.63-2-.07.61.13,1.51-.39,1.64-.79-2.68-1.18.46-3.15,0-.18-1.29,1.21-.92.8-2.45-1.57,1-2-.3-3.15-.81-.81.38-.33,2.08-1.57,2,0-1,.07-2-.78-2-.24.7-1.87,0-2,.81.88,1.14.36,2.26,0,4.07-.26-1-1.2.61-1.57.81-.28-1.1.78-.81.78-1.62-1.58-.52-3.54-1.72-6.28-.41,0,.54.68.37.8.81-1,.17-2.43-.11-2.76,1.64,0-.77-1.3-.29-1.17-1.23,1.31.27,1.42-.68,1.56-1.62-1.17-.08-2.4,1.56-2.75,0,.45-1.27,2.19.07,2.36-2-1.08-.88-4.14.19-5.49-.4,1.28-.85,3.13-1.11,4.32-2.05v-1.22c-2.91-.16-5.41.1-6.67,1.63,1.59-2.23,1.11-4.17,2.35-6.53-.57-.09-.67-.66-1.18-.81-1.13.06-.69,1.73-2,1.64-.92-.15-.39-1.78-1.18-2-2.65.22-2.19,3.7-3.52,5.3.11,1,1.35.76,1.17,2-1.75,1.05-3.4-2.28-4.71-4.07-2.93-.43-4.46,2.58-7.08,3.67,0-2-.89.92-1.55-.41a42.37,42.37,0,0,1,.77-5.31c-1.24-.46-.94.65-1.57.83a2,2,0,0,1,.39-1.23h-3.13c-.06.48.05,1.16-.39,1.23-.35-.61-.59-1.29-1.57-1.23a30.51,30.51,0,0,1-1.19,3.26c-2.17-.41-5-2.41-3.93-3.67-1.18-.29-1.42.42-2.35.41-.61-1.44-.43-1.62-2-2.45,3-.58,5.66-1.46,7.46-3.27-.91-.94-4.61,2.29-4.7.83,1.31.28,1.42-.68,1.55-1.64-1-.33-2.15,1.24-2.74,0,.85.08,1.24-.33,1.19-1.21-1.76-.19-2.1,1.08-3.15,1.62,0-1.27-1.24-1.16-.78-2.86,3.09,1.16,3.48-1.79,5.87-2.45,0-.61.15-1.49-.39-1.62-1.15.9-1.48.53-3.13,1.22,0-1.64,2.67-.48,2.35-2.44-1.59-.81-3.68,2.31-4.31.81-.17-.31,1.52-2,.39-2.85-1.34.7-1.71.11-2.35-.81-1.06,0-.86,1.29-2,1.21,0-1.27,1.22-1.16.78-2.85-3.84,0-4.71,3-6.28,5.3-.7-.75-1.59-.92-2,0a2.19,2.19,0,0,0-2-2.45c.36,1.42,2.17,3.45,1.19,4.9-.1-.46-.45-.64-.8-.82-2.2,2.93-6.72-2.82-9.82-4.08-1.65,1.26-.25.28-1.55-.4a3.69,3.69,0,0,1-1.58,1.62c1.37-2.43-1.05-1.35-1.18-2.43,1.85-.28,4.7.53,5.89-.41.18-1.14-2.13.31-2-.83.8-2.3,3.58-.07,4.32-2.43-.8.46-1.87-.65-.78-.83,1,1,3.73.37,3.54-1.22-1.44-.77-2.44.56-3.54-.4a12.91,12.91,0,0,0,2.36-2.86,4.24,4.24,0,0,0-2-2c1.45,0,2.71-.19,2.76-1.63-2.28.5-.09-1.36-1.18-1.63-1.3.12-2,1.41-2.75,0,2.34-.87,4.41-3.08,3.14-5.72,1.61.79,5.13-1.23,3.53-3.67-1.07-.29-.79.82-1.57.82.35-.78,1.61-2.38,0-2.84-.65,1.1-2.39,3.2-3.15,2.84,1.24-.26.67-1.24,0-1.63a6.39,6.39,0,0,0,3.54-4.07c-1.23-.79-3.19,1.2-2.74,2-1.11-.33-1,.57-2,.42.11-1.36,1.35-2,0-2.87-3,.57-2.09,7.33-4.7,6.94a10.67,10.67,0,0,0,2-4.49c-.94-.17-.85.75-2,.42a5.36,5.36,0,0,1-1.58,3.25c.58-2.75-2.57-2.18-.79-5.29-1.28.42-1.73-.26-2.74.81C907.64,94,909,94.13,909.29,93c-.54-.39-.52-1.37-1.19-1.62,1.1-.82,1.52-1.52,0-2h2.36c-.3-2.78,1.24-2.23,2-4.48-2.5.55-4.48,1.29-6.28,1.22.46-.08.43-.65.39-1.22-1.5-.68-2-.26-2.74-1.23a2,2,0,0,0,2-3.27c1-.73,2.6-.84,3.15-2-1.59,0,1-1.66-.8-2.45,2-1.15,4-2,5.89-4.09-2-.32,1.25-1.13.8-2.44-1.83-.26-2.63,2.69-3.93,1.62a5.71,5.71,0,0,0,2.36-2.85c-1.26-.35-1.23.64-2,.83-.2-1.07,2.28-1.4.78-2.45a14.24,14.24,0,0,1-10.21,4.07c2.67-1.66,3.08-3.34,5.9-4.48-1.4-1.31,1.57-1.79.38-2.85-1.59.51-2.87,3.51-5.09,2,1.56-1.79,3.11-3.58,4.71-5.31-.58-.9-1,.52-1.19-.4.26-.46,1.83-1.59.8-2-1,.31-1.56,3.25-2.75,2,1.08-.67,3.12-2.47,2.36-3.69-1,.46-2.49,2.58-3.15,2,.63.16,1.31-1.53.39-1.62-1.63-.06-1.86,3.48-2.75,2.83,1.26-1.53-1.76.33-2-1.21.78-.41,1.69-.7,2-1.62-2.31,0,.1-.17-.38-1.64-1.34-.13-2.3,2.21-3.15,1.21.29-.63,1.24-.61,1.18-1.62-1.2-.52-2,1.4-2.35.41a1.13,1.13,0,0,0,.78-1.22c-2.54-.74-2.73,3.13-3.93,2.43.39,0,.5-.72,0-.81-.81,0-1.48,2.23-2,1.24.94-1.15,2.07-1.88.79-3.29.47-.77,2.49.91,2.75-.81-.89.11-1.49-.09-1.58-.81,3.26,0,2.7-1.47,4.32-2.85h-2c.41-1.88-.52-1.75.39-3.67-.74.09-.85-.46-1.55-.41-1-.44-1.39,1.76-2,.41,1.49-2.08-1.74-.29-2.37-1.22.17-1.75,2.32-1.42,2.37-3.28-.92-.16-2.94,1.63-2.76,0,.52-.7,1.87-.5,2-1.62-.65-1.23-4.32.68-4.32-1.22,1.39,0,3,.56,3.93-1.64-2.91-.25-5.41-.9-8.25-1.21.49-2.3.37-4.55-2.35-4.5-1,0-1,1.14-1.57,1.64-1.61-1.44-5.32-4.14-7.47-2.45a7.35,7.35,0,0,0,.58,1.71c-.34.26-.65.52-.89.74-.58-.5-.54-1.64-1.58-1.64-2.74,0-2.83,2.2-2.37,4.5-.55,0-1.09.15-1.63.22a1.43,1.43,0,0,0-1.17-1c-.27,2-.27.07-1.57.83.11.2.24.4.37.61-1.37.24-2.76.48-4.24.6.92,2.2,2.54,1.63,3.92,1.64,0,1.9-3.66,0-4.31,1.22.09,1.12,1.46.92,2,1.62.19,1.63-1.83-.16-2.74,0,0,1.27,1,1.53,1.7,2.1V44c-1.09.07-2.88-.72-1.7.94-.59,1.35-1-.85-2-.41-.71-.05-.84.5-1.58.41.93,1.92,0,1.79.39,3.67h-2c1.61,1.38,1.05,2.87,4.31,2.85-.09.72-.66.92-1.55.81.26,1.72,2.28,0,2.74.81-1.3,1.41-.15,2.14.78,3.29-.48,1-1.13-1.24-2-1.24-.48.09-.38.81,0,.81-1.2.7-1.37-3.17-3.92-2.43a1.12,1.12,0,0,0,.79,1.22c-.35,1-1.16-.93-2.37-.41,0,1,.89,1,1.19,1.62-.85,1-1.82-1.34-3.13-1.21-.49,1.47,1.9,1.6-.41,1.64.3.92,1.18,1.21,2,1.62-.18,1.54-3.22-.32-2,1.21-.87.65-1.11-2.89-2.74-2.83-.93.09-.24,1.78.39,1.62-.67.53-2.11-1.59-3.13-2-.76,1.22,1.26,3,2.35,3.69-1.19,1.2-1.72-1.74-2.76-2-1,.46.54,1.59.8,2-.23.92-.62-.5-1.19.4,1.59,1.73,3.15,3.52,4.72,5.31-2.22,1.47-3.5-1.53-5.11-2-1.17,1.06,1.8,1.54.39,2.85,2.82,1.14,3.22,2.82,5.89,4.48A14.27,14.27,0,0,1,839,66.53c-1.48,1,1,1.38.8,2.45-.76-.19-.72-1.18-2-.83A5.5,5.5,0,0,0,840.24,71c-1.32,1.07-2.11-1.88-3.93-1.62-.46,1.31,2.76,2.12.78,2.44C839,73.88,841,74.76,843,75.91c-1.8.79.82,2.41-.78,2.45.56,1.18,2.15,1.29,3.13,2a2,2,0,0,0,2,3.27c-.73,1-1.24.55-2.74,1.23,0,.57-.08,1.14.38,1.22-1.79.07-3.77-.67-6.28-1.22.75,2.25,2.27,1.7,2,4.48H843c-1.5.53-1.07,1.23,0,2-.67.25-.65,1.23-1.18,1.62.25,1.1,1.64,1,1.57,2.45-1-1.07-1.46-.39-2.74-.81,1.78,3.11-1.37,2.54-.78,5.29a5.41,5.41,0,0,1-1.57-3.25c-1.12.33-1-.59-2-.42a10.55,10.55,0,0,0,2,4.49c-2.64.39-1.73-6.37-4.73-6.94-1.35.83-.11,1.51,0,2.87-.94.15-.85-.75-1.94-.42.42-.83-1.54-2.82-2.76-2a6.36,6.36,0,0,0,3.54,4.07c-.67.39-1.23,1.37,0,1.63-.77.36-2.51-1.74-3.15-2.84-1.62.46-.36,2.06,0,2.84-.78,0-.5-1.11-1.56-.82-1.59,2.44,1.91,4.46,3.52,3.67-1.28,2.64.81,4.85,3.15,5.72-.8,1.41-1.47.12-2.74,0-1.1.27,1.07,2.13-1.19,1.63,0,1.44,1.3,1.64,2.74,1.63a4.31,4.31,0,0,0-2,2,13.16,13.16,0,0,0,2.35,2.86c-1.07,1-2.09-.37-3.52.4-.2,1.59,2.6,2.18,3.52,1.22,1.09.18,0,1.29-.78.83.74,2.36,3.52.13,4.32,2.43.19,1.14-2.13-.31-2,.83,1.18.94,4.05.13,5.89.41-.13,1.08-2.56,0-1.17,2.43a3.52,3.52,0,0,1-1.57-1.62c-1.3.68.07,1.66-1.58.4-3.09,1.26-7.61,7-9.82,4.08-.35.18-.7.36-.78.82-1-1.45.82-3.48,1.17-4.9a2.2,2.2,0,0,0-2,2.45c-.37-.92-1.26-.75-2,0-1.57-2.3-2.44-5.34-6.27-5.3-.45,1.69.83,1.58.79,2.85-1.11.08-.92-1.21-2-1.21-.67.92-1,1.51-2.37.81-1.13.86.57,2.54.4,2.85-.64,1.5-2.74-1.62-4.33-.81-.32,2,2.39.8,2.37,2.44-1.67-.69-2-.32-3.15-1.22-.53.13-.31,1-.39,1.62,2.41.66,2.78,3.61,5.89,2.45.45,1.7-.83,1.59-.79,2.86-1.06-.54-1.39-1.81-3.13-1.62-.08.88.31,1.29,1.18,1.21-.61,1.24-1.72-.33-2.76,0,.13,1,.26,1.92,1.58,1.64-.12,1.46-3.8-1.77-4.71-.83,1.8,1.81,4.48,2.69,7.45,3.27-1.52.83-1.34,1-2,2.45-.92,0-1.14-.7-2.35-.41,1,1.26-1.76,3.26-3.93,3.67a32.85,32.85,0,0,1-1.18-3.26c-1-.06-1.22.62-1.56,1.23-.46-.07-.33-.75-.39-1.23H798.6c-.53,6.17-.53.17-1.53.17a12.68,12.68,0,0,1,1,6c-5-3-8-4-13-1,2-5-4-6-6-5-3,1,3,5,1,7-1,0-3-6-6-1,1,1,3,1,4,2h-5c0,1,0,2,2,2-.48,1-1,1.23-1.46,1.12.86.63,1.34,1.25-.54,1.88-1,0-2-1-3-2h1a8.68,8.68,0,0,0-6.44-.25c-1.74-4.61-3-3.83-8.56-4.75a3.67,3.67,0,0,0,1,3c-4-2-8-1-12-2,2,0,3-1,2-3-1-1-2,0-3,1,1-8-5-3-10-7,0-1,2-4,3-6-2,0-4,0-5-1-1-6,1-13-6-12,1-2,3-3,0-5-1,4-3,1-4,1,3-4-1-7-4-9,1,0,2-1,3-2-1,0-3,2-3-1l1-1c-2.89,1-6.71-1.79-9.67-1.1,3-.91,6.71-1,7.67-4.9-2,2-4,1-6,2,0-1,1-1,1-2-1,0-3-1-4-1,1-2,2-3,2-5-5,2-2,0-7-1v2c-.94-.94-1.87-1.87-2-2.81.07,2.94,2,5.85,0,7.81-2,1-3-2-5-2,1,2,4,2,4,4-2-2-5-2-7-5,0,5,6,5,7,9-4,1-7-1-10-2,2,5,9,3,12,8a13.81,13.81,0,0,1-4-3v2c-5,1-6-5-10-6-1,4,6,5,4,9a35.53,35.53,0,0,0-9-4c3,1,2,5,5,6-3,3-4-4-4-2-2,5,1,8,5,11-3-2-8-4-11-2-1,0,2,3,3,4-1,0-1-1-2-1,0,2,3,3,3,5-1-1-2-2-3-1s1,2,2,3c-2,0-3-4-6-2l2,2c-2,1-3-1-4-2,0,1.9,0,3.8,2.57,4.84-2-.58-4.71,1-6.57-.84,2,0,3-2,3-4-1,2-3-3-4,3-4-5-2-9-9-9l-1-1c0,2-1,5,1,7-1,0-3,0-4-1a4,4,0,0,0,.16,1.21c-1.25-1.1-2.33-2.21-4.16-2.21,1,3,5,5,6,8-2,0-5,1-7-2,1,3,5,2,6,5,0,1-1,1-2,2,0-4-5-3-6-6-1,4,6,5,3,9-2-2-5-5-6-3-2,2,4,3,4,6-1-2-5-1-6-4v1a3.67,3.67,0,0,1-3,1c0-1,1-1,1-2h-3c0-1-2-3,4-3,0-3-2,1-3-1,3,0,0-2,1-3-1,1-2-1-3-1-1-2,0-4,2-5-3,0-5,2-8,3,0-1,1-2,2-3a3.67,3.67,0,0,0-3,1,2.6,2.6,0,0,1,1-2c0-2-1-3-2-5-4-4-9-1-9-8,0-.86-1.48-.24-1.9,1.23.43-4.59-4.2,1.58-6.1-2.23,1,2,2,3,0,5a3.67,3.67,0,0,1-3,1l1,1c-1-1-3-1-4-1,1,3,7,3,4,8-2-1-4-3-6-4,1,4,5,4,8,6-3-1-7,2-9-2,0,2,4,3,3,6-2-1-4-5-6-4-2,2,1,4,3,6-3,2-3-3-5-3,0,2,1,4,3,4-8,2-4,9-1,13-2-1-5-1-7-2a35.52,35.52,0,0,1,4,9c-6-4-10-1-10,4a5.36,5.36,0,0,0,3,4c-6-1-7-10-11-15-1-1-4-2-5,0v3c-2-3-5-4-9-4,1,1,1,3,2,4-2,1-4-3-5-2-2,2,3,5,0,7a3.49,3.49,0,0,0-2-1c-1,2,1,3,2,4-2-1-4-3-6-2,3,2,7,3,8,7-2-2-4,2-6-1v3c-2-3-4-3-6-1l2,2a3.72,3.72,0,0,0-1.56.53,14.26,14.26,0,0,0,1.56,2.47c-2.92-1-5.83-2.89-7.83.67l2.83-5.67h-5a13.81,13.81,0,0,0,4-3c-3-1-7-2-10,0,0-2,0-5,1-7-4,4-7,3-11,1,3-3,7-4,7-9-3,2-6,7-8,4-2-1,7-2,4-7-1,1-2,2-3,2,1-1,1-2,2-3-5,0-14-1-11-8a10.82,10.82,0,0,0-2,2v-2h-3c-1,1-1,3-1,5,0-4-3-3-5-3a68.89,68.89,0,0,1,3,8h-5l2,2c-4,2-7-2-10-1,1,2,2,4,5,3-1,1-3,1-3,2a11.82,11.82,0,0,0,9,9c-2,0-3,1-5,2,1,1,3,1,1,3-2-3-5-3-7-6a13.8,13.8,0,0,0,3,4c-2-2-5,1-7-1,1,2,2,4,3,4,4,0,7,2,10,5-6-1-12-9-19-3,1-3,4-6,2-9-.15-.15-.25-.16-.33-.08A11.31,11.31,0,0,0,491,157.1a4.85,4.85,0,0,0-3,.91,4.79,4.79,0,0,1,1-1.91,3.67,3.67,0,0,0-3,1c.85-3.41-4.83-3.19-4.67-6.14,0,0,0,.08-.06.11a1.33,1.33,0,0,0-2.27-1c-2,4-10,3-15,4-1,0-2,4,0,6-6,0-4-7-1-8h-3c3-8-3-15-5-22v1c-2-23-22-37-41-49-1,0,4-1,4-3,0-6-2,0-2,0-1-2,0-3,1-5-2,0-5-1-7,2v-1a5.5,5.5,0,0,0-5,3,21.77,21.77,0,0,1,5-8c-3-1,3-4-4-4,1-1,2-2,1-3-6-3-10-10-17-6,1,1,3,2,2,4-2-1-3-2-5-2,1,1,1,2,2,3-3-3-6,4-8,0,0-3,6-3,1-9l-3,3c2-2,0-5-1-7-2-3-8-1-7,5,0,1-3,2-4,2,1,1,3,2,3,4a10.08,10.08,0,0,1-3,1c1,0,2,1,3,1-2,3-5,3-8,4v-3c-1,0-1,1-2,1a3.23,3.23,0,0,1,.44-1.38A4.4,4.4,0,0,1,357,64.1c1-2,1-4,2-6-3-1-3,2-5,3a7.64,7.64,0,0,0,2-5c-1,1-1-3-3-1,0-1,1-2,1-3-7-2-11,1-15,6,1,1,2,1,3,2a10.08,10.08,0,0,0-3,1c0,3,0,7-4,7,1,1,2,3,3,4-1-1-3-1-4-1,2,3,3,6,0,9,0-2-2-3-3-1-1,4,5,5,6,8,1,5-5-2-4,2,0,1,1,2,2,3-2-1-4-1-5,1a1.51,1.51,0,0,0,.53.87,7.58,7.58,0,0,0-5.69.73c-.19-1.35-2.92-3.21-.84-4.6-6-2-11,6-14,3,3,7,0,5-5,9-5-5-7-15-16-12l1,1a9,9,0,0,1-5-1,2.65,2.65,0,0,0,3-3c-4,1-6.92-3.87-10.84-2.07-2.08-.33-3.82,2.29-6.16,3.07a13.81,13.81,0,0,1,4,3,9,9,0,0,0-5,1c2,0,5-1,6,2,0,1-1,2-1,3-2-1-4-1-6-2-1,2,1,3,2,4-4,1-5,5-4,8-1-1-1-3-3-1,3,1,5,3,7,5h-8c2,1,0,4,2,5h-3a9,9,0,0,0,5,1c0,1-1,3-2,3s-2-1-3-2c0,1,1,2,1,3-1-1-3-1-4-2,1,4,3,6,5,9a7.78,7.78,0,0,0-8-2c-1,1,0,3,1,4h-1c1,1,1,2,2,3-1,0-2-1-3-1,1,1,1,2,2,3h-1c1,1,1,2,2,3a9,9,0,0,0-5-1l3,6c-3-4-7-3-11-1,1-1,1-2,2-3h-2c4-5-3-5-6-6a9,9,0,0,1,1,5,7.64,7.64,0,0,0-5-2l1,1h-3c1,1,2,2,2,3s-2,1-3,1c2,2,5,3,7,4-1.87,1.87-3,.24-4.25-1H235a2.81,2.81,0,0,0-1.26-.81h0a2,2,0,0,0-1.72-.19,3.55,3.55,0,0,0,.49.41c-1.3.78-2.18,2.9-3.49,1.59,1,1,3,3,2,5-1,3-5,3-6,6,4-1,2,3,4,4a9,9,0,0,0-5-1,3.67,3.67,0,0,0-1,3,40.89,40.89,0,0,0,3.34,2.44A7.81,7.81,0,0,0,222,163.1c5,4,7,9,10,14-2,0-4-2-6-3v1c-2-1-3-2-5-3,0,1,1,1,1,2-6.5-.81-8.38-8.22-13.14-11.51.05-.14.09-.31.14-.49,0-3-6,0-6-4h3c-4,0-7-3-11-5v6c-1-3-7-2-6,1,1,1,3,2,4,3-3,0-7,0-9-3h3c-5-1-8-11-14-5,.68,0,.9.46,1.28.76-2.75-.9-5.44-1.6-7.28.24-4,4-2,10,3,13-5,0-9-9-13-5a5.21,5.21,0,0,0,.57,5,5.07,5.07,0,0,0-3.57,1c1,0,1,2,1,2-6,0-12,1-16,6v-2c-4,5-12,7-12,15l-1-1c-3,9-2,19-5,28h-3c4,5-3,11-1,16,1,3,1,7,3,10-1-1-1-2-2-3,1,2,0,3-2,2a7.58,7.58,0,0,0,2-4c0-4-7-6-9-2,2-4-3-3-5-4-1,0-1,3-1,4,0-2,0-5-1-6-1,0-3,1-2,3-1-1-1-2-2-3-1,2,3,5,0,7-1,1-3,0-4-1,0,1,1,2,1,3H92a2,2,0,0,0,0,2,2,2,0,0,0-2,0c2,2,3,5,4,7-2-1-3-3-5-4,1,4,4,8,5,12-1-3-6,2-5-5-4,4-8,9-14,12,4-5,11-8,13-15-1,1-3,1-4,2,3-12,0-1,0-1a6.71,6.71,0,0,0-2.18.82c1.45-.64,2.18-2.82,2.18-2.82-5-3-2,7-8,5,1,0,1-1,2-1-2-1-4-2-5-4a10.68,10.68,0,0,0,6-15c0-2,5-2,4-4H79c0,1,1,1,1,2-3-1-5,1-7,2a7.58,7.58,0,0,0,2-4c0-1-2-1-3-1a3.67,3.67,0,0,1-1,3c0-4-1-8,2-11-5-4-2,3-6,4a3.3,3.3,0,0,0,0-5c-3-2-3,3-3,5-1-1-1-3-2-4,3,9-4,11-11,13,2,0,2,2,2,4-1-1-3-1-4-2,0,4,3,8,7,10-4,1-6-1-9-3-1,5,4,6,7,8-4,1-2,6-5,7,1-1,2-2,1-3-3-1-3,2-4,4,0-2-1-4-3-4,7,8-5,8-8,14h3c3,3-4,3-4,5,.74,2.21,2,3.87,2.63,5.8A7.43,7.43,0,0,0,35,276.1c-3,0-2,2-1,4-2,1-2-2-3-2-1,1-1,3-1,4-1.87-1.87-.25-3,1-4,.76-.63,1.38-1.25,1-2-1,1-2,2-3,2,0-2,4-5,1-6s-4,3-5,5a9,9,0,0,1,1-5c-2,1-4,3-6,5,1-6,5-9,7-14l-6,6c1-2,1-5,2-7-1,1-1,3-2,4-1-4-2-7,0-11-4-1-3,4-5,5,0-2,1-4,2-6-4,5-15,5-14,13a3,3,0,0,1-4,2c.75,25.23,1.06,50.38,1.12,75.51H1920V48.73C1918,49.73,1916.18,50.1,1914.18,51.1ZM205,161.1a1.08,1.08,0,0,1,1.29.27A8.66,8.66,0,0,0,205,161.1Zm126-64V94.44A1.63,1.63,0,0,1,331,97.1Zm158.64,62c-.37.64,0,4-1.63,4A5.93,5.93,0,0,1,489.67,159.07Z"/><path class="cls-1" d="M1769.64,57a3.31,3.31,0,0,0-.5-1.71A14.36,14.36,0,0,0,1769.64,57Z"/><path class="cls-1" d="M1767.26,53.61a4.56,4.56,0,0,1,1.88,1.68C1768.83,54.19,1768.42,53.22,1767.26,53.61Z"/><path class="cls-1" d="M1673.61,68.75c-.49.28,0,.33,0,0Z"/><path class="cls-1" d="M1652.67,74.2c-.48.32,0,.34,0,0Z"/><path class="cls-1" d="M1679.76,61.54c.39-.26.07-.41,0,0Z"/></g></g></svg>