<svg xmlns="http://www.w3.org/2000/svg" viewBox="0 0 1920 359.61"><defs><style>.cls-1{fill:#2c3836;}</style></defs><title>Layer6</title><g id="Layer_2" data-name="Layer 2"><g id="Grass"><path class="cls-1" d="M1485.8,82.19a2.11,2.11,0,0,0-.35.4A.39.39,0,0,0,1485.8,82.19Z"/><path class="cls-1" d="M1492.83,72.9a1.52,1.52,0,0,0-.24.43C1493,73.25,1493.11,73.11,1492.83,72.9Z"/><path class="cls-1" d="M1138.36,231.24l-.08.08,0,0Z"/><path class="cls-1" d="M1073.79,221.6h0l0,0Z"/><path class="cls-1" d="M1918.4,223.46a18.69,18.69,0,0,0-1.36,3.32l-.06.23-.93.89-.4.37,1,0-2.4,8.25,1.27-1.11q-.07.9-.12,1.8c0,1.54,0,3.07.13,4.58,0,.61.1,1.21.15,1.82-.33-.61-.69-1.21-1-1.81-.18-.39-.35-.78-.54-1.17a31.18,31.18,0,0,0-2.72-4.83l-.44-.6-.28-.34-.27-.31,0,0c1.52-2.76,3.37-5.73,5.23-7.13,3.06-2.31,0-4.76,0-4.76a3.7,3.7,0,0,0-1.6.17,17.42,17.42,0,0,1,2.48-1.15l-1.82-.77c.44-.25.89-.48,1.36-.69l.27-.13-.12-.28-.16-.34-.12-.26-.26.09c-.47.18-.94.37-1.39.58l.74-2a21.67,21.67,0,0,0-8.73,7.33,30,30,0,0,0-3,5.54c-1.68,1.08-3,2.05-3,2.88,0,1.08-2.15,3.33-4.17,5.2-.29-.63-.58-1.26-.9-1.88.28-1.54.47-2.53.47-2.53l-1.07-7,1.07-3.82s2-5.66,4.6-9-3.07-4.24-4.6-7.07-.51-7.07-2.24-11.65-.32-3-2,0a28.51,28.51,0,0,0-3.5,15.11c.41,6.29-3,8.8-3.47,10.69s6.87,5.65,7,5.7c-.13.87-.34,1.83-.6,2.87a14.08,14.08,0,0,0-1.83-2,8.19,8.19,0,0,0-5.67-2l1.5,1.13a7.31,7.31,0,0,0-.94.06l-3.51-2.06v6.16s3.07,1.89,4.09,7.66a3.71,3.71,0,0,0,3.18,3.37c-.29,1.42-.54,2.85-.72,4.29l-.3-.25s-6.76-3.41-8.29-4.29-6.14-5.12-7.67-5.12-4.6,4.57-4.6,4.57,4.09,1.56,5.11,4.86c.67,2.18,1.35,8,2.32,11.82a24.81,24.81,0,0,0-3.56,1.1c0-10.07-8.85-7-8.85-7s-2.21-8.83-4.42-16.79-5.53-9.41-7.75-5.79c-.87,1.42-4.65,3.18-9,5.06a5.51,5.51,0,0,0-3,0c-1.82.47-6.53,1.49-6.53,1.49s-10.53-4.35-9.44-5.53,6.53-4.28,4.72-7.13-3.27-4-5.45-4-2.54-1-7.26.71l-2.84,1a.54.54,0,0,0,0-.31c-.81-1.89-5.7-4.33-5.41-10.67s-3.06-12.18-5.64-15.13-.63-4.6-2.88.06-.62,8.9-2.67,11.79-10,4-6.21,7.25c.45.39.89.82,1.32,1.26-1.71-.39-3.51-.67-3.6-.12-.18,1.07,1.81.84,1.81,2.62s-.72,1.9-.18,2.61,2,1.55,2.54,2.61.71,2.84,2.22,3.75c-1-.49-4.18-2-4.94-1.37-.91.71-1.09,1.9-2.36,1.54s0,1.43,0,1.9c0,.26-.67.64-1,1.21l-1-.4c-3.35-4.92-8.45-10.57-8.45-18.22,0-8-7.74-9.41-7.74-16.65s-2.21-6.51-10-13-3.32,4.35-6.63,10.14-10,11.58-18.81,18.09-6.63,8.69-11.06,18.82c-2.56,5.87-7,8.58-10.89,10.39,2-3.12,3.74-5.71,4.83-5.69,2.31,0,6.71-14,6.71-14s13.08-18.43,15.65-18.13-4.68-4.09-4.68-4.09-12,9.26-15.9,11.37-11.58,9.68-13.5,13c-1.21,2.14-5.37,4.77-8.27,6.42-.8-4.58-1.53-8.75-2.07-11.88-.26-1.53,6.47-5.06,8.59-7.58s6.89-7.16,8.82-9.68,5.79-8.42,9.64-10.48,0-4.25,0-4.25a8.64,8.64,0,0,0-6.43,2.5c-3.21,2.92-12.86,5.49-12.86,7.31,0,1.21-4.21,4-7,5.8.65-2.87,1.26-5.09,1.26-5.09l-1.34-6.27,1.34-3.41a33.29,33.29,0,0,1,5.79-8c3.22-2.94-3.86-3.79-5.79-6.31s-.64-6.31-2.82-10.4-.4-2.65-2.56,0-4.91,7.87-4.4,13.49-3.73,7.85-4.37,9.53,8.65,5,8.76,5.09a27.8,27.8,0,0,1-1.12,3.57l-12.78-5.31v5.49a10.18,10.18,0,0,1,5.14,6.84c.5,2,2.15,2.78,4,3a36.52,36.52,0,0,0-.91,3.82l-.37-.22s-8.51-3-10.44-3.82-7.71-4.58-9.64-4.58a5.79,5.79,0,0,0-2.86,1.43,55.78,55.78,0,0,1-.31-6.84c0-10.14-8.85-7.09-8.85-7.09s-2.22-8.84-4.43-16.8-5.53-9.41-7.74-5.79-23.23,9.41-24.33,13.75c-.64,2.5-6.4,4.76-12.44,7.16a10.48,10.48,0,0,1,3.26-6.91c4.11-3.71,9.41-15.33,11.72-15.3s6.71-14,6.71-14,13.07-18.42,15.65-18.13-4.68-4.08-4.68-4.08-12.05,9.26-15.9,11.36-11.58,9.68-13.5,13c-1.21,2.13-5.38,4.77-8.27,6.42-.8-4.58-1.54-8.75-2.07-11.89-.26-1.52,6.47-5.05,8.58-7.58s6.89-7.15,8.82-9.68,5.79-8.41,9.65-10.48,0-4.25,0-4.25a8.64,8.64,0,0,0-6.43,2.5c-3.22,2.92-12.86,5.5-12.86,7.32,0,1.21-4.22,4-7.05,5.79.65-2.86,1.26-5.08,1.26-5.08l-1.35-6.28,1.35-3.4a33.08,33.08,0,0,1,5.79-8c3.21-3-3.86-3.79-5.79-6.31s-.65-6.32-2.82-10.4-.4-2.65-2.56,0-4.91,7.87-4.4,13.48-3.73,7.86-4.37,9.54,8.65,5,8.76,5.09a30,30,0,0,1-1.12,3.57l-12.79-5.32v5.5a10.17,10.17,0,0,1,5.15,6.84c.49,2,2.15,2.78,4,3a36.52,36.52,0,0,0-.91,3.82l-.37-.22s-8.51-3-10.44-3.83-7.72-4.57-9.65-4.57-5.79,4.08-5.79,4.08,5.15,1.39,6.44,4.34,2.57,13.28,5.14,13.79,11.55,6.55,11.55,6.55l5.49,3.6c.35,2.89.7,5.91,1,8.89-2.36-1.79-5.16-4-6.53-5.06-2.61-2.1-10.91-4.62-10.91-4.62s-14.15-5.48-16.07-5.45a21.23,21.23,0,0,0-.57,4.18,22.74,22.74,0,0,0-2.11-2.94c-3.87-4.35-14.11-10.86-14.11-10.86v7.81h0l-1.52.31a13.34,13.34,0,0,0-3-7.59,71,71,0,0,0-8.46,5.69c-1.36-.65-2.27-1.26-1.92-1.57,1-.93,6.09-3.35,4.4-5.58s-3.05-3.16-5.08-3.16-2.37-.74-6.77.56l-2.65.78a.33.33,0,0,0,0-.24,6.78,6.78,0,0,0-1.48-1.53c1.23.21,2,.26,2,.26a36,36,0,0,0-5.76-10,18,18,0,0,0-5-8.89c-2.4-2.3-.59-3.6-2.7,0-.08.14-.15.29-.23.44a73.62,73.62,0,0,0-6.62-5.36l5.82-3.51a35,35,0,0,0,23.2,17.65c-1.15-8.73-9.63-18-9.63-18,6.91,5,19.57,1,19.57,1-7-17.58-25.32-14.8-25.32-14.8a40.7,40.7,0,0,0,16.48-10.3c-18-6.07-38.3,6.47-38.3,6.47-1-14.43-21.92-31.11-21.92-31.11-4.43,14.4,7.62,32.25,8.26,33.19-9.83-12.44-27.66-6.7-27.66-6.7L1460.53,101c-19.45-6.74-30.91,8.23-30.91,8.23l20.12,2.19s-26.48,8.42-25.58,12.06,15.34.55,15.34.55c-7.09,4.72-11.87,12-13.74,15.21-5.08-11.8-17.35-19-17.35-19l5.08,20.38.31,1.21c-5.4-4.76-9.51-7.07-12.25-7.56a21.12,21.12,0,0,0,3.34-4.39s-9.49,3.23-18.14,7.11c4.32-4,9.74-15.32,6.8-26.43-7.24,3.35-11.44,8.52-14.43,20.61-1-4.73-4.36-14-4.36-14-3.27,2.44-3.26,8.14-2.52,13a23.67,23.67,0,0,0-4.37-2.39l-.1-.1s0,0,0,0a62.79,62.79,0,0,0-9.52-3.17c6.78-1.64,16.61-11.19,16.61-11.19s-4.2-2.39-14.3,1.17c2.34-.93,10.06-9.22,11.88-17.06-7.59-1.54-12.12,1-24.77,5.33-3.1-9-13.08-17.35-18-15.27,3.84,5.4,6.06,16.36,6.06,16.36a35.9,35.9,0,0,0-28.44-8s9.73,7.36,15.18,12.7c-20.72-3.24-26.14,8.08-27.55,11.35,4.6-1.49,15.83-.52,27.91,1.1-4.52.44-22,8.24-25.7,16,4.85,5.66,18.38,2.11,18.38,2.11S1305.7,150,1303,160.6c7.91,0,19.37-12.53,24.3-21.66-1.94,4.61-1.54,12.41-1.22,22,2.75-1.68,6.56-6.92,9.74-12.43,1.51,3.79,3.06,7.24,4,9.16-14.3,5.29-8.45,19.12-8.45,19.12s5.78-6.43,13.21-9.66a40.3,40.3,0,0,0-9.31,17.54q-.48.29-1.05.69c-7.26,5.12-9.34,4.55-9.34,10.25,0,4.33-4.2,6-6.21,9.35a8.36,8.36,0,0,0-1.49-1.78c-3.42,4.34-4.58,11.65-4.95,16.85l-.35.42c-1.21,0-2.48.14-3.65.21a52.6,52.6,0,0,0-3.62-4.17,6.52,6.52,0,0,1,2.25-3.53c2.4-2,5-.65,4.8-6.73s3.13-8,1.92-11.07-3.12-3.26-4.32-2.82-4.31,1.36-4.31,1.36-7-4-6.24-5,4.32-3.91,3.12-6.51-2.16-3.69-3.6-3.69-1.67-.87-4.79.65l-1.88.91a.57.57,0,0,0,0-.29c-.53-1.72-3.77-4-3.57-9.75a26,26,0,0,0-3.72-13.81c-1.7-2.69-.42-4.21-1.91,0s-.4,8.13-1.76,10.77-6.6,3.65-4.1,6.62c.29.36.59.75.87,1.15-1.13-.36-2.32-.61-2.38-.1-.12,1,1.2.76,1.2,2.39s-.48,1.73-.12,2.38a15,15,0,0,1,1.68,2.39c.34.92.46,2.59,1.47,3.43-.68-.46-2.77-1.8-3.27-1.26s-.72,1.74-1.56,1.41,0,1.3,0,1.74c0,.23-.44.58-.68,1.1-2.27-1.31-5.1-2.79-6.48-4.42-2.49-2.95-4.88-2.45-4.88-2.45s-1.48,1.24-1.14,2.71h0a.1.1,0,0,1,0,0,2.16,2.16,0,0,0,.2.51c.52,1.34,1.81,4.78,1.71,5.56-.12,1-6.15-1.07-4.83.77a2,2,0,0,1-.39,3l-2.59-.31c0-.14.08-.28.13-.42,3-9.62,6.08-19.2,9.76-28.56a133.32,133.32,0,0,1,6.19-13.73,43.76,43.76,0,0,1,4-6.34,15.17,15.17,0,0,1,2.6-2.65,4.34,4.34,0,0,1,3.31-1.07l.22,0,.05-.22.07-.38,0-.21-.22,0a5.49,5.49,0,0,0-4.42,1.33,19.83,19.83,0,0,0-3.25,3.29,52.86,52.86,0,0,0-4.93,7.75,180,180,0,0,0-7.66,16.65c-3.35,8.17-6.23,16.52-9,24.91l-3.27,5.43a12.11,12.11,0,0,1,.59,3l-.42,1.31q-2.71,8.75-5.27,17.54l-2.12,7.36a59.86,59.86,0,0,1-7.39-3.46l.39-.79c.7-1.32,1.41-2.6,2.14-3.82.39-.59.75-1.2,1.15-1.75s.8-1.11,1.21-1.61a16,16,0,0,1,1.27-1.39,12.63,12.63,0,0,1,1.44-1.21l4.59-3.11-4.48-1.67a8,8,0,0,0-3.41-.58,8.4,8.4,0,0,0-3.11.81,12.46,12.46,0,0,0-1.59,1c-.35.13-.69.28-1,.44l.73-3.77-1.17,1.06c.4-2.69.82-5.38,1.32-8.06.71-3.87,1.53-7.72,2.54-11.52a72.13,72.13,0,0,1,3.82-11.14,29.06,29.06,0,0,1,2.86-5.11c.2-.28.41-.55.62-.82a10.41,10.41,0,0,1,3.67-2.84l-.25-.1.18-.09.22-.11-.09-.22-.15-.35-.1-.23-.23.1-.22.1.11-.28a11.29,11.29,0,0,0-3.66,3c-.37.41-.73.83-1.06,1.25a30.06,30.06,0,0,0-3.28,5.36,75.33,75.33,0,0,0-4.38,11.71c-1.18,4-2.16,8-3,12.12-.72,3.3-1.28,6.63-1.86,10l-2.53,2.28c-.81.74-1.65,1.47-2.45,2.22s-1.53,1.54-2.27,2.33a61.72,61.72,0,0,0-4.07,5c-1.27,1.7-2.5,3.41-3.65,5.17-.27.42-.53.85-.8,1.28l-3.31-25.19,0-2.17q.73-2.28,1.64-4.5c1-1.16,1.92-2.3,2.73-3.48,1-1.21,1.93-2.37,2.87-3.51s1.93-2.23,2.92-3.28,2.08-1.94,3.08-3l6.07-6.38-1.55.08-.23-.46-.23.1-.42.2.2-.62c-.55.28-1.07.58-1.6.89l-4.34.23a8.89,8.89,0,0,0-5.37,2.25,16.74,16.74,0,0,0-3,3.57,22.83,22.83,0,0,0-1.83,3.88c-.08.21-.15.42-.22.64s-.13.17-.19.25c.36-5.71.88-11.41,1.64-17.08a144.25,144.25,0,0,1,3.45-17.71,81,81,0,0,1,6.29-16.76c.7-1.25,1.45-2.47,2.24-3.63a37.09,37.09,0,0,1,2.8-3.58,32.43,32.43,0,0,1,6.8-5.91l-.85-.18c.17-.12.33-.26.51-.39l.22-.15-.15-.22-.22-.31-.14-.22-.22.14c-.19.12-.37.26-.56.39l.17-.92a38.09,38.09,0,0,0-10.71,12c-.51.8-1,1.62-1.45,2.45a83.39,83.39,0,0,0-7.06,17.46,134.74,134.74,0,0,0-4,18.41c-.83,5.55-1.42,11.13-1.86,16.72-.79-4.12-1.56-8.24-2.53-12.32-1.09-4.74-2.32-9.45-3.82-14.09a66.16,66.16,0,0,0-5.72-13.43l-.39-.61a21,21,0,0,0-3.09-4.33,12.45,12.45,0,0,0-1.7-1.46,7.94,7.94,0,0,0-2.12-1.12,7.71,7.71,0,0,0-4.82-.09l1.21.59a8.11,8.11,0,0,0-1,.3l-.26.1.1.26.13.36.09.24.25-.07a5.88,5.88,0,0,1,.81-.18l-.46,1a5.45,5.45,0,0,1,5.4.86,15,15,0,0,1,3.31,3.57,35.79,35.79,0,0,1,1.77,3.43,62.48,62.48,0,0,1,2.65,7.31c.77,2.49,1.46,5,2.08,7.52s1.15,5.07,1.64,7.63l1.5,7.66c.86,5,1.61,10,2.42,15.08l-.14.6-1.73,3.32c-.67,1.24-1.21,2.54-1.83,3.81l-1.79,3.83-.89,1.91-.54,1.29a61.56,61.56,0,0,0-6.65-13.34c-.44-.61-.9-1.21-1.38-1.79a20.81,20.81,0,0,0-2.92-3.34,12,12,0,0,0-4.13-2.41,10.36,10.36,0,0,0-4.9-.39l1.39.9a9.74,9.74,0,0,0-1.29.24l-.28.07.08.28.1.37.07.25.25,0a8.66,8.66,0,0,1,1-.11l-.69,1.2a7.63,7.63,0,0,1,3.11-.18,8.61,8.61,0,0,1,3,1.14,9.16,9.16,0,0,1,1.33,1,14.9,14.9,0,0,1,1.3,1.21c.15.15.28.32.42.48a26.77,26.77,0,0,1,2.54,4.08,63.13,63.13,0,0,1,3.25,7.45c.93,2.51,1.65,5.11,2.46,7.67l-.62,1.54a3.15,3.15,0,0,0-.26-.26l-1.64-1.52a17.58,17.58,0,0,0-2-1.55c-.62-.4-1.15-.76-1.78-1.18l-.25-.19c-.94-.49-1.91-.93-2.87-1.4l-.13-.08a24.64,24.64,0,0,0-4.32-1.3c.33-.55.67-1.09,1-1.61s.51-.71.8-1.06.57-.69.87-1,.61-.61.92-.89a11.05,11.05,0,0,1,1-.76,9.8,9.8,0,0,1,2.15-1.12l-1.41-.69a9.49,9.49,0,0,1,1-.5l.25-.11-.09-.26-.12-.36-.1-.28-.27.1a11.74,11.74,0,0,0-1.31.56l.77-1.71a13.64,13.64,0,0,0-4,2.69c-.37.36-.72.75-1,1.14a16.2,16.2,0,0,0-1.75,2.43l-1.33,2.3a21.79,21.79,0,0,0-6.24-.27,24.92,24.92,0,0,0-6.31,1.49,30.51,30.51,0,0,0-5.71,2.87,32.29,32.29,0,0,0-4.59,3.49c.34-.58.68-1.14,1-1.68a12.48,12.48,0,0,1,1.64-2,3.35,3.35,0,0,1,.74-.57h0a.56.56,0,0,1-.16,0l-.73-1.15a1.71,1.71,0,0,1,1.2-.46l.29,0,.06-.3.07-.37.05-.29-.28-.07a2.45,2.45,0,0,0-1.73.27c-.1,0-.19.12-.29.18l-.23-.36,2.43-1.75a4,4,0,0,0-2.37.44,5.84,5.84,0,0,0-1.35,1,12,12,0,0,0-1.55,1.94,31.79,31.79,0,0,0-2,3.77l-.29.65q.16-3,.44-5.91c.18-1.42.36-2.83.58-4.24a75.32,75.32,0,0,1,3.48-13.83,47.08,47.08,0,0,1,6.44-12.37,29.57,29.57,0,0,1,4.64-5,27.12,27.12,0,0,1,5.66-3.66l-2.28-.75q.75-.46,1.53-.9l.28-.15-.15-.27-.19-.34-.14-.26-.27.12c-.54.26-1.07.54-1.59.83l.72-2.4a33.17,33.17,0,0,0-11.22,10.22,49.8,49.8,0,0,0-6.44,13.37,80.88,80.88,0,0,0-2.75,11.56c-.22,1.11-.42,2.22-.59,3.34-.68,4.31-1.12,8.65-1.38,13l-1.28-4c-.39-1.26-.8-2.51-1.22-3.76l-.73-2.26-2.1-6.4-.42-1.28-.86-.4-.15-.31c-.65-1.62-1.33-3.22-2.11-4.8a44.38,44.38,0,0,0-3.44-6,21.92,21.92,0,0,0-2.32-2.83,14.68,14.68,0,0,0-3.07-2.49,12.52,12.52,0,0,0-1.84-.9,11.9,11.9,0,0,0-2-.6,10.33,10.33,0,0,0-2.34-.2,89.06,89.06,0,0,1,8.58-11.78,33.58,33.58,0,0,1,3.15-3.16,16.32,16.32,0,0,1,3.32-2.34,4.48,4.48,0,0,1,2.77-.56,3.53,3.53,0,0,1,2.12,1.54l.29-2.72a7.24,7.24,0,0,1,1.55,1.38l.22.25.26-.22.29-.25.23-.2-.18-.26a8.21,8.21,0,0,0-1.77-1.76l3.47.26a9.93,9.93,0,0,0-3-2.44,7.9,7.9,0,0,0-4.24-.85,10.19,10.19,0,0,0-3.71,1.07A16.56,16.56,0,0,0,1137,163a42.57,42.57,0,0,0-7.87,8.82A157.15,157.15,0,0,0,1118,191.24c-.2.39-.38.79-.58,1.19q-2.62,4.86-5,9.83-2.13,4.37-4.17,8.76c-1.24,2.64-2.37,5.32-3.54,8l-1,.5a5.34,5.34,0,0,0-1.13.77,8.74,8.74,0,0,0-.8.45,13.25,13.25,0,0,0-2.26,1.89c-.77.78-1.48,1.61-2.16,2.45l0-.31,0-.3-.3-.08a2.9,2.9,0,0,0-1.68.11c-.15,0-.29.13-.43.19.17-.41.34-.83.5-1.24l1.84-1.41a4.92,4.92,0,0,0-1.28,0c.7-1.74,1.39-3.49,2.1-5.22q1.7-4.09,3.47-8.13l1.81-4c.62-1.35,1.29-2.61,1.94-3.92,1.32-2.59,2.53-5.25,4-7.7l2.18-3.76,1.09-1.87c.38-.61.78-1.22,1.18-1.81a42.11,42.11,0,0,1,5.13-6.47,16.22,16.22,0,0,1,1.4-1.23,14,14,0,0,1,1.43-1,3.59,3.59,0,0,1,2.2-.57l-1.53-2.13a4.66,4.66,0,0,1,2-.23l.34,0,.05-.34.06-.38,0-.34-.34-.06a6.13,6.13,0,0,0-2.92.25l-.09-.13,3.28-2.51a9,9,0,0,0-5.66,1.36,15,15,0,0,0-2,1.41,20.45,20.45,0,0,0-1.66,1.54,36.5,36.5,0,0,0-2.75,3.25c-.85,1.12-1.62,2.25-2.35,3.39a125.4,125.4,0,0,0-7.52,14q-1.89,4.09-3.63,8.22h0a2.48,2.48,0,0,0-1.6.19,4.77,4.77,0,0,0-1,.63l-.52-.82a.43.43,0,0,0,0,0l3.37-2.42a4.71,4.71,0,0,0-1.9.14,4.44,4.44,0,0,0-.9.36q.81-2.79,1.64-5.57c2.62-8.78,5.37-17.51,8.31-26.16s6.16-17.13,9.88-25.39a104.15,104.15,0,0,1,6.12-11.85,30.85,30.85,0,0,1,3.7-5,9.15,9.15,0,0,1,1.94-1.61,1.65,1.65,0,0,1,.91-.3l-1.42-2.16a3.47,3.47,0,0,1,2-.32l.36.07.14-.74.07-.35-.35-.08a4.74,4.74,0,0,0-2.91.37l-.26-.39,3.61-2.49a6.65,6.65,0,0,0-2.83.11,8,8,0,0,0-2.22.93,13.64,13.64,0,0,0-2.94,2.43,32.22,32.22,0,0,0-3.86,5.23,92.6,92.6,0,0,0-5.46,10.79c-3.17,7.27-5.82,14.66-8.31,22.08-4.09,12.33-7.72,24.78-11.13,37.26q-3.39,11.45-6.51,23l-2.42,6.65c-.58,1.49-1.07,3-1.56,4.53v0l-.37.13a5.37,5.37,0,0,0-1.54.85q.29-1.7.63-3.36a54.07,54.07,0,0,1,1.94-7.22,17.73,17.73,0,0,1,1.36-3,3.41,3.41,0,0,1,1.2-1.41l-2.49-1a4.5,4.5,0,0,1,1.43-1.48l.29-.17-.13-.31-.15-.35-.15-.36-.36.16a5.82,5.82,0,0,0-2.28,2l-.5-.2,1.34-4a8.42,8.42,0,0,0-3,3.25,19.43,19.43,0,0,0-1.31,3c-.34,1-.6,1.93-.84,2.91s-.4,1.84-.58,2.76c-.28,1.46-.5,2.92-.69,4.38,0-.61.08-1.22.13-1.82l.59-7.32.2-.11-.16-.32v-.12l3.74-8.64c.63-1.47,1.23-3,1.88-4.41a35.25,35.25,0,0,1,2.27-4,21,21,0,0,1,1.29-1.73,16.5,16.5,0,0,1,1.45-1.53,8.59,8.59,0,0,1,3.11-1.86l-2.78-1.44a9.44,9.44,0,0,1,2-1.06l.33-.13-.11-.34-.11-.36-.11-.37-.36.12a11.86,11.86,0,0,0-2.85,1.42l1.84-3.84a14.32,14.32,0,0,0-3.84,2.27,18,18,0,0,0-2.91,3,27.67,27.67,0,0,0-1.91,2.84l.07-.42c.77-4.25,1.44-8.53,2.28-12.75s1.83-8.39,3-12.48a76.76,76.76,0,0,1,4.25-11.78c.43-.9.92-1.81,1.41-2.68a20.57,20.57,0,0,1,1.57-2.36,9.39,9.39,0,0,1,3.57-3.14l-2.81-1.16a8.65,8.65,0,0,1,1.84-1.22l.32-.15-.14-.32-.14-.36-.15-.34-.34.14a10.14,10.14,0,0,0-2.65,1.69l1.53-4a13.25,13.25,0,0,0-4.11,3.14,23.51,23.51,0,0,0-2.68,3.65q-.59,1-1.08,1.95c-.29.6-.6,1.21-.89,1.85-.59,1.27-1.11,2.55-1.59,3.84a111.21,111.21,0,0,0-4.27,15.52c-.55,2.6-1,5.2-1.46,7.8s-.72,5.2-1.1,7.8l-.13,1-1.77,3.1c-.47.83-.93,1.65-1.36,2.47a23.78,23.78,0,0,0-.88,2.53c-.17.61-.31,1.22-.44,1.83a38,38,0,0,0-1.64,3.83,49.84,49.84,0,0,0-1.75,5.77c-.34,1.36-.58,2.74-.81,4.12-.42-1.74-.9-3.47-1.47-5.17,0-.4,0-.81-.09-1.21,0-.57-.12-1.29-.22-1.93s-.26-1.3-.44-2a9.06,9.06,0,0,0-2.47-4.41l-2.54-2.33-2-14.55v-.51l2.7-5.34,1.42-2.79.7-1.4c.25-.45.51-.9.78-1.33a37.13,37.13,0,0,1,3.61-5,27.16,27.16,0,0,1,9.43-7.1l-3-1.07c.67-.42,1.35-.83,2.06-1.19l.32-.16-.16-.32-.17-.34-.16-.31-.31.14c-.75.34-1.49.72-2.21,1.12l1.07-3.3a34.71,34.71,0,0,0-12.45,11.07,46.75,46.75,0,0,0-3,5c.45-6.11,1.08-12.18,2-18.22a131.72,131.72,0,0,1,3.89-18,80.92,80.92,0,0,1,6.78-16.76c.72-1.29,1.51-2.56,2.32-3.75a37.63,37.63,0,0,1,2.67-3.4,31.19,31.19,0,0,1,6.44-5.57l-3.08-.63c.59-.49,1.2-1,1.82-1.39l.29-.2-.2-.29-.21-.31-.2-.28-.28.18c-.68.44-1.35.91-2,1.39l.61-3.34c-6,4.21-10.37,10.27-13.39,16.5a93.59,93.59,0,0,0-6.67,19.45,167.75,167.75,0,0,0-3.3,20c-.4,3.59-.7,7.19-.94,10.78-.68-3.52-1.36-7-2.19-10.53-.4-1.77-.84-3.53-1.29-5.29-.06-.33-.13-.65-.19-1-.64-3-1.35-5.9-2.17-8.82-.41-1.47-.85-2.91-1.31-4.36s-1-2.92-1.53-4.39a43.13,43.13,0,0,0-2-4.35c-.38-.71-.77-1.42-1.24-2.15a23.19,23.19,0,0,0-1.5-2.09,14.45,14.45,0,0,0-1.94-2c-.18-.16-.38-.31-.57-.46l-.57-.4a8.85,8.85,0,0,0-1.42-.8,9.23,9.23,0,0,0-6.44-.41l3.44,1.7h0a7.41,7.41,0,0,0-2.83.49l-.31.12.12.32.13.36.11.29.31-.09a5.54,5.54,0,0,1,1.9-.23l-1.07,2.36a4,4,0,0,1,4,.7,15.9,15.9,0,0,1,3.87,4.65,62.81,62.81,0,0,1,5.4,12.75c1,3.16,1.91,6.37,2.73,9.62,1,5.1,2.09,10.18,2.76,15.34l2.64,17.53-1.17,4.75c-.43,1.6-.69,3.24-1,4.86-.15,1-.28,1.89-.42,2.84a10.46,10.46,0,0,0-.55,1.34,15.4,15.4,0,0,0-.74,3.17l.65.52c-.06.62-.15,1.24-.21,1.87l-.26.33c-1-3.44-1.92-6.9-3.11-10.28-.81-2.4-1.71-4.78-2.71-7.11q-.86-2.43-1.91-4.82a36,36,0,0,0-5.5-9.27c-.33-.37-.64-.7-1-1a14.86,14.86,0,0,0-1.18-1,12.61,12.61,0,0,0-2.73-1.64,11.43,11.43,0,0,0-3.15-.91,12,12,0,0,0-3.28,0l2.76,1.79a9.61,9.61,0,0,0-2.51.33l-.32.08.09.32.1.37.08.29.28,0a7.77,7.77,0,0,1,1.8-.08L1028,178c2.65-.72,5.17.31,7.49,2.73a34,34,0,0,1,5.71,8.71c.74,1.52,1.42,3.07,2.06,4.65.35,1.06.69,2.12,1,3.2.72,2.42,1.48,4.84,2.13,7.29-.24-.32-.47-.64-.72-1-.51-.63-1-1.24-1.61-1.9l-1.6-1.69a19.37,19.37,0,0,0-1.9-1.78c-.63-.5-1.1-.93-1.72-1.44l-.13-.1-.12-.08-2.67-1.73-.07-.05-.09,0a24.8,24.8,0,0,0-6.36-2.42,20.92,20.92,0,0,0-3.86-6.79c-2.18-2.5-.54-3.91-2.45,0a16.23,16.23,0,0,0-1.24,6.36,25.34,25.34,0,0,0-2.61.42,28.5,28.5,0,0,0-4,1.23c-.64.25-1.32.54-1.94.85s-1.21.61-1.81.94a33.81,33.81,0,0,0-6.65,4.85l2.79,0c-.5.45-1,.91-1.47,1.4l-.23.23.23.22.27.27.22.22.23-.21c.44-.42.91-.83,1.38-1.22l0,2.57a29.42,29.42,0,0,1,6.36-4.87,21.23,21.23,0,0,1,4.86-2.09c-2.5,1.65-6.57,2.69-3.94,5,.38.33.76.69,1.12,1.06-1.45-.33-3-.56-3-.1-.16.91,1.54.71,1.54,2.22s-.62,1.61-.16,2.22a6.3,6.3,0,0,0,.82.77l.06.17.09.25.25,0h0a4.38,4.38,0,0,1,.84,1l-.2.47a.68.68,0,0,1,.44,0c.34.88.6,2.15,1.73,2.83-.86-.42-3.55-1.68-4.2-1.18s-.92,1.61-2,1.31,0,1.21,0,1.61c0,.22-.57.54-.88,1-2.92-1.22-6.55-2.6-8.32-4.11a8.44,8.44,0,0,0-6.26-2.28s-1.92,1.16-1.48,2.53c0,0,0,0,0,0a1.64,1.64,0,0,0,.26.48c.66,1.24,2.32,4.43,2.19,5.15-.15.91-.61,1.82,1.08,3.53a8.45,8.45,0,0,1,2,4.47l-1.69.67s-.38,1.44-.91,3.4c-.13-.23-.26-.47-.4-.7a14.92,14.92,0,0,0-.94-1.31,11.41,11.41,0,0,0-1.25-1.89,5.82,5.82,0,0,0-1.85-1.47,5.54,5.54,0,0,0-2.39-.54l1.7,1.26a4,4,0,0,0-1.91.12l-.27.09.09.28.11.37.06.21H992a2.84,2.84,0,0,1,1.08.2l-.39.75c-3.65-2.53-6.92-4.9-6.92-4.9s-6.75,4.32-4.3,4a1.09,1.09,0,0,1,.59.15l-1.87-.11A7.71,7.71,0,0,1,981,229a7.44,7.44,0,0,0,.64,4.43c.77,1.31,3.08,4.69,3.24,6.28-19.23-8-10-13.69-15.11-14.52s-10.22,14.52-10.22,14.52l-6,2.11H935.09a71.54,71.54,0,0,0-11-1.52c-6.88-.13-16.42,1.49-15.6-1.22s.83-5.7,5-8.14,8.71-.82,8.3-8.42,5.42-10,3.33-13.84-5.41-4.07-7.48-3.53-7.46,1.71-7.46,1.71-12-5-10.79-6.32,7.47-4.89,5.39-8.15-3.73-4.61-6.22-4.61-2.9-1.09-8.3.81L887,189.76a.72.72,0,0,0,0-.36c-.93-2.16-6.52-5-6.18-12.2s-3.51-13.92-6.44-17.28-.73-5.26-3.3.07-.7,10.17-3,13.47-11.41,4.56-7.1,8.28c.52.45,1,.93,1.51,1.44-2-.45-4-.76-4.11-.13-.21,1.22,2.07,1,2.07,3s-.83,2.17-.21,3,2.28,1.77,2.91,3c.33.65.55,1.61,1,2.51-.13.31-.25.61-.37.92-1.46-.6-3.18-1.16-3.75-.72-1,.82-1.24,2.17-2.69,1.77s0,1.62,0,2.17c0,.28-.77.73-1.18,1.38l-3.19-1.32.83-1.89-1,0a26.17,26.17,0,0,1,1.47-3.5,11.79,11.79,0,0,1,1.67-2.51,6.49,6.49,0,0,1,2.15-1.4l-.24-.11.18-.1.2-.1-.07-.21-.13-.36-.09-.24-.23.09-.27.12.12-.29a7.47,7.47,0,0,0-2.18,1.62,12.09,12.09,0,0,0-2.22,2.68,24.5,24.5,0,0,0-1.45,2.72c-.23.53-.46,1.07-.67,1.61h-.6a5.07,5.07,0,0,0-1.27.16,20.22,20.22,0,0,1-4.21-2.53,12.92,12.92,0,0,0-5.28-2.8c.34-.6.69-1.2,1.08-1.77a15.46,15.46,0,0,1,1-1.25c.8-.7,1.8-1.21,2.32-1l-.29-.41a1.23,1.23,0,0,1,.47,0l.25,0,0-.25.05-.38,0-.23-.22-.06a3.15,3.15,0,0,0-.52,0l.52-.43a4.08,4.08,0,0,0-3,1.29c-.18.17-.35.35-.51.53l-.07.05a18.3,18.3,0,0,0-2.51,2.85c-.21.28-.41.59-.61.88a6.81,6.81,0,0,0-1.13,0,4.42,4.42,0,0,0-.51.37c0-.18.09-.35.12-.52.21-.84.42-1.67.59-2.51.36-1.67.66-3.34.9-5l.69-5.18.23-1.76c.18-.45.34-.91.53-1.35a12.09,12.09,0,0,1,2.32-1.53,5,5,0,0,1,2.08-.35,3.24,3.24,0,0,1,1.31.4,4.22,4.22,0,0,1,1.11.92l0-.81a5.76,5.76,0,0,1,.54.44l.19.18.18-.19.27-.28.16-.17-.15-.19a5.55,5.55,0,0,0-.49-.48l.92,0A6,6,0,0,0,845,172a5.34,5.34,0,0,0-2.83,0,7.52,7.52,0,0,0-.8.27,7.11,7.11,0,0,0-.89.29,22.71,22.71,0,0,1,2.31-3.06,18.62,18.62,0,0,1,5.2-4l-.93-.28.63-.41.24-.14-.14-.23-.19-.34-.13-.22-.23.12c-.22.11-.44.25-.66.37l.26-1a22.1,22.1,0,0,0-7.45,7.69c-.11.15-.2.31-.3.46l.51-3.84-5,8.71c-.11.19-.2.37-.3.56-.86.84-1.68,1.71-2.46,2.62-1.31,1.51-2.53,3.1-3.69,4.72l-.29-1-.71,1.23-.44-.73c-.25-.38-.46-.8-.74-1.15l-.44-.57c-.18-.31-.37-.62-.55-.94l4.42-11c1.44-3.72,3.07-7.37,4.82-11a82.71,82.71,0,0,1,4.78-8.53l.38-.52a26.31,26.31,0,0,1,3.48-3.79,9,9,0,0,1,1.87-1.3,3.57,3.57,0,0,1,.88-.31,2.07,2.07,0,0,1,.4-.05h.41l.34.09.09,0h0l.37.21.5.44.53.69.18-1.39a3.91,3.91,0,0,1,.69.72l.18.24.23-.18.3-.24.22-.17-.17-.22-.64-.84v0l1.53.21a5.71,5.71,0,0,0-3.55-2.3,4,4,0,0,0-1.2,0,4.72,4.72,0,0,0-1.06.2,6.86,6.86,0,0,0-1.81.84,13.62,13.62,0,0,0-2.57,2.26,24.61,24.61,0,0,0-2,2.48c-.07.1-.13.2-.2.29-.23.29-.47.57-.69.86a70.56,70.56,0,0,0-6,9.27c-.9,1.61-1.75,3.24-2.59,4.88-.41.82-.85,1.64-1.23,2.47l-1.14,2.52L823,176a6.81,6.81,0,0,0-.46-.6,9.57,9.57,0,0,0-1.22-1.26,8.54,8.54,0,0,0-1.56-1l-.09,0c.42-1.12.85-2.24,1.3-3.36.11-.25.22-.52.35-.78,1.08-2.31,2.24-4.59,3.48-6.82a45.84,45.84,0,0,1,4-6.25,13.11,13.11,0,0,1,2.36-2.35,2.68,2.68,0,0,1,1.9-.72l-.85-1.27a2.62,2.62,0,0,1,1.21-.13l.28,0,.05-.29.07-.37.05-.29-.28-.06a3.93,3.93,0,0,0-2,.12l2.13-1.55a5.41,5.41,0,0,0-3,.5,8.63,8.63,0,0,0-2,1.4,18.46,18.46,0,0,0-2.7,3.18,50.91,50.91,0,0,0-3.78,6.71c-.77,1.6-1.48,3.23-2.17,4.86q-1.53,3.06-2.9,6.2l-.85-.43-.76,2-.6.06q1.53-6.67,3.19-13.31,1.43-5.14,2.93-10.26,2.85-9.8,6.61-19.21A86.94,86.94,0,0,1,832,121.6a23.24,23.24,0,0,1,2.54-3.84,6.6,6.6,0,0,1,1.32-1.26c.33-.25.49-.16.24-.21l-.92-1.53a2.07,2.07,0,0,1,1.48-.34l.31.06.07-.31.08-.37.07-.3-.3-.08a3.11,3.11,0,0,0-2.3.36l-.23-.39,2.91-1.88a5.31,5.31,0,0,0-4.45,1.31,12.16,12.16,0,0,0-2.09,2.31,32,32,0,0,0-2.65,4.61,89.53,89.53,0,0,0-3.77,9.32c-2,5.67-3.66,11.39-5.23,17.12-.29.93-.59,1.85-.86,2.78-2,6.58-3.83,13.19-5.6,19.82l-2.59,10-1.92,8-.3-.2a6.46,6.46,0,0,0-3.17-.82l2.62,2-.21.4a4.11,4.11,0,0,0-2.64-.06l-.31.1.1.31.11.37.07.24h.25a3,3,0,0,1,1.53.39l.14.1-.47.91-.53-.43a17,17,0,0,0-1.51-1.15c.08-.44.15-.89.24-1.33l0-.19,0-.18c.13-1.71.29-3.41.44-5.12l2.73-6.7c.33-.8.68-1.58,1.06-2.31a17.75,17.75,0,0,1,1.22-2.06,6.18,6.18,0,0,1,2.75-2.41l-2.36-1.17a5.82,5.82,0,0,1,1.62-1.06l.28-.13-.1-.3-.12-.36-.11-.34-.33.12a7.56,7.56,0,0,0-2.48,1.46l-.11-.06,1.57-3.53a10.41,10.41,0,0,0-3.85,3.06c.31-2.16.63-4.31,1-6.46a110.24,110.24,0,0,1,3-13.18,38.84,38.84,0,0,1,2.3-6,15,15,0,0,1,1.51-2.42,4.36,4.36,0,0,1,1.5-1.32l-2.56-1a6,6,0,0,1,1.54-1.26l.29-.16-.13-.3-.16-.35-.15-.33-.32.15a7.48,7.48,0,0,0-2.33,1.79l-.18-.07,1.29-3.83a12,12,0,0,0-4.64,5.25,35.45,35.45,0,0,0-2.12,5.36,80.89,80.89,0,0,0-2.43,10.63c-.58,3.53-1,7.07-1.37,10.56l-1,10.5-1.14,11.79a8.18,8.18,0,0,0-3.31-1.27,8.65,8.65,0,0,0-3,.13c-.16-1.64-.33-3.27-.51-4.91l.16-.23-.21-.2-2.44-18.32,2.68-5.94a29.93,29.93,0,0,1,1.81-3.47,24.9,24.9,0,0,1,2.2-3.09,16.61,16.61,0,0,1,5.62-4.36l-3.22-1.05a16,16,0,0,1,2.13-1.4l.33-.19-.19-.33-.18-.34-.17-.31-.33.15a18.91,18.91,0,0,0-2.39,1.37l1.06-3.7a22,22,0,0,0-4.94,3.79,27.17,27.17,0,0,0-3.73,4.75.25.25,0,0,1,0,.07l.56-5.47c.2-2.08.4-4.15.72-6.15a104.25,104.25,0,0,1,2.61-12A57.67,57.67,0,0,1,799.6,112a26,26,0,0,1,3.1-4.72,20.3,20.3,0,0,1,4-3.66l-3.24-.54c.58-.56,1.18-1.1,1.81-1.6l.29-.22-.22-.29-.22-.31-.22-.29-.29.2a22.52,22.52,0,0,0-2.1,1.66l.5-3.67a26.21,26.21,0,0,0-5.46,5.78,39.32,39.32,0,0,0-3.65,6.71,71.55,71.55,0,0,0-4.2,14,132.49,132.49,0,0,0-2,14.18c-.09,1-.17,2-.24,3-.24-1.13-.48-2.26-.74-3.38-.12-.74-.25-1.47-.37-2.21-.43-2.19-1-4.38-1.41-6.58-.25-1.09-.47-2.2-.74-3.27s-.6-2.22-1-3.33-.76-2.23-1.22-3.33a25,25,0,0,0-1.66-3.37,14.58,14.58,0,0,0-1.25-1.75,10.31,10.31,0,0,0-.78-.82,8.82,8.82,0,0,0-1-.86,7.2,7.2,0,0,0-2.73-1.12,6.77,6.77,0,0,0-3,.14l3.54,1.75-.2.41-.24-.05a4,4,0,0,0-1.28,0,6.92,6.92,0,0,0-1.19.29l-.4.09.15.39.14.35.12.3.31-.09a3.31,3.31,0,0,1,1.74,0L773,118.13c.37-.09.6-.17.71-.2h.23l.17,0,.3.13h0l.32.22a8.79,8.79,0,0,1,2,2.34,27.69,27.69,0,0,1,1.74,3.35,64.84,64.84,0,0,1,2.7,7.64c1,3.38,1.83,6.85,2.57,10.36.47,2.73.91,5.46,1.25,8.21l1.71,12.52,0,.81-.53,2.54a18.49,18.49,0,0,0-.36,2.21,4.33,4.33,0,0,0-2.09.1,2.9,2.9,0,0,0,0-.59l2.45-1.81A6.43,6.43,0,0,0,784,166a6.81,6.81,0,0,0-1.08.32,0,0,0,0,0,0,0l-.18-.54-.36-1.26c-.44-1.54-.93-3.09-1.49-4.63a37.75,37.75,0,0,0-2-4.64,23.44,23.44,0,0,0-1.38-2.28,13.88,13.88,0,0,0-.89-1.16,12.36,12.36,0,0,0-1.07-1.12,9.54,9.54,0,0,0-1.35-1,8.43,8.43,0,0,0-1.62-.8,7.83,7.83,0,0,0-3.7-.37l3.07,2-.1.18a5.73,5.73,0,0,0-2.76.12l-.33.09.1.33.1.36.09.28.29,0a4.47,4.47,0,0,1,1.82.12L770,154a2.51,2.51,0,0,1,1.36,0,4.37,4.37,0,0,1,1.55.91,8.72,8.72,0,0,1,.82.79c.28.31.55.64.81,1A21.78,21.78,0,0,1,776,159a43.27,43.27,0,0,1,2.2,4.59l-.43-.24.17,1.7a7.06,7.06,0,0,0,.21,1.11l.11.41s0,0,0,0a10.11,10.11,0,0,0-.47.93l-.53-.2c-.09-.07-.18-.15-.27-.21l-1.16-.8a16.2,16.2,0,0,0-2.46-1.33,14.37,14.37,0,0,0-2.24-.75,13.13,13.13,0,0,0-3.47-.83,16,16,0,0,0-6.23.71c-.35.11-.7.25-1,.39l.18-.83c.16-.21.31-.43.48-.63l.21-.24-.24-.22-.18-.16.1-.45-.29.28-.14-.13-.22.21a12.92,12.92,0,0,0-1.48,1.66l-.2-3.07a16.66,16.66,0,0,0-2.09,3.07,18,18,0,0,0-1.37,3.32l-.06.24-.93.88-.39.38,1,0L752.31,177l1.26-1.11c0,.6-.09,1.21-.12,1.81,0,1.54,0,3.06.14,4.57,0,.61.09,1.22.14,1.82-.33-.61-.68-1.21-1-1.81l-.53-1.17a32.61,32.61,0,0,0-2.73-4.83l-.44-.6-.28-.34-.27-.31,0,0c1.52-2.75,3.37-5.73,5.23-7.12,3.07-2.32,0-4.77,0-4.77a3.7,3.7,0,0,0-1.6.17,16,16,0,0,1,2.49-1.14l-1.83-.78c.45-.25.89-.48,1.36-.69l.28-.13-.13-.27-.16-.35-.11-.26-.27.1c-.47.17-.93.36-1.39.57l.74-2a21.65,21.65,0,0,0-8.72,7.33,30,30,0,0,0-3,5.54c-1.68,1.08-3,2.05-3,2.88,0,1.08-2.15,3.33-4.17,5.2-.28-.63-.58-1.26-.89-1.88.27-1.54.46-2.53.46-2.53l-1.07-7,1.07-3.82a40.45,40.45,0,0,1,4.6-9c2.56-3.31-3.07-4.25-4.6-7.08s-.51-7.07-2.24-11.65-.32-3-2,0a28.44,28.44,0,0,0-3.5,15.11c.4,6.29-3,8.8-3.48,10.69s6.88,5.65,7,5.7c-.14.87-.35,1.83-.61,2.87a13.51,13.51,0,0,0-1.83-2,8.18,8.18,0,0,0-5.67-2l1.5,1.13a7.15,7.15,0,0,0-.93.06l-3.52-2.06V172s3.07,1.89,4.09,7.67a3.71,3.71,0,0,0,3.18,3.36c-.29,1.42-.54,2.85-.72,4.29l-.29-.25s-6.77-3.41-8.3-4.29-6.14-5.12-7.67-5.12-4.6,4.57-4.6,4.57,4.09,1.56,5.11,4.86c.68,2.18,1.35,8,2.32,11.82a24.82,24.82,0,0,0-3.56,1.1c0-10.07-8.85-7-8.85-7s-2.21-8.83-4.42-16.79-5.53-9.41-7.74-5.79c-.87,1.42-4.66,3.18-9,5.06a5.74,5.74,0,0,0-3,0c-1.81.47-6.53,1.49-6.53,1.49s-10.53-4.34-9.44-5.53,6.53-4.28,4.72-7.13-3.27-4-5.45-4-2.54-1-7.26.72l-2.84,1a.58.58,0,0,0,0-.32c-.81-1.88-5.7-4.33-5.4-10.67s-3.07-12.18-5.64-15.12-.64-4.61-2.89,0-.61,8.91-2.66,11.8-10,4-6.22,7.24c.45.39.89.82,1.32,1.26-1.71-.39-3.51-.67-3.6-.11-.18,1.07,1.81.83,1.81,2.61s-.72,1.9-.18,2.61,2,1.55,2.54,2.62.71,2.83,2.23,3.75c-1-.49-4.19-2-5-1.38s-1.09,1.9-2.36,1.55,0,1.42,0,1.9c0,.25-.67.64-1,1.21l-1-.41c-3.35-4.92-8.45-10.57-8.45-18.22,0-8-7.74-9.41-7.74-16.64s-2.21-6.52-10-13-3.31,4.34-6.63,10.13-10,11.58-18.81,18.09-6.63,8.69-11.06,18.82c-2.56,5.88-7,8.58-10.89,10.39,2-3.12,3.74-5.71,4.83-5.69,2.31,0,6.71-14,6.71-14s13.08-18.43,15.65-18.13-4.67-4.08-4.67-4.08-12,9.25-15.91,11.36-11.58,9.68-13.49,13.05c-1.22,2.13-5.38,4.77-8.27,6.41-.81-4.58-1.54-8.74-2.07-11.88-.26-1.52,6.47-5.06,8.58-7.58s6.89-7.16,8.82-9.68,5.79-8.42,9.65-10.48,0-4.25,0-4.25a8.66,8.66,0,0,0-6.44,2.5c-3.21,2.92-12.86,5.5-12.86,7.31,0,1.21-4.21,4-7,5.8.66-2.86,1.26-5.09,1.26-5.09l-1.34-6.27,1.34-3.41a33.6,33.6,0,0,1,5.79-8c3.22-2.94-3.86-3.78-5.79-6.31s-.64-6.31-2.82-10.4-.39-2.65-2.56,0-4.91,7.88-4.4,13.49-3.72,7.85-4.37,9.54,8.65,5.05,8.76,5.09a28.21,28.21,0,0,1-1.12,3.56L512,127.66v5.5a10.14,10.14,0,0,1,5.14,6.84c.5,2,2.16,2.77,4,3a33.78,33.78,0,0,0-.9,3.83l-.38-.22s-8.51-3-10.43-3.83-7.72-4.57-9.65-4.57a5.8,5.8,0,0,0-2.86,1.42,57.86,57.86,0,0,1-.31-6.84c0-10.13-8.85-7.09-8.85-7.09s-2.21-8.83-4.43-16.8-5.53-9.41-7.74-5.79-23.23,9.41-24.33,13.76c-.64,2.49-6.39,4.75-12.43,7.15a10.42,10.42,0,0,1,3.25-6.91c4.11-3.71,9.41-15.33,11.72-15.29s6.71-14,6.71-14,13.08-18.43,15.65-18.14-4.68-4.08-4.68-4.08-12,9.26-15.9,11.37S444,86.67,442.06,90c-1.21,2.14-5.38,4.77-8.27,6.42-.8-4.58-1.53-8.75-2.07-11.88-.26-1.53,6.47-5.06,8.58-7.58s6.9-7.16,8.83-9.68,5.78-8.42,9.64-10.48,0-4.25,0-4.25a8.64,8.64,0,0,0-6.43,2.5c-3.21,2.92-12.86,5.49-12.86,7.31,0,1.21-4.22,4-7,5.8.65-2.87,1.26-5.09,1.26-5.09l-1.35-6.27,1.35-3.41a33.29,33.29,0,0,1,5.79-8c3.21-2.94-3.86-3.79-5.79-6.31s-.64-6.31-2.82-10.4-.4-2.65-2.56,0-4.91,7.87-4.4,13.48-3.73,7.86-4.37,9.54,8.65,5,8.76,5.09a29.48,29.48,0,0,1-1.12,3.57l-12.79-5.31v5.49a10.21,10.21,0,0,1,5.15,6.84c.5,2,2.15,2.78,4,3a36.52,36.52,0,0,0-.91,3.82l-.37-.22s-8.51-3-10.44-3.82-7.72-4.58-9.65-4.58-5.78,4.08-5.78,4.08,5.14,1.39,6.43,4.34,2.57,13.28,5.14,13.8,11.55,6.54,11.55,6.54L425,98c.36,2.89.7,5.91,1,8.89-2.36-1.79-5.16-3.94-6.53-5.05-2.61-2.11-10.9-4.63-10.9-4.63s-14.15-5.47-16.08-5.45a21.24,21.24,0,0,0-.57,4.18A22.74,22.74,0,0,0,389.85,93a30.64,30.64,0,0,0-3.08-2.9,2.09,2.09,0,0,0-.37-1.23,5.46,5.46,0,0,0-4.53-2.55c-1.35-1-2.62-1.85-3.66-2.55a12,12,0,0,0-2.44-4.59,71.9,71.9,0,0,0-8.46,5.69c-1.35-.65-2.26-1.26-1.92-1.57,1-.93,6.1-3.35,4.41-5.58s-3-3.16-5.08-3.16-2.37-.74-6.78.56l-2.64.78a.39.39,0,0,0,0-.24,6.87,6.87,0,0,0-1.49-1.53c1.24.21,2,.26,2,.26a35.78,35.78,0,0,0-5.77-10,17.86,17.86,0,0,0-5-8.89c-2.4-2.3-.59-3.6-2.69,0a3.69,3.69,0,0,0-.23.44,74.47,74.47,0,0,0-6.63-5.36l5.82-3.51a35,35,0,0,0,23.21,17.65c-1.15-8.73-9.63-18-9.63-18,6.9,5,19.57,1,19.57,1-7-17.58-25.33-14.8-25.33-14.8a40.78,40.78,0,0,0,16.49-10.3c-18-6.07-38.3,6.47-38.3,6.47C326.43,17.69,313,4.78,307.59,0h-2.75c-2.9,14,8.13,30.37,8.74,31.26-9.82-12.44-27.66-6.7-27.66-6.7L303.19,38c-19.45-6.74-30.91,8.23-30.91,8.23l20.12,2.19s-26.49,8.42-25.58,12.06,15.33.55,15.33.55c-7.08,4.72-11.87,12-13.73,15.21-5.08-11.8-17.35-19-17.35-19l5.08,20.38.3,1.21c-5.39-4.76-9.5-7.07-12.25-7.56a21,21,0,0,0,3.35-4.39S238,70.1,229.41,74c4.32-4,9.74-15.32,6.79-26.43-7.23,3.35-11.43,8.52-14.43,20.61-1-4.73-4.36-14-4.36-14-3.27,2.44-3.26,8.14-2.51,13a23.52,23.52,0,0,0-4.38-2.39l-.1-.1a.43.43,0,0,0,0,0,62.79,62.79,0,0,0-9.52-3.17c6.77-1.64,16.61-11.19,16.61-11.19s-4.2-2.39-14.31,1.17c2.35-.93,10.07-9.22,11.89-17.06-7.6-1.54-12.12,1-24.77,5.33-3.11-9-13.08-17.35-18-15.27,3.83,5.4,6,16.36,6,16.36a35.9,35.9,0,0,0-28.44-8s9.74,7.36,15.19,12.7C144.42,42.3,139,53.62,137.58,56.89c4.61-1.49,15.84-.52,27.92,1.1-4.53.44-22,8.24-25.7,16,4.85,5.66,18.38,2.11,18.38,2.11S148.36,87,145.68,97.6c7.91,0,19.37-12.53,24.3-21.66-1.94,4.61-1.54,12.41-1.22,22,2.75-1.68,6.56-6.92,9.74-12.43,1.5,3.79,3,7.24,4,9.16-14.31,5.29-8.45,19.12-8.45,19.12s5.77-6.43,13.21-9.66A40.2,40.2,0,0,0,178,121.62c-.33.19-.67.42-1,.69-7.27,5.12-9.34,4.55-9.34,10.25,0,4.33-4.2,6-6.21,9.35a8.67,8.67,0,0,0-1.49-1.78c-3.43,4.34-4.58,11.65-5,16.85l-.35.42c-1.21,0-2.49.14-3.65.21a52.77,52.77,0,0,0-3.63-4.17,6.6,6.6,0,0,1,2.26-3.53c2.4-2,5-.65,4.79-6.73s3.14-8,1.93-11.07-3.12-3.26-4.32-2.82-4.32,1.36-4.32,1.36-6.95-4-6.23-5,4.31-3.91,3.12-6.51-2.16-3.69-3.6-3.69-1.68-.87-4.79.65l-1.88.91a.93.93,0,0,0,0-.29c-.54-1.72-3.77-4-3.57-9.75A25.94,25.94,0,0,0,127,93.11c-1.7-2.69-.42-4.21-1.9,0s-.41,8.13-1.76,10.77-6.6,3.65-4.11,6.62c.3.36.59.75.88,1.15-1.13-.36-2.32-.61-2.38-.1-.12,1,1.2.76,1.2,2.39s-.48,1.73-.12,2.38,1.31,1.41,1.67,2.39.46,2.59,1.47,3.43c-.68-.46-2.77-1.8-3.26-1.26s-.72,1.74-1.56,1.41,0,1.3,0,1.74c0,.23-.45.58-.68,1.1-2.28-1.31-5.11-2.79-6.48-4.42-2.5-2.95-4.88-2.45-4.88-2.45s-1.49,1.24-1.15,2.71a0,0,0,0,0,0,0,1.8,1.8,0,0,0,.2.51c.52,1.34,1.81,4.78,1.71,5.56-.12,1-6.15-1.07-4.83.77a2,2,0,0,1-.39,3L98,130.57l.12-.42c3-9.62,6.08-19.2,9.77-28.56a131.2,131.2,0,0,1,6.19-13.73,42.92,42.92,0,0,1,4-6.34,14.78,14.78,0,0,1,2.59-2.65A4.37,4.37,0,0,1,124,77.8l.22,0,0-.22.07-.38,0-.21-.21,0a5.51,5.51,0,0,0-4.43,1.33,19.38,19.38,0,0,0-3.24,3.29,53.77,53.77,0,0,0-4.94,7.75A182.7,182.7,0,0,0,103.91,106c-3.34,8.17-6.23,16.52-9,24.91l-3.26,5.43a11.82,11.82,0,0,1,.58,3l-.41,1.31q-2.73,8.75-5.28,17.54l-2.11,7.36A59.18,59.18,0,0,1,77.08,162l.39-.79c.69-1.32,1.41-2.6,2.14-3.82.38-.59.75-1.2,1.14-1.75s.81-1.11,1.22-1.61a17.81,17.81,0,0,1,1.26-1.39,12.74,12.74,0,0,1,1.45-1.21l4.59-3.11-4.48-1.67a8.07,8.07,0,0,0-3.41-.58,8.4,8.4,0,0,0-3.11.81,11.93,11.93,0,0,0-1.6,1c-.35.13-.68.28-1,.44l.73-3.77-1.18,1.06c.41-2.69.83-5.38,1.33-8.06.71-3.87,1.52-7.72,2.54-11.52A70.06,70.06,0,0,1,82.9,114.9a29,29,0,0,1,2.85-5.11c.2-.28.41-.55.63-.82A10.41,10.41,0,0,1,90,106.13l-.25-.1.18-.09.22-.11-.1-.22-.14-.35-.1-.23-.23.1-.22.1.11-.28a11.19,11.19,0,0,0-3.66,3c-.38.41-.73.83-1.07,1.25a30,30,0,0,0-3.27,5.36,74.32,74.32,0,0,0-4.38,11.71c-1.19,4-2.16,8-3,12.12-.71,3.3-1.27,6.63-1.86,10l-2.52,2.28c-.82.74-1.65,1.47-2.46,2.22s-1.52,1.54-2.26,2.33a61.72,61.72,0,0,0-4.07,5c-1.27,1.7-2.51,3.41-3.65,5.17-.28.42-.53.85-.8,1.28l-3.31-25.19,0-2.17q.73-2.28,1.64-4.5c1-1.16,1.92-2.3,2.73-3.48s1.93-2.37,2.87-3.51,1.93-2.23,2.92-3.28,2.08-1.94,3.07-3L72.53,115l-1.55.08-.12-.24-.11-.22-.23.1-.43.2.2-.62c-.54.28-1.07.58-1.59.89l-4.34.23A8.94,8.94,0,0,0,59,117.72a17.35,17.35,0,0,0-3,3.57,23.62,23.62,0,0,0-1.83,3.88c-.08.21-.15.42-.22.64l-.18.25c.35-5.71.87-11.41,1.64-17.08a146.09,146.09,0,0,1,3.44-17.71,81,81,0,0,1,6.3-16.76c.7-1.25,1.45-2.47,2.23-3.63a38.72,38.72,0,0,1,2.8-3.58A32.69,32.69,0,0,1,77,61.39l-.85-.18c.18-.12.34-.26.52-.39l.21-.15-.15-.22-.21-.31-.15-.22-.22.14c-.19.12-.36.26-.55.39l.17-.92A38.12,38.12,0,0,0,65,71.54c-.5.8-1,1.62-1.45,2.45a84.48,84.48,0,0,0-7.06,17.46,134.72,134.72,0,0,0-4,18.41c-.84,5.55-1.43,11.13-1.87,16.72-.78-4.12-1.56-8.24-2.52-12.32-1.09-4.74-2.32-9.45-3.82-14.09A66.2,66.2,0,0,0,38.6,86.74c-.12-.21-.26-.4-.38-.61a21,21,0,0,0-3.1-4.33,11.81,11.81,0,0,0-1.69-1.46,8,8,0,0,0-2.13-1.12,7.71,7.71,0,0,0-4.82-.09l1.21.59a8.51,8.51,0,0,0-1,.3l-.26.1.09.26.14.36.09.24.25-.07a5.57,5.57,0,0,1,.81-.18l-.47,1a5.44,5.44,0,0,1,5.41.86,14.93,14.93,0,0,1,3.3,3.57,33.67,33.67,0,0,1,1.77,3.43,62.52,62.52,0,0,1,2.66,7.31c.77,2.49,1.46,5,2.07,7.52s1.15,5.07,1.64,7.63l1.51,7.66c.85,5,1.61,10,2.41,15.08l-.13.6-1.74,3.32c-.66,1.24-1.21,2.54-1.82,3.81l-1.79,3.83-.89,1.91-.54,1.29a61.6,61.6,0,0,0-6.66-13.34c-.43-.61-.9-1.21-1.38-1.79a20.33,20.33,0,0,0-2.92-3.34,12,12,0,0,0-4.12-2.41,10.37,10.37,0,0,0-4.9-.39l1.39.9a9.17,9.17,0,0,0-1.29.24l-.28.07.08.28.1.37.07.25.25,0a8.5,8.5,0,0,1,1-.11l-.68,1.2a7.58,7.58,0,0,1,3.1-.18,8.54,8.54,0,0,1,3,1.14,8.72,8.72,0,0,1,1.34,1,14.9,14.9,0,0,1,1.3,1.21c.14.15.28.32.42.48a28.42,28.42,0,0,1,2.54,4.08,63.05,63.05,0,0,1,3.24,7.45c.93,2.51,1.65,5.11,2.47,7.67l-.62,1.54c-.09-.09-.17-.18-.26-.26l-1.64-1.52a19.5,19.5,0,0,0-2-1.55c-.63-.4-1.15-.76-1.78-1.18l-.25-.19c-1-.49-1.91-.93-2.87-1.4l-.13-.08a24.9,24.9,0,0,0-4.32-1.3c.33-.55.66-1.09,1-1.61s.5-.71.79-1.06.58-.69.88-1,.6-.61.92-.89a10.23,10.23,0,0,1,3.13-1.88l-1.41-.69a10.36,10.36,0,0,1,1-.5l.25-.11-.08-.26-.12-.36-.1-.28-.28.1a11.58,11.58,0,0,0-1.3.56l.77-1.71a12.87,12.87,0,0,0-2.79,1.64,14.39,14.39,0,0,0-1.21,1,14.16,14.16,0,0,0-1.06,1.14A15.47,15.47,0,0,0,24,144.93l-1.34,2.3a21.79,21.79,0,0,0-6.24-.27,25,25,0,0,0-6.31,1.49,30.82,30.82,0,0,0-5.71,2.87A32.28,32.28,0,0,0,1,153.83l-.46.4c-.18.14-.36.3-.54.46v.53H1.31l-1,1-.2.21.21.21.27.27.2.2.21-.2c.31-.29.63-.57,1-.85l0,1.77A29.18,29.18,0,0,1,6.48,154c.81-.56,1.66-1.07,2.52-1.55a20.07,20.07,0,0,1,2.61-1.24,21.37,21.37,0,0,1,5.58-1.41,18.89,18.89,0,0,1,4.81.08c-.4.81-.8,1.62-1.14,2.46-.45,1.08-.87,2.18-1.26,3.29-.78,2.22-1.45,4.48-2,6.75S16.44,167,16,169.29l-1.14,6a5.35,5.35,0,0,0-2,.08,5.09,5.09,0,0,0-1.1.39,6.42,6.42,0,0,0-.91.52,10.78,10.78,0,0,0-2.51,2.56l2-.47c-.11.16-.21.32-.31.48H0V359.61H1920V222C1919.83,222.26,1918.56,223.17,1918.4,223.46Zm-707.57-31c.65-1,1.39-2.21,2.15-3.27s1.56-2.11,2.42-3.1l.3-.32c.21-.21.41-.43.63-.63a13.14,13.14,0,0,1,2.77-2,7.41,7.41,0,0,1,1-.39l-.41.36a16.45,16.45,0,0,0-1.75,1.69,39.41,39.41,0,0,0-3,3.8,42.79,42.79,0,0,0-2.56,4.12l-1.58,3.2Zm-112,12.38c-.25.62-.51,1.23-.77,1.85l-.63-1A2.46,2.46,0,0,1,1098.85,204.82ZM53.48,129.44c.65-1,1.4-2.21,2.15-3.27s1.57-2.11,2.43-3.1c.09-.11.2-.22.3-.32s.41-.43.62-.63a13.45,13.45,0,0,1,2.78-2,7.42,7.42,0,0,1,1-.39l-.41.36a15.55,15.55,0,0,0-1.75,1.69,39.52,39.52,0,0,0-3,3.8A42.69,42.69,0,0,0,55,129.73l-1.59,3.2ZM14.3,178.84H13.24a1.7,1.7,0,0,1,.69-.38,2.15,2.15,0,0,1,.44-.09Zm37.79-47.92.86-1.25c-.29.62-.55,1.26-.8,1.94L52,132Zm-2.74-2,1.42,7.2-.49,1.61-.46-1.43.15-.3.28-.53-.09-.53c-.58-3.59-1.15-7.19-1.74-10.78ZM41.3,155l.26-.63-.07-.2L42.81,151l.81-1.94.88-1.89.57-1.24a2.82,2.82,0,0,1-.11.31c-.34,1-.75,1.91-1.14,2.86-.29.72-.57,1.44-.88,2.15s-.62,1.42-1,2.12l0,.09,0,.16c.26,1,.47,2.09.68,3.14l.12.87-.06,0a2.11,2.11,0,0,0-1.33-.34.85.85,0,0,0-.75.64.53.53,0,0,0-.32-.39Zm-.49,4.84v0a0,0,0,0,0,0,0ZM17,178.84a.87.87,0,0,0,0-.16,1,1,0,0,1,.13.16Zm13.19,0H29l.49-.86a22.39,22.39,0,0,1,1.69-1.92Zm2.54-7.16a11.38,11.38,0,0,1-3.25-1.41c-1.53-1.36-.51-3.4-2.24-5.61s-.31-1.42-2,0-3.91,4.25-3.5,7.27c.36,2.67-2.22,3.93-3.18,4.81a2.22,2.22,0,0,0-.37,0,2.46,2.46,0,0,0-.58.17l-.2-.12,1.24-8.36c.35-1.82.75-3.63,1.22-5.41.58-2.23,1.22-4.42,2-6.57.38-1.07.78-2.13,1.21-3.17s.9-1.94,1.34-2.91a22,22,0,0,1,3.25,1.15l.86.42.92.55,1.76,1.06.06,0c.52.43,1,.89,1.56,1.31a16.77,16.77,0,0,1,1.58,1.46l1.5,1.59c.45.48.85,1,1.27,1.5q-2.16,5.88-4.24,11.8Zm11.65,7.16H34l1.09-3.45c.42-1,.83-1.92,1.26-2.87q1.2-2.94,2.27-5.91c.3-.84.59-1.69.87-2.53l2.85,2.77c.1.18.22.36.32.55.73,3.6,1.49,7.19,2.19,10.8l0,.37Zm2.31-23L46.37,157a38.17,38.17,0,0,0-1,5.28c0,.05,0,.11,0,.17l-.58-2.09a3.78,3.78,0,0,0-.19-.49l-.09-.33c-.31-1-.59-2.06-.91-3.08l-1-3,1.62-4.27,4.55-10.35.6,4.77L48,149.08c-.45,1.83-.75,3.68-1.06,5.53Zm1.06,21.77-.38-1.3c.3.41.61.81.9,1.23Zm1.82-2.45-1-2.2c.06-3.37.26-6.73.49-10.09.19-.77.38-1.53.55-2.29,0-.18.07-.35.1-.52l.07,5.37.38,11.07C50,176.07,49.79,175.63,49.6,175.18Zm5.85-7L54,170.63l-.57,1,.11,1.14c.1,1.18.23,2.36.38,3.53l-1.25.48-.62.25c-.22-.9-.46-1.79-.64-2.7s-.44-2-.59-2.93-.31-2-.41-3-.16-2-.22-3,0-2.22.1-3.32.18-2.22.33-3.32.36-2.21.54-3.31l.66-3.31-.69-.05c.1-.78.21-1.55.32-2.32.29-1.76.42-3.58.57-5.42l.08-1h0c-.28-1-.61-1.9-.91-2.85l-.35-1.09.47-.56.16.79.07-1.06.79-.94c-.13.38-.26.75-.38,1.13l0,.15v.15l0,2.24v.17l3.57,26.65Zm14.82-7.53c-.28,1-.57,2.12-.78,3.21l-1.55,7.74c-2.66,1.11-6.26,2-10.47,3.38l-.21-2.55c1.06-1.71,2.1-3.43,3.22-5.1s2.28-3.41,3.48-5.06,2.46-3.28,3.78-4.83c.67-.78,1.34-1.55,2-2.29l1.48-1.45Q70.74,157.19,70.27,160.68Zm5-22.1c.13-.62.27-1.23.4-1.85l-.12.65c-.57,3.09-1,6.19-1.49,9.29l-.36.33C74.17,144.18,74.66,141.37,75.26,138.58Zm-1.18,21-.24.58-.46-.28.09-.8c.4-2,.85-3.91,1.23-5.87l.56-2.9.1-.07c.36-.21.73-.41,1.1-.59a10.49,10.49,0,0,1,2.31-.85,7.49,7.49,0,0,1,2.4-.21,6,6,0,0,1,1.7.43,13.21,13.21,0,0,0-3.42,2.5,23.22,23.22,0,0,0-3,3.81A35.86,35.86,0,0,0,74.08,159.63Zm30.57-53.33a180,180,0,0,1,7.61-16.58c.19-.36.39-.71.59-1.06-2.12,4.12-3.93,8.37-5.63,12.66-3.68,9.4-6.8,19-9.76,28.62-.05.18-.1.36-.16.54L96,130.32C98.64,122.22,101.43,114.18,104.65,106.3ZM85.27,165.79l2.12-7.41q2.37-8.13,4.86-16.22a7.51,7.51,0,0,0,.52,2.54l.21.49Q91,152.09,89.18,159c-.66,2.44-1.3,4.89-1.94,7.34A18,18,0,0,1,85.27,165.79Zm2.94.72-.3,0q.95-3.66,1.93-7.29,1.75-6.51,3.59-13a21.31,21.31,0,0,1,1.85,5.27c.06.83-.11,3-.25,5.06-1,2.1-1.94,4.23-2.89,6.36-.5,1.15-1,2.3-1.46,3.45A2.59,2.59,0,0,0,88.21,166.51Zm3.07,0c.49-1.12.95-2.26,1.44-3.39.72-1.63,1.44-3.26,2.19-4.88a8.76,8.76,0,0,0,0,2.63,1.62,1.62,0,0,1,.29.25Q94,164.06,92.82,167C92.31,166.87,91.79,166.68,91.28,166.51Zm5.2.65a7.09,7.09,0,0,1-3,0l-.12,0q1.11-2.8,2.27-5.58c.64.69,1.49,1.7,1.81,2.13C97.92,164.34,96.48,167.16,96.48,167.16Zm91.81-31.44a29.37,29.37,0,0,1-5.13-5.44,5.16,5.16,0,0,1-.46-.83,52.77,52.77,0,0,0,8.71-7.5C190.77,122.91,189.43,129.53,188.29,135.72ZM182.7,77.11a26.87,26.87,0,0,0,1.58-4.74c1.28,4.2,4.46,7.56,7.12,9.78.11,3.06.35,5.36.35,5.36A57.82,57.82,0,0,0,182.7,77.11Zm18.38,10.64A32.54,32.54,0,0,0,198.6,76c2.05,2.13,4.05,4.17,5.83,5.93.3.31.63.62,1,1A20.92,20.92,0,0,0,201.08,87.75ZM210,79.29l-9.85-10a40,40,0,0,0,9.62-.35,22.86,22.86,0,0,0,1,9.84Zm1.71,12.35A11.82,11.82,0,0,0,213,89.16c1.07.81,2.17,1.64,3.29,2.47A26.67,26.67,0,0,0,211.66,91.64Zm1.63-23.48c.75-.2,1.34-.38,1.69-.5A56.66,56.66,0,0,0,216.76,75,25.79,25.79,0,0,0,213.29,68.16Zm12.22,38.92-.52-.2,1.76-1.57C226.3,105.91,225.9,106.5,225.51,107.08Zm-1.65-14.92-6.17-3.92a20,20,0,0,0,9.71,1.66C226.47,90.56,225.31,91.31,223.86,92.16Zm2-12a31.58,31.58,0,0,0,14.38-5.48,14.61,14.61,0,0,0,1.66,5.43c-4.4.54-7,1.55-8.64,2.61A67.36,67.36,0,0,0,225.81,80.2Zm13,40.67a.53.53,0,0,0,0-.25,0,0,0,0,1,0,0l1-.08Zm4.56-4c-.51-.48-1.06-1-1.67-1.43,1.65-1.7,3.39-3.51,5.27-5.43A21.09,21.09,0,0,0,243.39,116.9Zm4.4,12.68C249.23,127.87,251,126,253,124c.37,1.66.8,3,1.35,3.12a4.57,4.57,0,0,1,.75.39c-1.06,1.72-2,3.29-2.71,4.57A37.26,37.26,0,0,1,247.79,129.58Zm6.53,49.26h-1.14a6.92,6.92,0,0,1,2-3.73,3.25,3.25,0,0,0,1,1.49A15.29,15.29,0,0,0,254.32,178.84ZM262,163.13c.54-1.5,1.23-2.64,1.54-3.73.15,2,.3,4.11.45,6.17C263.38,164.78,262.67,163.92,262,163.13Zm13.14-38.69a10.16,10.16,0,0,0-2.22,0,32.57,32.57,0,0,0,2.63-3c0,.82,0,1.62,0,2.4Zm12.29-1.77a18.76,18.76,0,0,0-.43-2.79c.28.21.58.4.88.59a.79.79,0,0,0,.1.71,8.51,8.51,0,0,0,.91.83A13.81,13.81,0,0,1,287.47,122.67Zm-4.75-38.81c-5.35-3.46-13.57-5.74-13.57-5.74C279.89,79.54,289.47,72.41,290,72A56.82,56.82,0,0,0,282.72,83.86Zm12.91,9.74a4.59,4.59,0,0,1,.32,1.7c-1.06,0-2.13,0-3.2,0C293.71,94.76,294.68,94.2,295.63,93.6Zm2.73,16.67c-1.22-.66-2.44-1.3-3.62-1.85-.83-.43,1.19,0,4.9.52C299.2,109.38,298.77,109.82,298.36,110.27Zm5.24-20.11L301.75,89c.74-.63,1.47-1.28,2.18-2C303.77,88.13,303.67,89.15,303.6,90.16Zm26.46-7.24-.35-.12c-1.22-2.11-2.16-3.51-2.37-3.83a20,20,0,0,0,3.13,3.54A3.18,3.18,0,0,0,330.06,82.92Zm6.83-16.39c-.3-.44-.6-.87-.88-1.26.37.4.75.78,1.14,1.15Zm90,77.15c-2.48,2.08-5.9,5-9.38,7.91-4.73-4.56-8.31-7.91-8.31-7.91l-8.85-19.51s-1.69-4.4-3.87-9.38c1.79,1.77,3.74,3.49,5,5,2.57,3,6.43,3.68,7.72,9.42s9.22,3.66,9.22,3.66L428,138l.44,4.6A18,18,0,0,0,426.9,143.68ZM501,166.88c-1.34-3-2.32-4.9-3-6.89a6.7,6.7,0,0,1,2.4,2.88,44.67,44.67,0,0,1,1.34,5.42A13.38,13.38,0,0,1,501,166.88Zm16.08,27.51a16.56,16.56,0,0,0-3.69-2.28c-.15-1.55-.22-3.34-.22-5.51a12.1,12.1,0,0,0-.66-4c2.47,1.72,4.57,3.32,4.57,3.32l5.5,4.08c.35,3.29.7,6.72,1,10.1C521.27,198.09,518.46,195.65,517.09,194.39Zm202.68,21.79c-.33-.36-.67-.72-1-1.06A25.74,25.74,0,0,1,721,217l0,0C720.67,216.77,720.23,216.47,719.77,216.18ZM722,216a19.22,19.22,0,0,0-5-3.54,5.66,5.66,0,0,0-3.1-.51,3.43,3.43,0,0,0-1.12.41l-.19.07c-.87-.46-2.15-1.15-3.57-1.88a25.61,25.61,0,0,1-1.07-7.7,19.09,19.09,0,0,1,4.18-1.79c.33.84.7,1.4,1.11,1.52,2,.58,9.18,7.33,9.18,7.33l4.37,4c.22,2.62.44,5.32.66,8A61.62,61.62,0,0,0,722,216Zm11.78-3.77c-.11-.92-.22-1.81-.33-2.7.47.6.93,1.21,1.37,1.84C734.45,211.69,734.1,212,733.77,212.24Zm-.94-7.58c-.26-2.12-.5-4.06-.7-5.74-.11-.9,1.34-2.44,3-4.11.48,2,1,4,1.38,6l.15,4.48c0,1.21.08,2.42.16,3.62A41.22,41.22,0,0,0,732.83,204.66Zm15.29-38.41a4.62,4.62,0,0,1,.4-.37,8.5,8.5,0,0,1-1,1C747.73,166.69,747.91,166.46,748.12,166.25Zm-9.43,38.49,0-1.37.26,1.13Zm12.38-14.31a22.43,22.43,0,0,0-2.91,2.94,6,6,0,0,0-2.87-.07l2.13,1-.32.39a4,4,0,0,0-1.62.53l-.26.15.15.27.19.34.11.2.23,0H746c-1.43,1.88-2.82,3.92-3.91,5.71-.29.18-.58.37-.85.57l-1.28-5.57c0-2.76,0-5.53.23-8.28,1.89-2.87,4.56-6.64,5.79-8.91l.43-.81c.19.19.37.39.55.59a20,20,0,0,1,1.3,1.64c.79,1.12,1.55,2.35,2.26,3.59.35.81.7,1.62,1,2.44s.6,1.48.89,2.23C751.91,189.75,751.44,190.15,751.07,190.43Zm37.18-15,.33-2.4.67,5a1.35,1.35,0,0,0-1.2,0,.84.84,0,0,0-.18.15Zm-2.63-6.09-.54,4.08-.35-1.25c0-.11-.07-.21-.1-.31l.26-.08-.08-.18a.5.5,0,0,1,.23,0l-.88-1.32-.21-.68A3.37,3.37,0,0,1,785.62,169.34Zm-8.85,14.37.57-5.71,1.1-1.74-1,.94.06-.6a35.33,35.33,0,0,1,2.1-3l.4.07.69,1,1.14,1.72,1.19,5.83a5.35,5.35,0,0,0-2.28,1.32,6.6,6.6,0,0,0-.73.87,5.56,5.56,0,0,0-.47.8,8.66,8.66,0,0,0-.88,3,9.79,9.79,0,0,0,0,2.81v0s0,0,0,0a2.77,2.77,0,0,0-.56-.31l-1.74-.65C776.51,188,776.64,185.85,776.77,183.71Zm2.87,14.24a1,1,0,0,1,.43-.22l-.5.41A.62.62,0,0,1,779.64,197.95Zm-.29-.24c-.07.08-.15.15-.21.23s0-.14,0-.21c0-.22.06-.44.09-.66a3.34,3.34,0,0,1,.32.33Zm-2.16-2.83c-.07.27-.13.55-.2.83l-.41.17a3.44,3.44,0,0,0-.43.21c0-.69.09-1.38.14-2.07C776.59,194.31,776.88,194.6,777.19,194.88ZM753.43,214.3l.1-1.35a6.07,6.07,0,0,0,.44.44,17.44,17.44,0,0,1,1.33,1.26A18.87,18.87,0,0,0,753.43,214.3Zm.29-3.85.27-3.68c.1-.4.2-.79.29-1.16l.09.07a.41.41,0,0,0,0,.08l1.51,3.31A11.7,11.7,0,0,0,753.72,210.45Zm2-9.27c.21-.4.45-.88.73-1.41l.37,1.07c0,.25,0,.5,0,.75l0,.81c0,.12,0,.25,0,.37ZM766,191.8l-.35,1.13.11.47s0,.1.05.14l-.26.55c-2.31-2.81-.53-4.29-2.73.26a16.58,16.58,0,0,0-1.4,6.49l-1.7-4.08-.16-.69a22.35,22.35,0,0,1,.33-2.82c.39-.7.79-1.42,1.19-2.12l.4,0a3.11,3.11,0,0,0,1-.19l2.17-1,.09.07a5.92,5.92,0,0,0,.92.57,7,7,0,0,0,.68.24Zm-1.76-4.85.09-.09.15.18Zm4.85-3,0,.07c0-.32,0-.64.1-1a6.27,6.27,0,0,1,1.48-3.56l.14-.14-.12-.16-.23-.3-.14-.19-.18.14a6.69,6.69,0,0,0-2.06,3.37c-.16.52-.28,1-.39,1.57a5.05,5.05,0,0,0-1.33-.52l-.21,0c.55-.65,1-1,1.28-1,2,.33-3.71-4.57-3.71-4.57s-1,1.1-2.48,2.65l1-2.06a10.33,10.33,0,0,0-1.47.79,8,8,0,0,0-.67.47l-.31.24-.36.3c-.28.26-.38.37-.56.56s-.33.36-.49.55-.48.59-.7.9c0-1,0-2,0-3,.06-1.36.18-2.71.37-4.06a38.18,38.18,0,0,1,.76-3.86l.9-.79a14.07,14.07,0,0,1,1.89-1.39,14.8,14.8,0,0,1,2-1,11.09,11.09,0,0,1,4.21-.87A10.07,10.07,0,0,1,772,168a13.43,13.43,0,0,1,2,1.08l.77.52.11.38a5.15,5.15,0,0,0,1.33,1.76,29.71,29.71,0,0,0-1.89,3l-.46.83v.5l0,2.52c-.75,1.16-1.45,2.34-2.14,3.54a13.12,13.12,0,0,0-1.4,1.14,9.35,9.35,0,0,0-.94,1.07Zm4.06.71.7-1.51c0,.12,0,.23,0,.35,0,.38.06.76.1,1.15l-.39,2.9-.16-.12a3.2,3.2,0,0,0-.63-.34l-.62-.25C772.52,186.12,772.84,185.39,773.18,184.67Zm-.5-3.29.09-.15c.34-.54.68-1.07,1-1.6v.16c0,.24,0,.48,0,.71C773.44,180.8,773.07,181.09,772.68,181.38Zm-2.87,15.08-.18-1.63-.17-1.72h0c.13.1.25.21.39.31s.32.18.48.27l.4.71c.19.35.37.7.55,1.06l-.43.24A7,7,0,0,0,769.81,196.46Zm2.39,10.87-.11.17-.15-1.06a21,21,0,0,0-.74-3.33c0-.12-.08-.23-.12-.35s0-.37,0-.56c.07-.57.12-1.15.23-1.71.06-.3.14-.59.22-.88h0c.08,0,.16-.09.24-.12a4.84,4.84,0,0,1,.47-.21l.29-.09-.21,5Zm1.61,5.16a6.63,6.63,0,0,0-.34,3.66,9.5,9.5,0,0,1-.72-1.07l.47.42-.7-4.94.16-1.05a15.88,15.88,0,0,1,.35-1.72l.11-.36a11.42,11.42,0,0,1-.31-1.61,10.71,10.71,0,0,1-.07-1.6,12.75,12.75,0,0,1,.21-1.51,10.57,10.57,0,0,1,.43-1.5,18.6,18.6,0,0,1,1-2.29H775l-.31-3.1a4.69,4.69,0,0,1,.4.54,3.23,3.23,0,0,1,.5,1.07l0,.15a2,2,0,0,1,.66,1.18l.12.66.4-.73,0-.06.06.05,1,.84-1.22,1a.64.64,0,0,0-.17.54,1.77,1.77,0,0,0,.09.39,5.34,5.34,0,0,0,.24.48l-.16,2.51a2.36,2.36,0,0,0,1.65.59l-1.93,3.2A30.15,30.15,0,0,0,773.81,212.49Zm3.84-1.07-.47,3c0-.54.1-1.09.13-1.64l.24-3.41.31.69Zm1.63,5.74c-.31-.8-.65-1.61-.91-2.41a8.34,8.34,0,0,1-.35-1.66,7.22,7.22,0,0,1,0-1.61l.16-.7c.08-.22.15-.45.24-.68h0l0-.19a7.26,7.26,0,0,1-.11-1,8.34,8.34,0,0,1,0-1l.09-2.94a.88.88,0,0,0,.84-.86.87.87,0,0,1,0,.15,4,4,0,0,0-.31.81,5.25,5.25,0,0,0-.16,1.94,7.34,7.34,0,0,0,.58,2l.2,1.32.14.08.78.5Zm1-19.57v-.49l.16.35ZM781,195l-.11-.12a1.79,1.79,0,0,1,.06-.17l.22-.72-.61.24L780,193l.45-1.46c.22-.67.44-1.34.7-2,.18-.2.35-.4.53-.59a8.94,8.94,0,0,1,1.57-1.29l.11-.05c-.42,1.09-.8,2.19-1.16,3.29C781.77,192.27,781.38,193.64,781,195Zm1.67,10.64.25-2,.75,1-.15.31-1.13,2.5C782.52,206.88,782.62,206.27,782.7,205.66Zm1.76,9c-.12-.28-.24-.56-.37-.84l.15-.52.34.22-.16-.85c.15-.55.3-1.11.42-1.68.23-1,.47-2.06.76-3.12.08,1.28.11,2.52.16,3.69,0,.59.08,1.17.13,1.76l0,.19Zm3.57-2.91a10.33,10.33,0,0,0-.55-1.27c-.81-1.53-1.63-2.45-1.84-3a6,6,0,0,1-.67.8c-.31.29-.71.69-1.16,1.18a15.4,15.4,0,0,1-.29-1.85,7,7,0,0,1,0-1.3c0-.2.09-.4.13-.6l.2-.57L784,205l4.58,6.29Zm-3.44-12.43-.24-.33,0-1-.38.45.68-2.73c0,.86-.17,1.6-.15,2.33C784.54,198.47,784.56,198.9,784.59,199.33Zm5,11.12-1.09-10a5.49,5.49,0,0,0-.32-1.3,9.71,9.71,0,0,0-.63-1.33,5.2,5.2,0,0,0-1.35-2.19c-.58-.5-1.08-.66-1.33-.49l.41-1.64-1.73,1.41h0c.24-.32.46-.64.68-.95a23.14,23.14,0,0,0,1.26-2c.2-.33.38-.67.55-1s.34-.67.49-1c.33-.67.61-1.34.89-2l.42-1-.2-.94c-.09-.38-.16-.76-.25-1.13l0-.1,2.56-1.64c0,.14,0,.28,0,.43l.38,3.67.39,3.67.47,4.82,0,.53.8,8.89,0,.26.07.28.48,2C791.62,208.58,790.61,209.51,789.55,210.45Zm9.92-18.36q-.48,3-.86,6c-.11.83-.19,1.66-.29,2.49a31.11,31.11,0,0,1-2.7,3.76l-.7-7.92.11-.22.17-.35.15-.29-.25-.17-.29-.19-.16-1.66,1.51-.51-.39-.17-1.24-.53-.2-2.14a3.42,3.42,0,0,1,.68-.06,2,2,0,0,1,.55.07,2.33,2.33,0,0,1,.94.59l-.12-2.69a4.58,4.58,0,0,1,2.06,1l.29.22L799,189l.24-.3.21-.26-.23-.24a5.81,5.81,0,0,0-2.6-1.58l-.1,0,3.56-.39Zm32-9.33c-.4.87-.82,1.73-1.24,2.57l-.76,1.42-.41.72-.29-1Q830.1,184.56,831.48,182.76Zm-16.42-9.27.47.29-.45,1.18,0,.08-.22,0,.1.29c-.4,1.09-.75,2.19-1.07,3.3Q814.46,176.08,815.06,173.49Zm-3.1,16c-.1.92-.2,1.83-.31,2.74l-.94-2.38,0-.16h0l0-.19.69-2.88.8.22C812.16,187.73,812.06,188.61,812,189.5Zm2.14,7.93a6.51,6.51,0,0,0-.77-1l-.79-2,3-9c.9-2.73,1.84-5.44,2.72-8.18a5.25,5.25,0,0,1,1.24.68,7.61,7.61,0,0,1,.76.62l.71.74.38.41c-.34.84-.66,1.7-1,2.55l-1.08,2.82a18,18,0,0,0-1.77,2.45,26.07,26.07,0,0,0-1.37,2.75,33.2,33.2,0,0,0-1.82,5.84Zm3.15,7.14-.18.53c-.27.75-.5,1.51-.73,2.28-.14-.26-.27-.52-.39-.79l-.1-.91-.14.31a9,9,0,0,1-.51-3,11.8,11.8,0,0,0-.76-5c0-.1,0-.2,0-.3l.23-1.48a20.79,20.79,0,0,1,.88-2.88,16.51,16.51,0,0,1,1.33-2.7,17,17,0,0,1,1.77-2.39,12.33,12.33,0,0,1,2.14-1.88l.31-.51.07-.11,0,.35c-.12,1.17-.28,2.33-.46,3.48A34.08,34.08,0,0,1,820,193c-.28,1.12-.62,2.21-1,3.29-.24.65-.44,1.3-.71,1.94s-.52,1.28-.82,1.9-.61,1.25-.92,1.87l-1,1.84Zm2.16-8.12,4.4-12.13c0,.16.11.31.16.47l.45,1.22.69,1.91-1.35,2.32c-.91,1.57-1.76,3.18-2.57,4.8l-.15.32-.38.65c-.39.66-.79,1.31-1.15,2l-1,2-.6,1.16Zm4.53,5.49a27.51,27.51,0,0,0-1.11,4.94l-.26,2.41,0,.53-1.74-1.25s-1.12.72-2.44,1.64c-.07-.1-.15-.19-.23-.29,1.3-2.8,2.62-5.6,4-8.37,1-2,2-4,3.09-6,.54-.77,1-1.57,1.53-2.38l.39,1.4.24.83L826.26,197a20.33,20.33,0,0,0-1.38,2.43A22.6,22.6,0,0,0,823.94,201.94Zm4.33,8.75c0,.12-.05.25-.08.38s-.15.37-.22.56c-.21.53-.4,1.08-.6,1.62l-1.23-.86c0-.15,0-.3,0-.44.15-1.55.3-3.1.42-4.66,0-.35.09-.7.13-1.06a.36.36,0,0,1,0-.09c.62-1.38,1.13-2.74,1.81-4l.38-.66c.25,1,.49,1.94.74,2.91Zm2.37,4.85c.23-.76.47-1.53.72-2.3,0,.77.08,1.53.12,2.3l0,.6Zm1.13-18.09-.38-1.2c-.09-.3-.19-.59-.29-.88q-.18-.87-.39-1.74c-.12-.47-.23-.95-.35-1.43l-.09-1-.12.18-.12-.43-.81-2.92a73.2,73.2,0,0,1,6.08-8.7c-.43,1.15-.82,2.31-1.16,3.48a53.6,53.6,0,0,0-1.28,5.29c-.16.89-.3,1.78-.43,2.68l-.27,2.7Zm3.15-1.68a1.09,1.09,0,0,1-.08.15l0-.26Zm-1.51,11-1.19-3.63.83-2.36-.14,1.95,1.66-3.22c-.41,1.06-.8,2.13-1.19,3.19l-.07.18v.18Zm1.3,1.55-.1-5.22c.57-1.52,1.13-3,1.74-4.56.78,1.64,1.49,3.32,1.39,3.89a4,4,0,0,0,1,4.21c-.59.87-1.16,1.74-1.72,2.62s-1,1.52-1.51,2.29Zm4.9,5.78-1.68,6.3-.5-.32c-.19-.94-.39-1.88-.59-2.82,1.27-2.56,2.6-5.1,4-7.56a12.89,12.89,0,0,1,1,3.49Zm25.82-17.9-1-.48.15-.39a3.73,3.73,0,0,0,.89.83S865.44,196.21,865.43,196.23Zm127.68,30.6a2.26,2.26,0,0,1,1.3.49,6.28,6.28,0,0,1,1.18,1.18l0,0ZM1035,198.74l1,.59a14.12,14.12,0,0,0-1.22.79Zm-4.6-.36a15.28,15.28,0,0,0,0-1.66,21.78,21.78,0,0,1,2.89,1.06c.32.15.52.24.79.39l.41.25a17,17,0,0,0-3.42,3.73A8.52,8.52,0,0,1,1030.35,198.38Zm7,8.48-2.41.84a.46.46,0,0,0,0-.26,9.1,9.1,0,0,0-1.7-2,1.3,1.3,0,0,0,.1-.15,12.41,12.41,0,0,1,4-3.74l-2-.47a13.08,13.08,0,0,1,1.23-1l.2-.14c.74.59,1.6,1.24,2.11,1.67.7.6,1.41,1.32,2.2,2.12l.56.56.49.52c.34.38.67.76,1,1.15.09.1.16.21.24.31C1041.66,206.22,1041.29,205.47,1037.36,206.86Zm9.19,11c-1.58-.85-2.79-1.69-2.42-2.09.6-.65,2.76-2,3.78-3.52l.55.76.14.62C1047.87,215,1047.2,216.38,1046.55,217.81Zm2.55,1.26.49-1,.26,1.38Zm2.17-1.95-.43-.93.48.65C1051.3,216.93,1051.29,217,1051.27,217.12Zm3.55,24.72a12.36,12.36,0,0,0-.94-2.33c-.08-.17-.19-.35-.29-.52.16-.13.34-.26.53-.39l1.17,3.24Zm.28-22.08-.61-1.28.08-2,.52.37.19-5.22a2.42,2.42,0,0,0-.25-1.15,2.14,2.14,0,0,0-.23-.38v-.14l.13-.17.06-.68.42.33.18-.14v.28l-.18-.14-.39.31a1.57,1.57,0,0,0,.57.06c0,.32,0,.65,0,1l.14,4.29c0,1.51.11,3,.16,4.54Zm8-6.61a62.08,62.08,0,0,1,2.19,7.81l.18.82c.21,1.58.41,3.16.61,4.75l.84,6.94,0,.14-.47,2.19a39.38,39.38,0,0,0-2.14-5.38l-.56-6.38.11-.09.2-.17-.13-.2-.26-.36-.82-8.48c-.1-1.05-.22-2.09-.34-3.14C1062.67,212.1,1062.88,212.61,1063.07,213.15Zm-1,13.35.22.83c.24.87.44,1.75.65,2.63l-2.14.18A10.46,10.46,0,0,1,1062.11,226.5Zm-1.36,6.91a1.19,1.19,0,0,0,.71.24l-.8.48A7.06,7.06,0,0,0,1060.75,233.41Zm-4.29-35.15c.12-.65.24-1.3.37-1.95l.41,3a11.34,11.34,0,0,0-.77-1.07A0,0,0,0,0,1056.46,198.26Zm3.16,43.58-2.94-4.38h.08a1.25,1.25,0,0,0,.23-.13l.55-.17a.67.67,0,0,0,.35.13s0,0,0,0l1.74,4.56Zm-.06-22.8c-.14-1.38-.34-2.74-.58-4.11s-.57-2.83-1-4.25c-.17-.7-.36-1.41-.6-2.12,0-.19-.12-.39-.19-.58l1-.75c.1,1.23.23,2.45.4,3.67.18,1.42.44,2.82.7,4.23s.54,2.68.88,4A4,4,0,0,0,1059.56,219Zm.74,22.8-.11-4.6,5.4,1.22-1.44-3.2a1.11,1.11,0,0,0-.38-.44,1.69,1.69,0,0,0-.65-.29,2.49,2.49,0,0,0-1,0,4.26,4.26,0,0,0-1.26.4,1.48,1.48,0,0,0,.28-.28,1.14,1.14,0,0,0,.18-.32,1.31,1.31,0,0,0,.1-.67,2.44,2.44,0,0,0,.38,0,2.16,2.16,0,0,0,1.06-.78,3.49,3.49,0,0,0,.66-1.4,0,0,0,0,0,0,0c.18.27.37.55.53.83q.41.7.78,1.44a29.62,29.62,0,0,1,1.29,3l.36,1,.15-1c.14-1,.36-2,.54-3l0-.17v-.07c-.18-1.66-.29-3.33-.36-5l.84,3.77-.06.58c-.06.73-.08,1.46-.07,2.18s0,1.43.14,2.14a19.12,19.12,0,0,0,.35,2.12l.55,2.6Zm11.94-9.37c-.25,1.31-.49,2.62-.72,3.94-.1-.65-.19-1.29-.29-1.94l-.64-4.27v-.7a20.14,20.14,0,0,1,2.49-5.36l-1.24,9.23Zm2.83-23.12-1.62,12.06-.2.19a18.05,18.05,0,0,0-2.16,2.38l.56-3.24c.33-1.91.62-3.82,1.07-5.62a46.51,46.51,0,0,1,1.62-5.35c.32-.85.65-1.66,1-2.45Zm5.42,32.4,0,.09h-.29a1.1,1.1,0,0,0,0-.18l.59-.89C1080.69,241.1,1080.58,241.42,1080.49,241.75Zm2.11-6.77c-.06.2-.13.4-.19.61l-.6-.3a5.09,5.09,0,0,1,1-1Zm4.21,6.1,2.51-4,1.4.61C1089.41,238.78,1088.09,239.92,1086.81,241.08Zm3-13,1.48-5.82,1.8-7.09,3.59-5.09c-1.74,4.36-3.39,8.74-5,13.15C1091.06,224.87,1090.44,226.49,1089.82,228.11Zm2.75,3.84-.83,1.51,1.27-3.65,1.48-.88C1093.83,229.92,1093.19,230.93,1092.57,231.95Zm54.69-8.74.2.76-.81-.32a4,4,0,0,1,.53-.39Zm-6.74-17.3,1.78.82-2.1-.49ZM1126,184.19l1.34.82a9.86,9.86,0,0,0-2,.3Zm-30.79,41.93a2.42,2.42,0,0,1,1.71-.68h.11c-.42.53-.83,1.05-1.22,1.6l-.61-.92Zm3.65,5.45-.76,1.2a25.81,25.81,0,0,0-3,1.7l.42-.75c.64-1.07,1.32-2.15,2-3.18a3,3,0,0,1,1.54.57Zm1-2a4.62,4.62,0,0,0-1.47-.33c0-.06.09-.13.14-.2.19-.27.39-.54.59-.8l1,.76Zm1.06-1.75a6.85,6.85,0,0,0-.89-.47l-.18-.06c.65-.81,1.33-1.59,2-2.3.15-.15.29-.27.44-.41Zm1.56,13.31a2.94,2.94,0,0,1,.7-1.2l0,0Zm1,.68c0-.11,0-.23,0-.34a7.46,7.46,0,0,0,0-1.14l.65,1.48Zm.19-9.7c4.85-12.25,9.94-24.41,15.69-36.25.13-.24.24-.48.37-.71,1.48-2.79,3.06-5.62,4.66-8.35.14-.25.29-.49.44-.74l0,.08.08.27.28,0a9,9,0,0,1,1.71-.13l-1.11,2.06c2.8-.85,5.51.25,8,2.81a26.84,26.84,0,0,1,3.35,4.21,50.3,50.3,0,0,1,2.82,4.87h0a3.13,3.13,0,0,0-.42,0,11.72,11.72,0,0,0-3.63.48c-.55.16-1.08.35-1.58.55s-1,.46-1.46.7a23,23,0,0,0-2.59,1.6,35.57,35.57,0,0,0-4.36,3.71l-2.73,3a5.06,5.06,0,0,0-2.28-.15l1.58.91-.28.31-.73.79a2.59,2.59,0,0,0-.37.11l-.3.12.11.3,0,0-.44.49.54.8c-.2.3-.4.61-.59.92-1,1.16-2,2.34-3,3.55-1.53,1.94-3,3.91-4.46,5.94-2.61,3.69-5.07,7.49-7.45,11.32a4.33,4.33,0,0,0-1.09-2.77A3,3,0,0,0,1103.65,232.14Zm5.93,3.2v0l-.05.27-.19.08Zm-4,6.5.47-.78v0c0,.25,0,.5,0,.75Zm6.27,0h-2.6a1,1,0,0,0,0-.17l2.72,0Zm5.9-3.37-.95,0a10.35,10.35,0,0,0-2.95.49,14.5,14.5,0,0,0-4.56,2.34c.05-.65.12-1.3.19-2a30.89,30.89,0,0,1,5.58-1.51,25.47,25.47,0,0,1,2.87-.33Zm2.63-.66-1.57-.38c.53,0,1.07,0,1.6,0C1120.39,237.55,1120.37,237.68,1120.37,237.81Zm3.23-3.94a6.79,6.79,0,0,0-.91-.79,5,5,0,0,0-.81-.47,4.94,4.94,0,0,0-2.69-1.2l1,.82a3.6,3.6,0,0,0-1.26.15l-.27.08.08.26.1.37.06.21h.2a3.2,3.2,0,0,1,.83.13l-.11.21a18.46,18.46,0,0,0-2,.1c-.59,0-1.11.08-1.76.17s-1.12.17-1.68.28a25.27,25.27,0,0,0-4.4,1.28l3.67-5.8c1.22-1.94,2.44-3.88,3.68-5.8l.2-.12-.06-.1.44-.63,2-2.65c1-1.26,2-2.47,3-3.66a.35.35,0,0,0,.05.08,13.74,13.74,0,0,1,.74,1.32,25.34,25.34,0,0,1,1.26,3.1,65.25,65.25,0,0,1,1.92,6.91l.12.52c.1.69.2,1.37.28,2.06l.47,3.71Zm4.81,8h0c0-.1.07-.2.1-.3C1128.46,241.64,1128.44,241.74,1128.41,241.84Zm.82,0-.1-.21a1.37,1.37,0,0,1-.08-.79,1,1,0,0,1,.06-.16v-.08a2.83,2.83,0,0,1,.06-.28l.07,0,.22-.32.24-.18.45,2Zm1.16-17.28a43.63,43.63,0,0,0-1.25-5.66,25.86,25.86,0,0,0-1-3c-.2-.49-.42-1-.66-1.46a10.89,10.89,0,0,0-.91-1.47l2.32-2.24a34.51,34.51,0,0,1,4-3.08,16.67,16.67,0,0,1,3.53-1.73,20.17,20.17,0,0,0-1.67,2.75,33.93,33.93,0,0,0-2.59,7.19,48.94,48.94,0,0,0-1,5C1130.86,222.11,1130.61,223.33,1130.39,224.56ZM1132,240.4a1.62,1.62,0,0,0-.42.44,2.54,2.54,0,0,0-.3.41l.39-2.39.2.06a14.28,14.28,0,0,1,1.5.62l.71.33c-.23,0-.46.06-.69.1a3,3,0,0,1-.44.08.67.67,0,0,0-.57.15A.78.78,0,0,0,1132,240.4Zm.85,1.44-.25-1.32c0,.09,0,.15.06.17l.23.15.49.32,1,.66,0,0Zm7.56-6.88c-.25,1.3-.46,2.63-.65,3.92l-1,1,.12.66a1.76,1.76,0,0,1,0,.22l-.64-.26a8.88,8.88,0,0,0-2.46-.61l-.5-.31c-.49-.29-1-.56-1.5-.82a15.64,15.64,0,0,0-1.43-.69l-.1-.68,0-.73c.07-.2.15-.4.22-.61l1.61-.8-1.26-.16a19.13,19.13,0,0,1,1.73-3.37l.32.05a6.7,6.7,0,0,0,1.17.11,3,3,0,0,0,.84-.09,1.55,1.55,0,0,0,.61-.27l.17-.17-1.23-1.59.76-.12.22-.16.53-.4,1.78-1-1.19-.41c.26-.16.51-.33.78-.47l.21-.11-.1-.2-.18-.35-.1-.2-.21.1-.83.4.39-1.24a13.5,13.5,0,0,0-2.83,2.24,3.41,3.41,0,0,0-.57.16l-1.36-1.75c.25-1.55.51-3.07.86-4.55a46.84,46.84,0,0,1,1.8-5.91,26.34,26.34,0,0,1,2.62-5.29,12.32,12.32,0,0,1,3.45-3.45l1.16,3.46c.34,1,.72,2.07,1,3.12l.84,3.18,1.5,5.65,0,0-.22.09a5.35,5.35,0,0,0-.86.53l.39-1.18a6.21,6.21,0,0,0-2.12,2A14.22,14.22,0,0,0,1143,226a25.56,25.56,0,0,0-1.54,4.48C1141.09,232,1140.75,233.47,1140.46,235Zm5.45,2.76-.41-.21a4.49,4.49,0,0,0-2.82-.4l-.2,0c.27-2.09.61-4.16,1.05-6.21a26.15,26.15,0,0,1,1.22-4.19,6,6,0,0,1,2.71-2.77l1.45,5.45Zm4,2-.94-.49.61-2.33c.25-.61.49-1.22.73-1.84l.05,3.91Zm59.52-45.84.87-1.25c-.3.62-.56,1.26-.81,1.94,0,.14-.09.28-.13.42Zm-2.74-2,1.42,7.2-.49,1.61-.46-1.43.15-.3.28-.53-.09-.53q-.87-5.38-1.73-10.78C1206.08,188.7,1206.38,190.28,1206.69,191.87Zm-8,26.15.25-.63-.06-.2,1.32-3.17.8-1.94.88-1.89.58-1.24c0,.11-.07.21-.11.31-.35,1-.76,1.91-1.14,2.86-.3.72-.58,1.44-.89,2.15s-.61,1.42-1,2.12l-.05.09,0,.16c.26,1,.48,2.09.69,3.14,0,.29.07.58.11.87l-.06,0a2,2,0,0,0-1.33-.35.83.83,0,0,0-.74.64.56.56,0,0,0-.33-.39Zm-.5,4.84v0s0,0,0,0Zm-46.93,17.56c.05-.29.1-.58.16-.86l.14-.52a12.54,12.54,0,0,1-.59-2.06,11.81,11.81,0,0,1-.24-2c0-.18-.07-.36-.11-.54l.72-1.86.58,2.34.51,2.06.5,2.16.57,2.47Zm3.77-3.71.82-.81c.28-.28.57-.59.83-.83a5.5,5.5,0,0,1,.78-.61l0,0c-.77,1.1-1.5,2.23-2.21,3.36Zm2.44-3.81a2,2,0,0,1,1.27-.36l.15,0s0,0,0,0c-.29.37-.57.76-.85,1.14Zm14.22,8.94h-1.07a1.84,1.84,0,0,1,.69-.38,2.11,2.11,0,0,1,.45-.09Zm.59-3.56a5.4,5.4,0,0,0-2,.08,5.29,5.29,0,0,0-1.1.39,5.82,5.82,0,0,0-.9.52,10.85,10.85,0,0,0-2.52,2.56l2-.47c-.11.16-.2.32-.31.48h-10.69c.58-1.25,1.18-2.5,1.84-3.72s1.35-2.48,2.09-3.68c.58-.75,1.17-1.48,1.81-2.18a11.58,11.58,0,0,1,3.09-2.58,1.63,1.63,0,0,1,1-.26s.25.11.32.25l.24-1.39a2,2,0,0,1,1.17.72l.2.24.24-.2.29-.25.19-.17-.13-.21a3.17,3.17,0,0,0-1.34-1.25l2.51.22a4.72,4.72,0,0,0-2-1.43,4.32,4.32,0,0,0-2-.21,3.62,3.62,0,0,0-.59.13,7.47,7.47,0,0,0-3.1,1.92,25,25,0,0,0-3.47,4.45l.05-.34,0-.27-.27-.07a3.2,3.2,0,0,0-2.12.3l-.08-.1L1159,230a4.54,4.54,0,0,0-2.79.63,9.76,9.76,0,0,0-2.21,1.91l0,0-.48-2-.06-5.37,1.91-3.9c.45-.91.87-1.79,1.37-2.65l.24-.42,1.69,0c-.34.32-.68.64-1,1l-.21.21.21.21.28.27.2.2.21-.2c.3-.29.62-.57.94-.85l0,1.77a30.2,30.2,0,0,1,7-5.32,19.46,19.46,0,0,1,2.61-1.24,21.6,21.6,0,0,1,5.57-1.41,18.88,18.88,0,0,1,4.81.08c-.39.81-.8,1.62-1.13,2.46-.45,1.09-.87,2.18-1.26,3.29-.79,2.22-1.45,4.48-2,6.75s-1.12,4.56-1.53,6.87Zm2.13,3.56c0-.06,0-.1,0-.16l.13.16Zm13.2,0h-1.21l.5-.86a20.41,20.41,0,0,1,1.69-1.92Zm2.53-7.16a11.18,11.18,0,0,1-3.24-1.41c-1.54-1.36-.51-3.4-2.24-5.61s-.32-1.42-2,0-3.9,4.25-3.5,7.27c.36,2.67-2.21,3.93-3.18,4.81a2.29,2.29,0,0,0-.37,0,2.38,2.38,0,0,0-.57.17l-.21-.12,1.24-8.36c.36-1.82.75-3.63,1.22-5.41.58-2.23,1.23-4.42,2-6.57.37-1.07.77-2.13,1.2-3.17s.9-1.94,1.35-2.91a21.34,21.34,0,0,1,3.25,1.16l.85.41.92.55,1.76,1.06.06,0c.52.43,1,.89,1.57,1.31a18,18,0,0,1,1.57,1.46l1.5,1.59c.46.48.85,1,1.28,1.5q-2.17,5.88-4.25,11.8Zm11.66,7.16h-10.42l1.09-3.45c.42-1,.83-1.92,1.26-2.87.81-2,1.56-3.93,2.28-5.91.29-.84.58-1.69.86-2.53l2.85,2.77.33.55c.73,3.6,1.48,7.19,2.18,10.8l0,.37A4.41,4.41,0,0,0,1201.76,241.84Zm2.31-23-.35,1.18a36.76,36.76,0,0,0-1,5.28c0,.05,0,.11,0,.17l-.58-2.09c0-.16-.12-.32-.18-.49l-.1-.33c-.3-1-.59-2.06-.91-3.08l-1-3,1.62-4.27,4.55-10.35.61,4.77-1.37,5.4c-.45,1.83-.76,3.68-1.07,5.53C1204.18,218,1204.13,218.44,1204.07,218.86Zm1.05,21.77-.37-1.3c.3.41.6.81.9,1.23Zm1.82-2.45-1-2.2c.06-3.37.27-6.73.49-10.09.19-.77.38-1.53.55-2.29,0-.18.07-.35.11-.52l.07,5.37.37,11.07C1207.34,239.07,1207.14,238.63,1206.94,238.18Zm4.42-4.55-.57,1,.1,1.14c.11,1.18.24,2.36.38,3.54-.41.15-.82.3-1.24.47l-.62.25c-.23-.9-.46-1.79-.64-2.7s-.45-2-.6-2.93-.31-2-.41-3-.16-2-.22-3,0-2.22.1-3.32.19-2.22.34-3.32.36-2.21.54-3.31l.66-3.31-.7-.05c.11-.78.21-1.55.32-2.32.29-1.76.42-3.58.57-5.42l.09-1h0c-.28-1-.6-1.9-.9-2.85l-.36-1.09.48-.56.15.79.08-1.06.79-.94c-.13.38-.26.75-.38,1.13l-.05.15v.15l0,2.24v.17l3.56,26.65v0C1212.31,232,1211.84,232.83,1211.36,233.63Zm16.25-9.95c-.28,1-.56,2.12-.78,3.21l-1.55,7.74c-2.66,1.11-6.26,2-10.46,3.38l-.22-2.55c1.06-1.71,2.1-3.43,3.23-5.1s2.27-3.41,3.48-5.06,2.45-3.28,3.77-4.83c.67-.78,1.35-1.55,2.05-2.29.48-.49,1-1,1.47-1.45Q1228.07,220.19,1227.61,223.68Zm5-22.1c.13-.62.27-1.23.4-1.85l-.12.65c-.57,3.09-1,6.19-1.49,9.29l-.36.33C1231.52,207.18,1232,204.37,1232.6,201.58Zm-1.17,21c-.09.19-.16.39-.24.58l-.47-.28.09-.8c.4-2,.85-3.91,1.23-5.87l.57-2.9.1-.07c.36-.21.72-.41,1.09-.59a10.88,10.88,0,0,1,2.31-.85,7.49,7.49,0,0,1,2.4-.21,5.82,5.82,0,0,1,1.7.43,13.33,13.33,0,0,0-3.41,2.5,22.71,22.71,0,0,0-3,3.81A34.5,34.5,0,0,0,1231.43,222.63ZM1262,169.3c2.32-5.63,4.75-11.23,7.61-16.58l.59-1.06a138.5,138.5,0,0,0-5.62,12.66c-3.69,9.4-6.81,19-9.76,28.62-.06.18-.11.36-.17.54l-1.29-.16C1256,185.22,1258.78,177.18,1262,169.3Zm-19.37,59.49,2.12-7.41q2.36-8.13,4.85-16.22a7.51,7.51,0,0,0,.52,2.54l.22.49q-2,6.9-3.8,13.81c-.67,2.44-1.31,4.89-1.95,7.34A17.84,17.84,0,0,1,1242.62,228.79Zm2.93.72-.3,0c.64-2.44,1.28-4.87,1.94-7.29q1.74-6.51,3.58-13a21.39,21.39,0,0,1,1.86,5.27c0,.83-.11,3-.26,5.06-1,2.1-1.94,4.23-2.89,6.36-.5,1.15-1,2.3-1.46,3.45A2.59,2.59,0,0,0,1245.55,229.51Zm3.08,0c.48-1.12.94-2.26,1.43-3.39.73-1.63,1.44-3.26,2.19-4.88a8.57,8.57,0,0,0,0,2.63,2.07,2.07,0,0,1,.29.25c-.81,2-1.62,3.92-2.39,5.89C1249.65,229.87,1249.13,229.68,1248.63,229.51Zm5.2.65a7.09,7.09,0,0,1-3,0l-.12,0q1.11-2.8,2.27-5.58c.64.69,1.48,1.7,1.8,2.13C1255.26,227.34,1253.83,230.16,1253.83,230.16Zm91.8-31.44a28.94,28.94,0,0,1-5.12-5.44,6.13,6.13,0,0,1-.47-.83,53.17,53.17,0,0,0,8.72-7.5C1348.11,185.91,1346.77,192.54,1345.63,198.72ZM1340,140.11a26.06,26.06,0,0,0,1.58-4.74c1.28,4.2,4.46,7.56,7.13,9.78.1,3.06.34,5.36.34,5.36A57.82,57.82,0,0,0,1340,140.11Zm18.39,10.64a32.37,32.37,0,0,0-2.49-11.79c2.06,2.13,4,4.17,5.83,5.93l1,1A20.64,20.64,0,0,0,1358.43,150.75Zm8.87-8.46-9.85-10a40,40,0,0,0,9.62-.35,22.74,22.74,0,0,0,1,9.84Zm1.71,12.35a12.3,12.3,0,0,0,1.38-2.48c1.06.81,2.16,1.64,3.28,2.47A26.55,26.55,0,0,0,1369,154.64Zm1.62-23.48c.76-.2,1.35-.38,1.7-.5a54.77,54.77,0,0,0,1.72,7.15A26.17,26.17,0,0,0,1370.63,131.16Zm12.23,38.92-.53-.2,1.76-1.57C1383.65,168.92,1383.24,169.5,1382.86,170.08Zm-1.66-14.92-6.17-3.92a20,20,0,0,0,9.71,1.66C1383.82,153.56,1382.66,154.31,1381.2,155.16Zm2-12a31.48,31.48,0,0,0,14.38-5.48,14.61,14.61,0,0,0,1.66,5.43c-4.4.54-7,1.55-8.64,2.61A67.37,67.37,0,0,0,1383.15,143.2Zm13,40.67a.53.53,0,0,0,0-.25l0,0,1-.08Zm4.56-4a20.36,20.36,0,0,0-1.67-1.43c1.65-1.7,3.39-3.51,5.27-5.43A21.28,21.28,0,0,0,1400.73,179.9Zm4.4,12.68c1.44-1.71,3.19-3.59,5.19-5.59.37,1.66.81,3,1.35,3.12a3.89,3.89,0,0,1,.75.39c-1.06,1.72-2,3.29-2.71,4.57A38,38,0,0,1,1405.13,192.58Zm6.53,49.26h-1.13a6.86,6.86,0,0,1,2.05-3.73,3.2,3.2,0,0,0,1,1.49A14.77,14.77,0,0,0,1411.66,241.84Zm7.72-15.71c.55-1.5,1.23-2.64,1.55-3.73.15,2,.3,4.11.44,6.17Zm13.14-38.69a10.07,10.07,0,0,0-2.21,0,30.85,30.85,0,0,0,2.62-3c0,.82,0,1.62,0,2.4Zm12.29-1.77a17.55,17.55,0,0,0-.43-2.79c.29.21.59.4.89.59a.79.79,0,0,0,.09.71,7.9,7.9,0,0,0,.92.83A14,14,0,0,1,1444.81,185.67Zm-4.75-38.81c-5.35-3.46-13.57-5.74-13.57-5.74,10.74,1.42,20.32-5.71,20.86-6.12A57.24,57.24,0,0,0,1440.06,146.86ZM1453,156.6a5,5,0,0,1,.32,1.7c-1.07,0-2.14,0-3.21,0C1451.06,157.76,1452,157.2,1453,156.6Zm2.72,16.67c-1.22-.66-2.43-1.3-3.62-1.85-.83-.43,1.19,0,4.9.52C1456.55,172.38,1456.12,172.82,1455.7,173.27Zm5.24-20.11L1459.1,152c.74-.63,1.47-1.28,2.18-2C1461.11,151.13,1461,152.15,1460.94,153.16Zm26.47-7.24-.36-.12c-1.21-2.11-2.15-3.51-2.36-3.83a19.64,19.64,0,0,0,3.13,3.54A2.27,2.27,0,0,0,1487.41,145.92Zm6.83-16.39-.89-1.26c.37.4.75.78,1.14,1.15Zm94.58,73.65c-2.48,2.08-5.9,5-9.38,7.9-4.73-4.55-8.32-7.9-8.32-7.9l-8.85-19.51s-1.69-4.4-3.86-9.38c1.78,1.76,3.74,3.49,5,5,2.57,3,6.43,3.68,7.72,9.41s9.22,3.66,9.22,3.66l9.48,5.1.44,4.6A18,18,0,0,0,1588.82,203.18Zm74.11,23.2c-1.34-3-2.32-4.91-3-6.89a6.7,6.7,0,0,1,2.4,2.88,43.2,43.2,0,0,1,1.33,5.42C1663.39,227.33,1663.15,226.87,1662.93,226.38Zm22.59,33.23c-2.35-2-5.14-4.47-6.51-5.72a16.79,16.79,0,0,0-3.69-2.28,54.63,54.63,0,0,1-.22-5.52,12.19,12.19,0,0,0-.66-4c2.46,1.73,4.57,3.33,4.57,3.33l5.49,4.08c.36,3.28.7,6.7,1,10.08Zm208.67,0c0-.41-.1-.81-.15-1.19-.11-.9,1.35-2.44,3-4.11.43,1.76.85,3.52,1.23,5.3ZM1910,225.75c.14-.15.3-.28.44-.42l0,0a7.67,7.67,0,0,1-1,1C1909.65,226.19,1909.83,226,1910,225.75Zm3,24.18a22.9,22.9,0,0,0-2.91,2.93,6.12,6.12,0,0,0-2.88-.07l2.14,1c-.11.12-.21.26-.32.39a4.11,4.11,0,0,0-1.62.52l-.26.16.15.27.19.33.11.21.23,0h.08c-1,1.32-2,2.71-2.85,4h-2.43l-.77-3.33c0-2.77,0-5.53.24-8.28,1.88-2.87,4.56-6.65,5.79-8.92.13-.24.28-.51.43-.81l.55.59a18.15,18.15,0,0,1,1.29,1.65,41.35,41.35,0,0,1,2.27,3.59c.35.81.7,1.62,1,2.44l.9,2.22C1913.82,249.25,1913.36,249.65,1913,249.93Zm5.19,9.68.18-.34.12.34Z"/><path class="cls-1" d="M328.46,19.19a2.11,2.11,0,0,0-.35.4A.39.39,0,0,0,328.46,19.19Z"/><path class="cls-1" d="M335.49,9.89a1.52,1.52,0,0,0-.24.43C335.65,10.25,335.77,10.11,335.49,9.89Z"/><path class="cls-1" d="M3.1,151.1a3.56,3.56,0,0,1,.74-.57h0a.57.57,0,0,1-.21,0l-.73-1.15a1.64,1.64,0,0,1,1.2-.45l.29,0,.05-.29.07-.38.05-.29-.28-.07a2.5,2.5,0,0,0-1.73.27c-.1.05-.19.12-.28.19L2,148l2.43-1.75a4,4,0,0,0-2.37.44,5.74,5.74,0,0,0-1.35,1l-.22.24v6.67c.3-.5.6-1,.92-1.47A12.26,12.26,0,0,1,3.1,151.1Z"/><path class="cls-1" d="M.54,167.11v1.13L2.21,167A4.21,4.21,0,0,0,.54,167.11Z"/><path class="cls-1" d="M10.92,164.16l2.5.22a4.75,4.75,0,0,0-2-1.43,4.29,4.29,0,0,0-1.4-.25,4.19,4.19,0,0,0-.65,0,3.62,3.62,0,0,0-.59.13,7.47,7.47,0,0,0-3.1,1.92,25,25,0,0,0-3.47,4.45l.05-.34,0-.27-.27-.07a2.89,2.89,0,0,0-1.52.07v2.89l.08-.06,0,0-.11.17v5.92c.39-.81.79-1.61,1.22-2.41.65-1.25,1.35-2.48,2.09-3.68.58-.75,1.17-1.48,1.81-2.18a11.58,11.58,0,0,1,3.09-2.58,1.63,1.63,0,0,1,1-.26s.25.11.32.25l.24-1.39a2,2,0,0,1,1.17.72l.2.24.24-.2.29-.25.19-.17-.13-.21A3.2,3.2,0,0,0,10.92,164.16ZM2,169.59c-.29.37-.57.76-.85,1.14l-.55-.83a2,2,0,0,1,1.27-.36l.15,0Z"/><path class="cls-1" d="M7.81,117.7a29.36,29.36,0,0,1,4.64-5,27.31,27.31,0,0,1,5.65-3.66l-2.28-.74q.75-.47,1.53-.9l.28-.15-.15-.28-.18-.34-.14-.26-.27.13c-.54.26-1.07.53-1.59.82L16,105A33.22,33.22,0,0,0,4.8,115.18a44.8,44.8,0,0,0-4.26,7.64v9.78c.27-.84.53-1.69.83-2.52A47.08,47.08,0,0,1,7.81,117.7Z"/></g></g></svg>