<svg xmlns="http://www.w3.org/2000/svg" viewBox="0 0 492.425 492.425" enable-background="new 0 0 492.425 492.425"><path d="M228.398 137.833v-45.478c.008-9.697-5.364-18.611-13.946-23.123-8.576-4.529-18.959-3.935-26.964 1.541l-177.316 121.375c-6.351 4.349-10.158 11.531-10.172 19.221-.025 7.692 3.733 14.903 10.052 19.286l177.283 122.947c7.99 5.559 18.405 6.201 27.02 1.688 8.623-4.512 14.019-13.424 14.027-23.156v-38.301c93.167 2.682 174.585 50.617 221.525 122.049 5.484 8.334 15.963 12.189 25.775 9.475 9.805-2.713 16.629-11.371 16.726-21.262.009-.885.017-1.768.017-2.65 0-143.135-117.481-259.354-264.027-263.612z"/></svg>