<svg xmlns="http://www.w3.org/2000/svg" viewBox="0 0 463.001 463.001" enable-background="new 0 0 463.001 463.001"><path d="M382.382 0h-.032c-12.173 0-22.651 9.087-24.373 21.138l-35.859 251.016c-1.709 11.961 5.842 23.191 17.564 26.122l12.021 3.005-6.464 129.275c-.427 8.536 2.582 16.647 8.473 22.84s13.842 9.604 22.389 9.604c17.039 0 30.9-13.862 30.9-30.9v-407.48c0-13.576-11.044-24.62-24.619-24.62zm9.619 432.099c0 8.768-7.133 15.9-15.9 15.9-4.398 0-8.489-1.755-11.521-4.941s-4.58-7.36-4.36-11.753l6.771-135.431c.179-3.577-2.197-6.782-5.672-7.65l-18-4.5c-4.24-1.06-6.971-5.122-6.353-9.449l35.86-251.016c.672-4.708 4.767-8.259 9.523-8.259h.032c5.304 0 9.62 4.315 9.62 9.62v407.479zM286.992 7.125c-.207-4.137-3.735-7.315-7.865-7.116-4.137.207-7.323 3.728-7.116 7.865l6.406 128.125h-23.416v-128.499c0-4.142-3.358-7.5-7.5-7.5-4.142 0-7.5 3.358-7.5 7.5v128.5h-23.416l6.405-128.125c.207-4.137-2.979-7.658-7.116-7.865-4.136-.21-7.658 2.979-7.865 7.116l-7.546 150.927c-.411 8.22 3.588 16.162 10.436 20.727l9.062 6.041c2.455 1.637 3.868 4.375 3.781 7.324l-7.072 239.157c-.233 8.397 2.864 16.338 8.72 22.36 5.857 6.022 13.709 9.339 22.11 9.339s16.253-3.316 22.11-9.339c5.856-6.022 8.954-13.963 8.72-22.373l-7.071-239.144c-.087-2.949 1.327-5.687 3.781-7.324l9.062-6.041c6.847-4.565 10.846-12.507 10.435-20.727l-7.545-150.928zm-11.209 159.173l-9.062 6.041c-6.787 4.524-10.695 12.094-10.454 20.248l7.071 239.131c.12 4.313-1.471 8.392-4.479 11.485-3.009 3.093-7.042 4.797-11.357 4.797s-8.349-1.704-11.357-4.797c-3.008-3.093-4.599-7.172-4.479-11.472l7.071-239.144c.241-8.154-3.667-15.723-10.454-20.248l-9.062-6.041c-2.477-1.651-3.923-4.524-3.774-7.497l.39-7.802h63.331l.39 7.802c.148 2.973-1.298 5.846-3.775 7.497zM119.501 0c-15.626 0-37.258 7.845-51.572 45.22-8.804 22.986-11.928 50.071-11.928 66.28 0 22.316 11.389 42.587 30.465 54.226 5.306 3.238 8.388 8.709 8.244 14.635l-6.121 250.963c-.205 8.4 2.914 16.337 8.783 22.351 5.868 6.013 13.727 9.325 22.129 9.325s16.262-3.312 22.13-9.325c5.869-6.013 8.988-13.951 8.783-22.351l-6.122-250.962c-.144-5.927 2.938-11.398 8.244-14.636 19.077-11.639 30.465-31.911 30.465-54.226 0-16.209-3.124-43.293-11.928-66.28-14.313-37.375-35.945-45.22-51.572-45.22zm25.221 152.921c-9.787 5.972-15.698 16.626-15.426 27.806l6.121 250.962c.106 4.325-1.5 8.412-4.522 11.508-3.022 3.097-7.069 4.802-11.395 4.802s-8.373-1.705-11.395-4.801c-3.022-3.096-4.628-7.184-4.522-11.509l6.121-250.962c.273-11.179-5.638-21.834-15.426-27.806-14.576-8.893-23.278-24.378-23.278-41.421 0-31.485 11.855-96.5 48.5-96.5s48.5 65.015 48.5 96.5c.001 17.043-8.7 32.528-23.278 41.421z"/></svg>