<svg xmlns="http://www.w3.org/2000/svg" viewBox="0 0 511.999 511.999" enable-background="new 0 0 511.999 511.999"><path d="M214.685 402.828c-24.829 0-45.029 20.2-45.029 45.029 0 24.829 20.2 45.029 45.029 45.029s45.029-20.2 45.029-45.029c-.001-24.829-20.201-45.029-45.029-45.029zm0 64.914c-10.966 0-19.887-8.922-19.887-19.887 0-10.966 8.922-19.887 19.887-19.887s19.887 8.922 19.887 19.887c0 10.967-8.922 19.887-19.887 19.887zM372.63 402.828c-24.829 0-45.029 20.2-45.029 45.029 0 24.829 20.2 45.029 45.029 45.029s45.029-20.2 45.029-45.029c-.001-24.829-20.201-45.029-45.029-45.029zm0 64.914c-10.966 0-19.887-8.922-19.887-19.887 0-10.966 8.922-19.887 19.887-19.887 10.966 0 19.887 8.922 19.887 19.887 0 10.967-8.922 19.887-19.887 19.887zM383.716 165.755h-180.149c-6.943 0-12.571 5.628-12.571 12.571s5.629 12.571 12.571 12.571h180.149c6.943 0 12.571-5.628 12.571-12.571 0-6.944-5.628-12.571-12.571-12.571zM373.911 231.035h-160.538c-6.943 0-12.571 5.628-12.571 12.571s5.628 12.571 12.571 12.571h160.537c6.943 0 12.571-5.628 12.571-12.571 0-6.942-5.628-12.571-12.57-12.571zM506.341 109.744c-4.794-5.884-11.898-9.258-19.489-9.258h-391.574l-7.908-38.389c-1.651-8.008-7.113-14.732-14.614-17.989l-55.177-23.95c-6.37-2.767-13.773.156-16.536 6.524-2.766 6.37.157 13.774 6.524 16.537l55.178 23.951 60.826 295.261c2.396 11.628 12.752 20.068 24.625 20.068h301.166c6.943 0 12.571-5.628 12.571-12.571s-5.628-12.571-12.571-12.571h-301.165l-7.399-35.916h310.892c11.872 0 22.229-8.44 24.624-20.068l35.163-170.675c1.531-7.432-.341-15.071-5.136-20.954zm-54.651 186.557h-316.071l-35.161-170.674 386.393.001-35.161 170.673z"/></svg>