<svg xmlns="http://www.w3.org/2000/svg" viewBox="0 0 512 512" enable-background="new 0 0 512 512"><path d="M284.369 411.797l-59.429-23.771v-22.108c33.173-14.995 56.929-47.269 59.709-85.28h1.342c13.585 0 24.638-11.052 24.638-24.638 0-10.972-7.208-20.291-17.138-23.471v-36.512c0-20.23-6.374-39.474-18.434-55.649-11.763-15.779-27.838-27.241-46.498-33.172l-38.373-102.329c-1.098-2.928-3.896-4.867-7.022-4.867s-5.925 1.939-7.022 4.867l-38.374 102.331c-18.394 5.849-34.895 17.613-46.49 33.16-12.064 16.178-18.441 35.425-18.441 55.66v36.512c-9.93 3.18-17.138 12.499-17.138 23.471 0 13.585 11.053 24.638 24.638 24.638h1.342c2.78 38.011 26.536 70.285 59.709 85.28v22.108l-59.429 23.771c-15.953 6.382-26.261 21.607-26.261 38.788v53.914c0 4.142 3.358 7.5 7.5 7.5 4.142 0 7.5-3.358 7.5-7.5v-53.915c0-11.012 6.607-20.771 16.832-24.861l53.937-21.575c1.287 21.886 19.493 39.299 41.697 39.299 22.203 0 40.409-17.413 41.696-39.299l53.938 21.575c10.225 4.09 16.832 13.849 16.832 24.861v53.915c0 4.142 3.358 7.5 7.5 7.5 4.142 0 7.5-3.358 7.5-7.5v-53.915c0-17.181-10.308-32.406-26.261-38.788zm-60.614-274.693h-34.884l28.623-16.697 6.261 16.697zm-40.591-108.244l7.898 21.063-20.216 11.784 12.318-32.847zm-20.65 55.065l33.891-19.754 5.198 13.862-47.207 27.539 8.118-21.647zm-16.453 43.876l60.885-35.519 5.204 13.877-53.049 30.945h-16.529l3.489-9.303zm63.878 273.871c0 14.764-12.012 26.776-26.776 26.776s-26.776-12.012-26.776-26.776v-30.351c8.535 2.33 17.512 3.575 26.776 3.575s18.241-1.246 26.776-3.575v30.351zm-26.773-41.776c-47.839 0-86.761-38.919-86.761-86.758 0-4.142-3.358-7.5-7.5-7.5h-8.569c-5.314 0-9.638-4.323-9.638-9.638s4.324-9.638 9.638-9.638h13.354c10.622 0 20.015-6.77 23.374-16.847l2.99-8.97c8.2-.265 24.879-1.171 44.97-4.262 38.046-5.853 68.613-16.338 90.851-31.164 3.447-2.298 4.378-6.954 2.08-10.401s-6.955-4.377-10.4-2.08c-48.885 32.59-132.11 33.016-132.943 33.016-3.228 0-6.094 2.066-7.115 5.128l-4.663 13.989c-1.314 3.942-4.988 6.59-9.143 6.59h-5.854v-35.345c0-29.976 16.756-56.627 42.783-69.759l-5.892 15.712c-.864 2.303-.543 4.884.858 6.905 1.401 2.022 3.705 3.228 6.165 3.228h102.828c2.46 0 4.763-1.206 6.165-3.228 1.401-2.022 1.722-4.602.858-6.906l-5.892-15.712c26.026 13.133 42.783 39.786 42.783 69.759v35.345h-5.854c-4.155 0-7.829-2.648-9.143-6.59l-4.663-13.988c-1.31-3.929-5.555-6.053-9.487-4.743-3.929 1.31-6.053 5.557-4.743 9.487l4.663 13.988c3.358 10.077 12.751 16.847 23.374 16.847h13.354c5.314 0 9.638 4.323 9.638 9.638s-4.324 9.638-9.638 9.638h-8.569c-4.142 0-7.5 3.358-7.5 7.5 0 47.839-38.92 86.759-86.759 86.759zM140.319 248.5c-4.142 0-7.5 3.358-7.5 7.5v8.569c0 4.142 3.358 7.5 7.5 7.5 4.142 0 7.5-3.358 7.5-7.5v-8.569c0-4.142-3.358-7.5-7.5-7.5zM226.009 248.5c-4.142 0-7.5 3.358-7.5 7.5v8.569c0 4.142 3.358 7.5 7.5 7.5 4.142 0 7.5-3.358 7.5-7.5v-8.569c0-4.142-3.358-7.5-7.5-7.5zM214.665 302.652c-2.63-3.2-7.356-3.662-10.556-1.031-5.306 4.361-12.94 6.863-20.945 6.863s-15.638-2.501-20.944-6.863c-3.199-2.63-7.926-2.168-10.556 1.031-2.63 3.2-2.168 7.926 1.032 10.556 8.061 6.626 18.882 10.275 30.469 10.275 11.586 0 22.407-3.649 30.468-10.275 3.2-2.63 3.662-7.356 1.032-10.556zM120.852 474.633l-17.138-25.707c-2.297-3.447-6.955-4.378-10.4-2.08-3.447 2.297-4.378 6.954-2.08 10.4l15.878 23.817v23.437c0 4.142 3.358 7.5 7.5 7.5 4.142 0 7.5-3.358 7.5-7.5v-25.707c0-1.481-.438-2.928-1.26-4.16zM273.014 446.846c-3.445-2.297-8.103-1.367-10.4 2.08l-17.138 25.707c-.821 1.232-1.26 2.679-1.26 4.16v25.707c0 4.142 3.358 7.5 7.5 7.5 4.142 0 7.5-3.358 7.5-7.5v-23.436l15.878-23.817c2.298-3.447 1.366-8.103-2.08-10.401zM371.681 0c-46.66 0-84.621 37.961-84.621 84.621 0 34.751 8.394 68.062 23.635 93.796 12.001 20.264 27.063 33.748 43.539 39.328l-6.967 27.867c-.561 2.24-.057 4.614 1.364 6.435 1.421 1.821 3.602 2.885 5.912 2.885h9.638v139.241h-9.638c-13.585 0-24.638 11.053-24.638 24.638v34.276c0 10.971 7.209 20.286 17.138 23.467v27.946c0 4.142 3.358 7.5 7.5 7.5 4.142 0 7.5-3.358 7.5-7.5v-26.776h9.638c3.418 0 6.676-.701 9.638-1.965v28.741c0 4.142 3.358 7.5 7.5 7.5 4.142 0 7.5-3.358 7.5-7.5v-102.828c0-4.142-3.358-7.5-7.5-7.5h-9.638v-139.241h9.638c2.31 0 4.49-1.064 5.912-2.884 1.421-1.821 1.925-4.194 1.364-6.435l-6.967-27.867c16.476-5.58 31.538-19.064 43.539-39.328 15.242-25.735 23.635-59.045 23.635-93.796 0-46.66-37.961-84.621-84.621-84.621zm9.638 409.172v43.914c0 5.314-4.323 9.638-9.638 9.638h-17.138c-5.314 0-9.638-4.323-9.638-9.638v-34.276c0-5.314 4.323-9.638 9.638-9.638h26.776zm-17.17-169.241l4.819-19.276h5.426l4.819 19.276h-15.064zm55.611-69.158c-13.322 22.494-30.397 34.882-48.079 34.882-17.683 0-34.757-12.388-48.08-34.882-13.689-23.115-21.541-54.516-21.541-86.152 0-38.389 31.231-69.621 69.621-69.621s69.621 31.232 69.621 69.621c0 31.636-7.852 63.037-21.542 86.152zM421.013 74.547c-4.759-23.335-25.506-40.271-49.332-40.271-4.142 0-7.5 3.358-7.5 7.5 0 4.142 3.358 7.5 7.5 7.5 16.728 0 31.293 11.889 34.634 28.269.725 3.553 3.85 6.003 7.341 6.003.497 0 1.001-.05 1.506-.153 4.059-.828 6.678-4.789 5.851-8.848z"/></svg>