<svg xmlns="http://www.w3.org/2000/svg" viewBox="0 0 512 512" enable-background="new 0 0 512 512"><path d="M504.899 297.472c-7.174-10.023-19.124-16.759-31.189-17.578-9.847-.668-18.77 2.662-25.118 9.381-1.393 1.474-2.896 3.093-4.486 4.827-7.023-6.433-16.225-10.573-25.504-11.204-9.851-.666-18.77 2.662-25.118 9.381-13.818 14.628-38.283 43.199-57.496 65.944-2.506-1.482-5.188-2.705-8.024-3.621-9.185-3.955-135.785-58.023-191.903-58.023-90.65 0-132.295 48.723-134.024 50.798-2.651 3.181-2.221 7.899.952 10.561 3.174 2.661 7.909 2.244 10.58-.922.096-.113 9.825-11.504 29.697-22.729 18.317-10.346 49.284-22.678 92.795-22.678 53.913 0 184.971 56.371 186.289 56.94.242.105.49.197.742.276 6.259 1.953 11.383 6.227 14.428 12.034 3.045 5.806 3.646 12.452 1.692 18.712-1.838 5.887-5.949 10.997-11.316 14.036-6.006 3.401-13.092 3.815-19.673 2.013l-81.995-22.583c-4.001-1.099-8.139 1.248-9.241 5.25-1.102 4.001 1.248 8.138 5.249 9.24l81.881 22.551c16.143 4.979 34.207-1.124 43.965-14.921 2.395-3.387 4.241-7.151 5.477-11.11 1.028-3.292 1.609-6.652 1.765-10.009l21.992-2.315c1.946-.205 3.736-1.161 4.989-2.665.542-.651 54.466-65.387 77.212-89.464 9.455-10.009 26.334-2.914 33.161 6.624 10.497 14.666-2.548 30.678-6.796 35.237-20.876 22.399-59.157 68.544-66.037 76.861l-155.801 77.901-149.112-62.784c-.923-.389-1.915-.589-2.917-.589h-104.204c-4.15 0-7.515 3.365-7.515 7.515 0 4.15 3.365 7.515 7.515 7.515h102.686l150.899 63.536c.934.394 1.926.589 2.916.589 1.153 0 2.306-.266 3.361-.794l160.313-80.157c.938-.469 1.767-1.129 2.435-1.938.44-.533 44.258-53.594 66.455-77.409 16.342-17.532 19.416-38.313 8.023-54.229zm-132.187 79.624l-19.58 2.061c-1.388-3.93-3.389-7.623-5.913-10.938 16.366-19.374 42.962-50.555 57.192-65.617 4.112-4.352 9.439-4.959 13.173-4.708 5.892.401 11.932 3.18 16.475 7.383-22.547 25.452-53.243 62.113-61.347 71.819zM424.625 152.297h-64.626v-85.166c0-4.15-3.364-7.515-7.515-7.515s-7.515 3.365-7.515 7.515v92.681c0 4.15 3.364 7.515 7.515 7.515h51.827l-148.015 126.87-148.015-126.87h51.827c4.15 0 7.515-3.365 7.515-7.515v-144.783h177.347v17.534c0 4.15 3.364 7.515 7.515 7.515s7.515-3.365 7.515-7.515v-25.048c0-4.15-3.364-7.515-7.515-7.515h-192.376c-4.15 0-7.515 3.365-7.515 7.515v144.783h-64.626c-6.815 0-10.078 8.774-4.891 13.22l168.329 144.282c2.78 2.383 7.001 2.383 9.781 0l168.329-144.282c5.187-4.447 1.925-13.221-4.891-13.221zM309.704 50.295c-2.936-2.935-7.693-2.935-10.628 0l-96.188 96.188c-4.629 4.628-1.257 12.828 5.314 12.828 1.923 0 3.847-.733 5.313-2.201l96.188-96.188c2.936-2.935 2.936-7.693.001-10.627zM296.375 112.219c-12.983 0-23.546 10.563-23.546 23.546 0 12.983 10.563 23.546 23.546 23.546 12.983 0 23.546-10.563 23.546-23.546 0-12.983-10.563-23.546-23.546-23.546zm0 32.063c-4.696 0-8.517-3.82-8.517-8.517s3.82-8.517 8.517-8.517c4.696 0 8.517 3.82 8.517 8.517s-3.821 8.517-8.517 8.517zM216.218 48.094c-12.983 0-23.546 10.563-23.546 23.546 0 12.983 10.563 23.546 23.546 23.546 12.983 0 23.546-10.563 23.546-23.546 0-12.983-10.562-23.546-23.546-23.546zm0 32.063c-4.696 0-8.517-3.82-8.517-8.517s3.82-8.517 8.517-8.517 8.517 3.82 8.517 8.517-3.821 8.517-8.517 8.517z"/></svg>