<svg xmlns="http://www.w3.org/2000/svg" viewBox="0 0 512 512" width="512" height="512"><path d="M156.968 264.041c4.142 0 7.5-3.358 7.5-7.5 0-50.411 41.012-91.423 91.423-91.423 4.142 0 7.5-3.358 7.5-7.5s-3.358-7.5-7.5-7.5c-58.682 0-106.423 47.741-106.423 106.423 0 4.142 3.358 7.5 7.5 7.5zM263.392 115.5c0-4.142-3.358-7.5-7.5-7.5-81.905 0-148.541 66.635-148.541 148.541 0 4.142 3.358 7.5 7.5 7.5s7.5-3.358 7.5-7.5c0-73.634 59.906-133.541 133.541-133.541 4.142 0 7.5-3.358 7.5-7.5zM472.844 0h-433.688c-21.591 0-39.156 17.565-39.156 39.156v433.688c0 21.591 17.565 39.156 39.156 39.156h433.688c21.591 0 39.156-17.565 39.156-39.156v-433.688c0-21.591-17.565-39.156-39.156-39.156zm24.156 472.844c0 13.32-10.836 24.156-24.156 24.156h-433.688c-13.32 0-24.156-10.836-24.156-24.156v-433.688c0-13.32 10.836-24.156 24.156-24.156h433.688c13.32 0 24.156 10.836 24.156 24.156v433.688zM256 318.294c34.36 0 62.314-27.954 62.314-62.314s-27.954-62.314-62.314-62.314-62.314 27.954-62.314 62.314 27.954 62.314 62.314 62.314zm0-109.628c26.089 0 47.314 21.225 47.314 47.314s-21.225 47.314-47.314 47.314-47.314-21.225-47.314-47.314 21.225-47.314 47.314-47.314zM256 280.459c13.499 0 24.48-10.981 24.48-24.479 0-13.499-10.981-24.48-24.48-24.48-13.498 0-24.479 10.981-24.479 24.48 0 13.498 10.981 24.479 24.479 24.479zm0-33.959c5.227 0 9.48 4.253 9.48 9.48s-4.253 9.479-9.48 9.479-9.479-4.252-9.479-9.479 4.252-9.48 9.479-9.48zM437.5 46.055c-20.033 0-36.331 16.298-36.331 36.331 0 14.766 8.855 27.503 21.533 33.179l-31.607 137.865c-3.155 14.003-8.759 27.063-16.687 38.908-7.983-2.845-17.256-1.123-23.698 5.203l-23.93 23.507c-8.98 8.821-9.109 23.305-.288 32.286 4.327 4.405 10.111 6.831 16.288 6.831 6.021 0 11.702-2.324 15.998-6.543l23.93-23.507c7.75-7.613 8.908-19.443 3.409-28.314 9.359-13.676 15.947-28.808 19.605-45.046l31.647-138.038.13.001c20.033 0 36.331-16.298 36.331-36.331.001-20.034-16.297-36.332-36.33-36.332zm-65.304 273.358l-23.93 23.507c-1.474 1.447-3.422 2.244-5.487 2.244-2.119 0-4.103-.832-5.586-2.342-3.025-3.081-2.981-8.048.099-11.074l23.928-23.506c1.523-1.495 3.506-2.241 5.489-2.241 2.028 0 4.056.781 5.586 2.339 3.026 3.08 2.981 8.047-.099 11.073zm65.304-215.697c-.296 0-.59-.006-.883-.018-2.116-.932-4.852-1.528-7.103-1.533-7.817-3.168-13.344-10.84-13.344-19.78 0-11.762 9.569-21.331 21.331-21.331s21.331 9.569 21.331 21.331c-.001 11.762-9.57 21.331-21.332 21.331zM62.242 422.626c-15.119 0-27.419 12.3-27.419 27.419s12.3 27.419 27.419 27.419 27.419-12.3 27.419-27.419-12.3-27.419-27.419-27.419zm0 39.838c-6.848 0-12.419-5.571-12.419-12.419s5.571-12.419 12.419-12.419 12.419 5.571 12.419 12.419-5.571 12.419-12.419 12.419zM129.181 422.626c-15.119 0-27.419 12.3-27.419 27.419s12.3 27.419 27.419 27.419 27.419-12.3 27.419-27.419-12.301-27.419-27.419-27.419zm0 39.838c-6.848 0-12.419-5.571-12.419-12.419s5.571-12.419 12.419-12.419 12.419 5.571 12.419 12.419-5.572 12.419-12.419 12.419zM428.525 193.087c-3.947 1.257-6.127 5.477-4.869 9.423 5.488 17.223 8.271 35.213 8.271 53.47 0 97.006-78.92 175.926-175.926 175.926s-175.927-78.92-175.927-175.926c0-97.006 78.92-175.927 175.926-175.927 28.183 0 55.103 6.461 80.01 19.203 23.767 12.158 44.814 29.909 60.868 51.332 2.484 3.315 7.186 3.989 10.5 1.504 3.315-2.484 3.988-7.185 1.504-10.5-17.416-23.24-40.251-42.498-66.04-55.69-27.043-13.834-56.26-20.849-86.842-20.849-105.277 0-190.926 85.649-190.926 190.927 0 105.277 85.649 190.926 190.926 190.926s190.926-85.649 190.926-190.926c0-19.804-3.021-39.326-8.979-58.023-1.256-3.947-5.477-6.125-9.422-4.87z"/></svg>