<svg xmlns="http://www.w3.org/2000/svg" viewBox="0 0 55.25 55.25" enable-background="new 0 0 55.25 55.25"><path d="M52.618 2.631c-3.51-3.508-9.219-3.508-12.729 0l-36.062 36.062-.042.056-.058.076-.125.239-.029.075-.012.03-3.535 14.85-.022.202-.004.038c.001.114.026.225.065.332l.03.071c.049.107.11.21.196.296.095.095.207.168.328.218.121.05.25.075.379.075l.231-.027 14.85-3.535.077-.03.099-.039.201-.123.072-.054.026-.02 36.063-36.063c3.51-3.51 3.51-9.22.001-12.729zm-1.414 1.414c2.488 2.489 2.7 6.397.65 9.137l-9.787-9.787c2.741-2.05 6.649-1.838 9.137.65zm-4.95 14.85l-9.9-9.9 1.414-1.414 9.9 9.9-1.414 1.414zm-41.293 31.393c-.391-.391-1.023-.391-1.414 0l-.757.757 2.554-10.728 4.422-.491-.569 5.122.01.11-.01.11.028.092.05.165.095.181.1.127.157.134.138.084.207.066.108.035.109.006h.004l.109-.006 5.122-.569-.491 4.422-10.729 2.554.757-.757c.39-.39.39-1.023 0-1.414zm12.55-5.479l22.378-22.379c.391-.391.391-1.023 0-1.414s-1.023-.391-1.414 0l-22.378 22.379-4.773.53.53-4.773 22.38-22.378c.391-.391.391-1.023 0-1.414s-1.023-.391-1.414 0l-22.38 22.378-3.183.354 27.683-27.683 9.9 9.9-27.683 27.683.354-3.183zm31.571-28.742l-9.9-9.9 1.415-1.415 9.9 9.9-1.415 1.415z"/></svg>