<svg xmlns="http://www.w3.org/2000/svg" viewBox="0 0 512 512" enable-background="new 0 0 512 512"><path d="M492.986 205.697c-9.551-45.973-32.129-87.829-65.534-121.344-33.458-33.568-75.318-56.306-121.343-65.984-3.409-10.642-13.394-18.369-25.153-18.369h-49.913c-11.759 0-21.744 7.727-25.153 18.369-46.04 9.68-87.91 32.428-121.372 66.013-33.389 33.511-55.956 75.356-65.505 121.315-10.971 3.206-19.013 13.352-19.013 25.347v49.913c0 12.12 8.21 22.353 19.36 25.445 10.85 50.29 38.001 96.525 76.893 130.712 1.556 1.369 3.486 2.041 5.408 2.041 2.275 0 4.539-.942 6.159-2.786 2.989-3.399 2.655-8.578-.745-11.567-35.123-30.874-59.975-72.276-70.692-117.438h71.08c.438 0 .873-.012 1.306-.033 7.778 21.951 20.495 42.093 37.107 58.617 16.616 16.529 36.829 29.14 58.827 36.799-.04.592-.067 1.187-.067 1.789v70.498c-23.757-5.521-46.323-14.824-67.191-27.733-3.848-2.382-8.9-1.193-11.282 2.659-2.382 3.85-1.192 8.901 2.659 11.282 23.707 14.666 49.454 25.004 76.607 30.77 2.875 11.468 13.267 19.988 25.615 19.988h49.913c12.349 0 22.741-8.521 25.615-19.991 45.874-9.744 87.621-32.491 120.951-65.96 32.948-33.085 55.379-74.351 65.118-119.648 11.149-3.092 19.359-13.324 19.359-25.445v-49.913c0-11.994-8.041-22.14-19.014-25.346zm-271.957-179.289c0-5.522 4.493-10.015 10.015-10.015h49.913c5.522 0 10.015 4.493 10.015 10.015v81.055c0 5.522-4.493 10.015-10.015 10.015h-49.913c-5.522 0-10.015-4.493-10.015-10.015v-81.055zm-103.551 254.549c0 3.611-1.928 6.772-4.802 8.534-.28.053-.559.119-.838.202-.805.24-1.544.593-2.208 1.036-.699.155-1.422.243-2.167.243h-81.055c-5.522 0-10.015-4.493-10.015-10.015v-49.913c0-5.522 4.493-10.015 10.015-10.015h81.055c5.522 0 10.015 4.493 10.015 10.015v49.913zm173.494 204.635h-.001c0 5.522-4.493 10.015-10.015 10.015h-49.913c-5.522 0-10.015-4.493-10.015-10.015v-81.055c0-1.12.193-2.193.534-3.2.298-.523.558-1.073.74-1.673 1.715-3.064 4.989-5.142 8.742-5.142h49.913c5.522 0 10.015 4.493 10.015 10.015v81.055zm10.171-98.053c-4.848-5.748-12.097-9.409-20.187-9.409h-49.913c-8.089 0-15.335 3.659-20.183 9.404-19.982-6.827-38.353-18.216-53.423-33.207-14.975-14.896-26.41-33.068-33.357-52.866 5.968-4.846 9.791-12.236 9.791-20.505v-49.913c0-8.46-4.003-15.997-10.209-20.833 7.986-23.502 22.08-44.43 41.053-60.81 3.426-2.957 3.806-8.133.847-11.56-2.958-3.426-8.132-3.806-11.56-.847-21.116 18.23-36.82 41.511-45.761 67.663l-.779-.02h-71.438c9.396-41.104 30.046-78.512 60.108-108.683 30.072-30.182 67.419-50.973 108.504-60.517v72.027l.007.279c-8.794 3.064-17.334 6.912-25.453 11.507-3.939 2.229-5.326 7.231-3.096 11.171 1.508 2.664 4.283 4.16 7.141 4.16 1.367 0 2.755-.343 4.03-1.064 7.223-4.088 14.817-7.514 22.636-10.247 4.821 6.433 12.504 10.603 21.143 10.603h49.913c8.637 0 16.319-4.168 21.14-10.599 19.871 6.95 38.108 18.422 53.045 33.454 14.995 15.091 26.381 33.483 33.193 53.487-6.204 4.836-10.206 12.373-10.206 20.831v49.913c0 8.271 3.825 15.663 9.795 20.508-14.188 40.605-46.054 72.218-86.781 86.073zm114.764 26.943c-30.055 30.179-67.441 51.008-108.543 60.561v-70.505c0-.602-.027-1.197-.068-1.79 21.972-7.652 42.178-20.251 58.779-36.75 16.629-16.527 29.37-36.697 37.155-58.666.433.021.868.033 1.307.033h71.083c-9.556 40.483-30.066 77.348-59.713 107.117zm79.7-133.526c0 5.522-4.493 10.015-10.015 10.015h-81.055c-5.522 0-10.015-4.493-10.015-10.015v-49.913c0-5.522 4.493-10.015 10.015-10.015h22.678c4.527 0 8.196-3.669 8.196-8.196 0-4.527-3.669-8.196-8.196-8.196h-22.678l-.78.02c-7.626-22.249-20.307-42.699-36.987-59.484-16.72-16.827-37.149-29.661-59.412-37.423l.007-.285v-72.028c41.07 9.54 78.409 30.322 108.477 60.489 30.075 30.174 50.735 67.594 60.135 108.711h-15.066c-4.527 0-8.196 3.669-8.196 8.196 0 4.527 3.669 8.196 8.196 8.196h24.681c5.522 0 10.015 4.493 10.015 10.015v49.913z"/></svg>