<svg xmlns="http://www.w3.org/2000/svg" viewBox="0 0 512 512" enable-background="new 0 0 512 512"><path d="M306.716 491.922h-210.912c-11.02 0-21.029-9.649-21.029-20.669v-431.863c0-11.02 10.01-19.311 21.029-19.311h210.912c5.549 0 10.039-4.49 10.039-10.039 0-5.55-4.49-10.04-10.039-10.04h-210.912c-22.098 0-41.108 17.292-41.108 39.39v431.863c0 22.098 19.01 40.748 41.108 40.748h210.912c5.549 0 10.039-4.49 10.039-10.039s-4.49-10.04-10.039-10.04zM447.265 240.941h-218.4l75.272-83.976c3.706-4.118 3.373-10.642-.745-14.348-4.127-3.706-10.461-3.456-14.176.662l-90.353 100.348-.36.468c-.23.289-.456.564-.655.877-.157.25-.284.507-.419.767-.157.306-.316.608-.443.934-.115.296-.194.596-.28.9-.086.311-.184.615-.24.939-.066.363-.086.728-.113 1.096-.015.235-.069.456-.069.694l.015.142c.005.412.066.821.123 1.228.034.24.037.485.086.718.083.387.226.76.353 1.135.247.73.561 1.424.961 2.066l.162.299c.373.554.797 1.068 1.267 1.537l90.328 90.326c1.961 1.961 4.529 2.941 7.098 2.941 2.568 0 5.137-.98 7.098-2.941 3.922-3.922 3.922-9.934 0-13.855l-73.216-72.878h216.706c5.549 0 10.039-4.49 10.039-10.039 0-5.55-4.49-10.04-10.039-10.04z"/></svg>