<svg xmlns="http://www.w3.org/2000/svg" viewBox="0 0 511 511" width="512" height="512" enable-background="new 0 0 511 511"><path d="M436.166 74.834c-48.258-48.258-112.419-74.834-180.666-74.834s-132.408 26.576-180.666 74.834-74.834 112.419-74.834 180.666 26.576 132.408 74.834 180.666 112.419 74.834 180.666 74.834 132.408-26.576 180.666-74.834 74.834-112.419 74.834-180.666-26.576-132.408-74.834-180.666zm-180.666 421.166c-132.612 0-240.5-107.888-240.5-240.5s107.888-240.5 240.5-240.5 240.5 107.888 240.5 240.5-107.888 240.5-240.5 240.5zM215.5 255h72c26.191 0 47.5-21.309 47.5-47.5s-21.309-47.5-47.5-47.5h-72c-4.143 0-7.5 3.357-7.5 7.5v80c0 4.143 3.357 7.5 7.5 7.5zm7.5-80h64.5c17.921 0 32.5 14.579 32.5 32.5s-14.579 32.5-32.5 32.5h-64.5v-65zM287.5 112h-96c-17.369 0-31.5 14.131-31.5 31.5v179.823c0 4.143 3.357 7.5 7.5 7.5s7.5-3.357 7.5-7.5v-179.823c0-9.098 7.402-16.5 16.5-16.5h96c44.388 0 80.5 36.112 80.5 80.5s-36.112 80.5-80.5 80.5h-72c-4.143 0-7.5 3.357-7.5 7.5v96.5h-33v-33.383c0-4.143-3.357-7.5-7.5-7.5s-7.5 3.357-7.5 7.5v40.883c0 4.143 3.357 7.5 7.5 7.5h48c4.143 0 7.5-3.357 7.5-7.5v-96.5h64.5c52.659 0 95.5-42.841 95.5-95.5s-42.841-95.5-95.5-95.5z"/></svg>