<svg xmlns="http://www.w3.org/2000/svg" viewBox="0 0 470 470" enable-background="new 0 0 470 470"><path d="M130.447 126.5h209.106c4.142 0 7.5-3.358 7.5-7.5 0-27.979-22.762-50.741-50.741-50.741-1.747 0-3.491.09-5.225.268-8.798-22.994-30.961-38.527-56.087-38.527s-47.289 15.533-56.087 38.527c-1.734-.178-3.479-.268-5.225-.268-27.979 0-50.741 22.762-50.741 50.741 0 4.142 3.358 7.5 7.5 7.5zm43.24-43.241c2.9 0 5.79.35 8.589 1.04 3.996.987 8.044-1.437 9.062-5.426 5.093-19.944 23.048-33.873 43.662-33.873s38.569 13.929 43.662 33.873c1.019 3.991 5.069 6.415 9.062 5.426 2.799-.69 5.689-1.04 8.589-1.04 17.136 0 31.494 12.122 34.949 28.241h-192.524c3.456-16.119 17.814-28.241 34.949-28.241zM401.17 68.83c-44.385-44.386-103.399-68.83-166.17-68.83s-121.785 24.444-166.17 68.83c-44.386 44.385-68.83 103.399-68.83 166.17s24.444 121.785 68.83 166.17c44.385 44.386 103.399 68.83 166.17 68.83s121.785-24.444 166.17-68.83c44.386-44.385 68.83-103.399 68.83-166.17s-24.444-121.785-68.83-166.17zm-166.17 386.17c-121.309 0-220-98.691-220-220s98.691-220 220-220 220 98.691 220 220-98.691 220-220 220z"/><circle cx="150.947" cy="367.329" r="7.5"/><circle cx="132.947" cy="337.329" r="7.5"/><circle cx="350.156" cy="301.829" r="7.5"/><path d="M423.008 309.086l-92.186-159.659c-1.34-2.321-3.816-3.75-6.495-3.75-2.68 0-5.155 1.43-6.495 3.75l-72.006 124.719c-2.071 3.587-.842 8.174 2.745 10.245 3.585 2.071 8.174.842 10.245-2.745l16.119-27.919 19.1 14.131c2.651 1.961 6.271 1.961 8.922 0l21.368-15.81 21.371 15.81c1.325.98 2.893 1.471 4.46 1.471s3.135-.49 4.46-1.471l19.106-14.134 34.391 59.564c-7.445 16.398-17.192 31.657-29.008 45.402-2.7 3.141-2.343 7.876.798 10.577 1.416 1.217 3.155 1.813 4.886 1.813 2.11 0 4.208-.886 5.691-2.611 13.625-15.851 24.701-33.57 32.921-52.667.937-2.176.791-4.665-.393-6.716zm-72.852-56.586l-21.372-15.81c-2.65-1.961-6.271-1.961-8.921 0l-21.367 15.81-16.012-11.847 41.844-72.476 41.846 72.474-16.018 11.849zM358.688 379.102c-34.432 29.598-78.358 45.898-123.688 45.898-74.732 0-142.272-43.719-173.114-111.711l34.392-59.563 19.103 14.133c2.651 1.961 6.271 1.961 8.922 0l21.368-15.81 21.371 15.81c1.325.98 2.893 1.471 4.46 1.471 1.568 0 3.135-.49 4.46-1.471l19.102-14.132 83.622 144.837c2.071 3.587 6.658 4.817 10.245 2.745 3.587-2.071 4.816-6.658 2.745-10.245l-139.508-241.637c-1.34-2.32-3.815-3.75-6.495-3.75-2.679 0-5.155 1.43-6.495 3.75l-92.186 159.659c-1.184 2.051-1.33 4.54-.394 6.715 32.477 75.449 106.429 124.199 188.402 124.199 48.916 0 96.315-17.587 133.466-49.523 3.141-2.7 3.499-7.436.798-10.577-2.701-3.14-7.435-3.497-10.576-.798zm-213.015-210.925l41.844 72.476-16.015 11.847-21.372-15.81c-2.65-1.961-6.271-1.961-8.921 0l-21.368 15.81-16.015-11.849 41.847-72.474z"/></svg>