<svg xmlns="http://www.w3.org/2000/svg" viewBox="0 0 730 159" enable-background="new 0 0 730 159"><path d="M175.9 122.6c-1.4 0-2.8-.4-4.2-.6-15.1-2.1-26.6-10.1-35.6-22-4-5.3-7.6-10.9-11.5-16.3-2.5-3.4-4.9-6.8-8.8-8.8-.7-.3-1.7-.6-2.3-1.1-.3-.3-.1-.3.2-.5.6-.1 1.1-.1 1.6-.2l2.7-.2c8.1-1.6 13.5-8.3 14-16.2.6-9-3.3-14.8-11.8-18-5.1-1.9-10.3-2.5-15.7-2.5h-35.7c-.6 0-1 1.1-.6 1.4 2 1.5 3.2 3.3 3.2 6v54.7c0 2.8-1.2 4.7-3.3 6.2-.4.3-1.1.5-1.1 1 0 .4.4.3.8.3h27.2c2.2 0 .9-.8.6-.9-3.2-1.5-4.3-4-4.3-7.4v-50.2c0-1.5-.1-3 0-4.4.1-1.6.5-2 2.1-2.1 1.2-.1 2.5 0 3.7 0 3.9.1 7.2 1.5 9.9 4.2 3.7 3.6 4.3 8 3.9 12.9-.4 5.5-5.3 12.1-12.3 13-1.6.3-1.4.3-2.5.5-.9.3.1.9.3 1.1 2 1.6 3 3.9 4.1 6.1 3.2 6.5 6.1 13.1 9.4 19.5 3.5 6.8 7.8 13.1 13.3 18.5 8.3 8.1 18.2 12.5 29.7 13 7.4.3 14.5-1.2 21.2-4.4l1.8-1c1.3-.5 2.1-1.5 0-1.6zm311.3-17.6c-3.4-1.7-4.3-4.5-4.3-8.1.1-17.8.1-35.6 0-53.5 0-2.8 1.3-4.6 3.5-6 .9-.7.7-1.2-.3-1.2h-27c-1.7 0-.5 1.1.1 1.4 1.8 1.2 3.1 2.8 3.1 5v48.5c0 .5.1 1.9-.3 1.8-.3-.1-.7-1-.9-1.4l-9.8-21.5-8.6-19-5.4-11.9c-1-2.3-2.5-3.2-5.2-3.1-7.5.2-15.1-.1-22.6-.1-.3 0-.5.2-.8.4.1.2.1.3.1.4.3.2.5.4.8.5 2.6 1.3 4 3.2 3.8 6.2-.1 1.5 0 3 0 4.4v50c0 3-1.1 5.2-3.7 6.7-1.1.6-.5 1.2 0 1.2h27.9c1.8 0 .7-.9.5-1-3.6-1.8-4.1-4.5-4.1-8.3.1-13.9.1-27.8.1-41.6v-6.9c0-1.7-.1-2.7.5-1.9 2.5 5.5 4.8 10.4 7.1 15.4l17.1 37.6c.6 1.3 2.9 6.8 5 6.8h22.4c1.9.2 1.2-.7 1-.8zm73.8-63.9c-6.4-3.3-13.3-4.7-20.4-4.8l-33.7-.1h-2.9c-1.5 0-.7.8 0 1.1 2.6 1.3 3.9 3.3 3.9 6.3v54.7c0 2.8-1.2 4.9-3.6 6.3-.4.3-1.5 1.5.5 1.5h12.8c7.4-.1 14.8 0 22.1 0 5.8 0 11.4-1.1 16.8-3.1 9.3-3.4 15.7-9.6 19-18.9 2.5-7.2 2.7-14.6 1.1-22.1-2.1-9.4-7.2-16.4-15.6-20.9zm-6.7 44.2c-1.3 4.5-3.3 8.5-6.9 11.7-3 2.7-6.4 4.2-10.4 4.5-2.3.1-4.6.1-6.9.1-2.2 0-2.6-.4-2.6-2.6v-56.9c.1-.9.5-1.6 1.5-1.6 5 .1 10.2-.7 14.9 2.1 3 1.7 5.4 4 7.2 6.9 2.4 4 3.8 8.4 4.4 12.9 1.2 7.7 1 15.4-1.2 22.9zm-337.8-44.7c-5.9-3.4-12.2-5-18.9-5.6-9.7-.8-19.2-.1-28.2 3.9-8.2 3.7-14.2 9.6-17.2 18.3-2.8 8-2.9 16.1-1 24.2 2.4 10.1 8.5 17.2 17.9 21.5 6.8 3.1 14.1 4.2 21.5 4.2 1.6 0 3.1.1 4.7 0 6.1-.4 12.2-1.4 17.9-4 10.2-4.7 16.5-12.3 18.7-23.4 1.6-8.2 1.1-16.2-1.9-23.9-2.7-6.6-7.3-11.6-13.5-15.2zm-7.5 47.1c-1.8 5.7-4.7 10.7-10.3 13.5-7.1 3.6-15.3 1.7-20.4-4.5-3.4-4.1-5.1-8.9-6-14.1-1.4-7.7-1.4-15.3-.1-23 .8-4.7 2.4-9 5-13 5-7.6 14.7-9.9 22.6-5.4 3.1 1.8 5.3 4.6 7 7.7 2.6 4.8 3.6 10 4.2 15.3.2 2.1.3 4.3.4 6.4.1 5.9-.7 11.6-2.4 17.1zm172.3-47c-5.8-3.3-12-5.1-18.7-5.6-9.9-.9-19.5-.2-28.7 3.8-11.7 5.2-17.9 14.6-19.2 27.1-.5 5.1-.3 10.3 1 15.4 2.2 8.9 7.2 15.6 15 20.1 7.5 4.3 15.8 5.6 24.4 5.7h3.9c7.4-.3 14.5-1.7 21-5.2 6-3.2 10.8-7.7 13.6-14.1 4.8-10.7 4.8-21.6.6-32.5-2.4-6.4-7-11.2-12.9-14.7zm-7.5 46.4c-1.1 3.9-3 7.4-5.7 10.5-7.1 8-19.8 7.1-26.2-2.1-3.4-4.9-4.9-10.5-5.6-16.3-.8-6.5-.7-13.1.5-19.6.9-4.5 2.3-8.9 4.9-12.8 5-7.6 14.6-10 22.5-5.6 2.7 1.5 4.7 3.8 6.3 6.4 3.3 5.1 4.4 10.9 5.1 16.8l.4 6.4c0 5.6-.8 11-2.2 16.3zm310.2 38.6c-1.2.2-1.7.2-2.6.3-5.7.5-10.4-1.7-14.7-5.2-4.5-3.7-8-8.3-10.6-13.5-3.2-6.4-6.3-13-9.1-19.6l-11.7-28.2c-2.9-6.8-6.1-13.8-12.2-18.3-3.1-2.2-4.3-2.5-8.2-3.5-6.8-1.7-13 0-19 2.9-.1.1-.5.8.7.5 3.4-.8 6.5 0 9 2.2 1.9 1.6 2.6 2.1 3.9 4.6.7 1.5-.8 3.9-1.1 4.5-6.7 14-15.5 32.1-22.1 46.1-1.3 2.7-3.3 4.5-5.9 5.9-1 .5-1.3 1.2-.3 1.2h14.5c1.2 0 .7-.5.4-.7-2.5-2.3-2.8-3.4-1.4-6.5l2.7-4.9c.5-1.2 1.3-1.5 2.7-1.5h25.6c1.9 0 2.8.8 3.4 2.5.8 2.3 2 6.3 3 8.6 4.4 10.3 8.3 14.7 17.9 20.8 9.6 6.2 20.8 7.4 32 3.8 1.2-.5 4.6-1.5 3.1-2zm-61.4-38.1c-2.3 0-18.4.2-20.7.1-2.1 0-2.7-.9-1.9-2.7 2.7-5.8 8.1-18.7 11.1-24.4.4-.8 1.2-1.6 1.9-1.6s1.4.8 1.8 1.8c2.2 5.2 7.5 18.6 9.7 24.4.8 2.1.4 2.3-1.9 2.4zm-310.4-51.6h-38.4v.1h-37.2c-.7 0-.7.3-.7.4.1 1.3.5 10.1.4 11.3 0 .7.4.4.6.2.3-.4.7-.8.9-1.3 1.5-2.8 3.7-4.2 6.9-4.1h16.4c.9 0 1.7.1 2.7.2.1.8.2 1.4.2 1.9v53.9c0 2.6-1.2 4.5-3.4 5.9-2.5 1.7-.2 1.4-.2 1.4h14.5v-.1h13.5s2.3.3-.2-1.4c-2.1-1.4-3.4-3.3-3.4-5.9v-53.9c0-.6.1-1.1.2-1.9.9-.1 1.8-.2 2.7-.2h16.4c3.3-.1 5.4 1.3 6.9 4.1.2.5.6.9.9 1.3.2.2.6.5.6-.2-.1-1.3.4-10 .4-11.3.1 0 .1-.4-.7-.4zm11.8 87.1c.8.5 1 1.2.6 2.3-.6.9-1.6 1.1-2.6.7-2.3-.9-5-2.1-7.2-3.1-1.7-.7-3.3-1.4-5.1-1.8-2.6-.5-5 .3-7.3 1.4-2.3 1.1-4.6 2.2-6.9 3.1-2.8 1-5.7.9-8.4-.2-1.9-.8-3.8-1.6-5.6-2.6-4.3-2.4-8.6-2.4-12.9 0-1.6.9-3.2 1.6-4.9 2.3-3.6 1.5-7.2 1.5-10.7 0-1.8-.8-3.6-1.6-5.3-2.5-4-2.1-8-2.1-12 0-1.6.9-3.2 1.6-4.9 2.3-3.7 1.7-7.4 1.7-11.2.1-1.6-.7-3.2-1.4-4.7-2.2-4.3-2.4-8.5-2.5-12.9-.1-2.5 1.2-4.6 2.1-7 3-4.9 2-4.9-1.2-2.8-2.4l10.8-4.8c3.3-1.5 6.6-1.6 10-.2 1.8.8 3.6 1.5 5.3 2.5 4.3 2.4 8.5 2.6 12.8.2 1.9-1 3.8-1.9 5.8-2.7 3.1-1.3 6.2-1.3 9.3 0 1.8.8 3.6 1.5 5.3 2.5 4.4 2.5 8.6 2.6 13 0 1.6-.9 3.4-1.6 5.1-2.4 3.4-1.5 6.8-1.5 10.2 0 2 .9 4 1.8 6 2.8 3.7 1.9 7.4 1.8 11.1 0 2.2-1.1 4.4-2.1 6.7-3.1 2.9-1.2 5.9-1.2 8.8 0 1.8.8 3.6 1.7 5.4 2.4 2.4 1 3.7 1.5 6.2 2.5zm303.6 0c.8.5 1 1.2.6 2.3-.6.9-1.6 1.1-2.6.7-2.3-.9-5-2.1-7.2-3.1-1.7-.7-3.3-1.4-5.1-1.8-2.6-.5-5 .3-7.3 1.4-2.3 1.1-4.6 2.2-6.9 3.1-2.8 1-5.7.9-8.4-.2-1.9-.8-3.8-1.6-5.6-2.6-4.3-2.4-8.6-2.4-12.9 0-1.6.9-3.2 1.6-4.9 2.3-3.6 1.5-7.2 1.5-10.7 0-1.8-.8-3.6-1.6-5.3-2.5-4-2.1-8-2.1-12 0-1.6.9-3.2 1.6-4.9 2.3-3.7 1.7-7.4 1.7-11.2.1-1.6-.7-3.2-1.4-4.7-2.2-4.3-2.4-8.5-2.5-12.9-.1-2.5 1.2-4.6 2.1-7 3-4.9 2-4.9-1.2-2.8-2.4l10.8-4.8c3.3-1.5 6.6-1.6 10-.2 1.8.8 3.6 1.5 5.3 2.5 4.3 2.4 8.5 2.6 12.8.2 1.9-1 3.8-1.9 5.8-2.7 3.1-1.3 6.2-1.3 9.3 0 1.8.8 3.6 1.5 5.3 2.5 4.4 2.5 8.6 2.6 13 0 1.6-.9 3.4-1.6 5.1-2.4 3.4-1.5 6.8-1.5 10.2 0 2 .9 4 1.8 6 2.8 3.7 1.9 7.4 1.8 11.1 0 2.2-1.1 4.4-2.1 6.7-3.1 2.9-1.2 5.9-1.2 8.8 0 1.8.8 3.6 1.7 5.4 2.4 2.4 1 3.7 1.5 6.2 2.5zm-281.1 14.1h-4v-18h4v.5c.7-.4 1.7-.7 2.5-.7 1.6 0 3.2.7 4.3 1.9 1.1 1.2 1.8 2.8 1.8 4.5 0 1.7-.7 3.4-1.8 4.6-1.2 1.2-2.7 1.9-4.4 1.9-.7 0-1.7-.2-2.4-.7v6zm.6-13.6c-.4.5-.7 1.1-.7 1.8s.3 1.4.7 1.8c.4.5 1 .7 1.6.7 1.4 0 2.4-1.1 2.4-2.5 0-.7-.3-1.3-.7-1.8-.4-.4-1-.7-1.7-.7-.6 0-1.2.2-1.6.7zm20 6.3c-.6-.6-1-1.3-1.4-2-.3-.8-.5-1.6-.5-2.5 0-1.7.7-3.4 1.9-4.6 1.2-1.2 2.8-1.9 4.6-1.9.9 0 1.7.2 2.5.5s1.5.8 2.1 1.4c1.3 1.2 1.9 2.9 1.9 4.6 0 .9-.2 1.7-.5 2.5s-.8 1.5-1.4 2c-.6.6-1.3 1.1-2.1 1.4-.8.3-1.6.5-2.5.5-1.7 0-3.3-.6-4.6-1.9zm2.9-6.3c-.5.5-.7 1.1-.7 1.8s.3 1.3.7 1.8c.4.4 1 .7 1.7.7s1.3-.2 1.8-.7c.5-.5.7-1.1.7-1.8 0-1.4-1-2.5-2.5-2.5-.6 0-1.2.3-1.7.7zm19.2 6.3c-.6-.6-1-1.3-1.4-2-.3-.8-.5-1.6-.5-2.5 0-1.7.7-3.4 1.9-4.6 1.2-1.2 2.8-1.9 4.6-1.9.9 0 1.7.2 2.5.5s1.5.8 2.1 1.4c1.3 1.2 1.9 2.9 1.9 4.6 0 .9-.2 1.7-.5 2.5s-.8 1.5-1.4 2c-.6.6-1.3 1.1-2.1 1.4-.8.3-1.6.5-2.5.5-1.8 0-3.4-.6-4.6-1.9zm2.9-6.3c-.5.5-.7 1.1-.7 1.8s.3 1.3.7 1.8c.4.4 1 .7 1.7.7s1.3-.2 1.8-.7c.5-.5.7-1.1.7-1.8 0-1.4-1-2.5-2.5-2.5-.7 0-1.3.3-1.7.7zm21.7 8h-4v-18h4v18zm14.8-.1c-.2-.1-.5-.2-.7-.4v.4h-4v-18h4v6c.7-.4 1.7-.7 2.5-.7s1.6.2 2.4.5c.7.3 1.4.8 1.9 1.4 1.2 1.2 1.8 2.8 1.8 4.6 0 1.7-.6 3.3-1.8 4.5-1.2 1.2-2.7 1.9-4.3 1.9-.6.1-1.2 0-1.8-.2zm-.2-7.9c-.4.5-.7 1.1-.7 1.8s.2 1.3.7 1.8c.4.4 1 .7 1.6.7.7 0 1.3-.3 1.7-.7.4-.5.7-1.1.7-1.8s-.3-1.3-.7-1.8c-.4-.5-1-.7-1.7-.7-.6 0-1.1.2-1.6.7zm17.9 6.3c-1.1-1.2-1.8-2.8-1.8-4.6 0-1.7.6-3.3 1.8-4.6.6-.6 1.2-1.1 2-1.4.7-.3 1.6-.5 2.4-.5.8 0 1.8.3 2.5.7v-.5h4v12.4h-4v-.4c-.7.4-1.7.7-2.5.7-1.7.1-3.2-.5-4.4-1.8zm3-6.3c-.4.5-.7 1.1-.7 1.8s.3 1.3.7 1.8c.4.4 1 .7 1.7.7s1.2-.2 1.6-.7c.4-.5.7-1.1.7-1.8s-.2-1.3-.7-1.8c-.4-.4-1-.7-1.6-.7-.6 0-1.2.3-1.7.7zm23.1 8h-4v-12.4h4v.4c.6-.4 1.4-.7 2.3-.7h1.2v4.2l-.5-.2c-.3-.1-.6-.1-.9-.1-.6 0-1 .2-1.4.6-.4.4-.6 1.1-.6 1.9v6.3z"/></svg>