<svg xmlns="http://www.w3.org/2000/svg" viewBox="0 0 512.005 512.005" enable-background="new 0 0 512.005 512.005"><path d="M503.411 366.315c-7.768 0-11.248-3.37-16.515-8.471-6.126-5.931-13.747-13.311-28.474-13.311-14.726 0-22.347 7.38-28.472 13.311-5.269 5.101-8.749 8.471-16.517 8.471-7.765 0-11.244-3.37-16.512-8.47-6.125-5.931-13.746-13.313-28.471-13.313-4.747 0-8.594 3.848-8.594 8.594s3.847 8.594 8.594 8.594c7.767 0 11.245 3.37 16.513 8.471 6.125 5.931 13.744 13.311 28.47 13.311 14.728 0 22.349-7.38 28.474-13.311 5.268-5.101 8.747-8.471 16.515-8.471 7.769 0 11.249 3.37 16.517 8.471 6.125 5.93 13.746 13.311 28.472 13.311 4.747 0 8.594-3.848 8.594-8.594s-3.847-8.593-8.594-8.593zM147.08 145.757c-12.313 0-22.331 10.024-22.331 22.344v11.449c0 4.746 3.847 8.594 8.594 8.594s8.594-3.848 8.594-8.594v-11.449c0-2.843 2.308-5.156 5.144-5.156 2.843 0 5.156 2.313 5.156 5.156v141.498c0 4.746 3.848 8.594 8.594 8.594 4.747 0 8.594-3.848 8.594-8.594v-141.498c-.001-12.32-10.025-22.344-22.345-22.344zM202.814 453.302c-4.369-1.916-9.043-2.846-14.288-2.846-14.725 0-22.346 7.38-28.47 13.311-5.267 5.101-8.746 8.471-16.512 8.471-7.767 0-11.245-3.37-16.513-8.471-6.125-5.931-13.744-13.311-28.47-13.311s-22.346 7.38-28.47 13.311c-5.267 5.101-8.746 8.471-16.512 8.471-7.764 0-11.244-3.37-16.51-8.47-6.123-5.931-13.743-13.313-28.469-13.313-4.747 0-8.594 3.848-8.594 8.594s3.847 8.594 8.594 8.594c7.764 0 11.244 3.37 16.51 8.47 6.123 5.931 13.743 13.312 28.469 13.312s22.346-7.38 28.47-13.311c5.267-5.101 8.746-8.471 16.512-8.471 7.765 0 11.244 3.37 16.512 8.47 6.125 5.931 13.744 13.312 28.471 13.312 14.725 0 22.346-7.38 28.47-13.311 5.267-5.101 8.746-8.471 16.512-8.471 2.821 0 5.237.457 7.385 1.4 4.349 1.907 9.417-.072 11.322-4.42 1.906-4.346-.073-9.415-4.419-11.321zM503.41 472.239c-7.768 0-11.248-3.37-16.515-8.471-6.126-5.931-13.747-13.311-28.474-13.311-14.726 0-22.347 7.38-28.472 13.311-5.269 5.101-8.749 8.471-16.517 8.471-7.765 0-11.244-3.37-16.512-8.47-6.125-5.931-13.744-13.313-28.471-13.313-14.725 0-22.346 7.38-28.471 13.311-5.267 5.101-8.746 8.471-16.513 8.471-7.767 0-11.245-3.37-16.513-8.471-6.125-5.931-13.744-13.311-28.47-13.311-14.725 0-22.346 7.38-28.47 13.313-5.268 5.1-8.746 8.47-16.512 8.47-3.89 0-6.919-.84-9.818-2.721-3.981-2.585-9.303-1.453-11.888 2.529-2.584 3.981-1.452 9.303 2.529 11.887 5.695 3.696 11.967 5.493 19.177 5.493 14.725 0 22.346-7.38 28.47-13.312 5.267-5.1 8.746-8.47 16.512-8.47 7.765 0 11.244 3.37 16.512 8.47 6.125 5.931 13.746 13.312 28.471 13.312s22.346-7.38 28.471-13.311c5.267-5.101 8.746-8.471 16.513-8.471 7.767 0 11.245 3.37 16.513 8.471 6.125 5.931 13.744 13.311 28.47 13.311 14.728 0 22.349-7.38 28.474-13.311 5.267-5.101 8.747-8.471 16.515-8.471 7.769 0 11.249 3.37 16.517 8.471 6.125 5.93 13.746 13.311 28.472 13.311 4.747 0 8.594-3.848 8.594-8.594s-3.847-8.594-8.594-8.594zM503.41 419.276c-7.768 0-11.248-3.37-16.515-8.471-6.126-5.931-13.747-13.312-28.474-13.312-14.726 0-22.347 7.38-28.473 13.311-5.267 5.101-8.747 8.471-16.516 8.471-7.765 0-11.244-3.37-16.512-8.471-6.125-5.931-13.744-13.312-28.471-13.312-14.725 0-22.346 7.382-28.471 13.312-5.267 5.101-8.746 8.471-16.513 8.471-7.767 0-11.245-3.37-16.513-8.471-6.125-5.931-13.744-13.312-28.47-13.312-14.725 0-22.346 7.382-28.47 13.312-4.995 4.837-8.388 8.113-15.347 8.438 1.746-7.065 2.649-14.325 2.649-21.699 0-4.769-.385-9.492-1.129-14.131 12.992-.834 20.049-7.669 25.79-13.23 5.265-5.099 8.742-8.468 16.501-8.468 7.767 0 11.246 3.37 16.514 8.471 6.125 5.931 13.746 13.311 28.472 13.311 12.479 0 20.002-5.4 25.714-10.684 3.484-3.222 3.698-8.659.476-12.145-3.223-3.484-8.66-3.698-12.145-.474-4.289 3.966-7.797 6.114-14.046 6.114-7.767 0-11.247-3.37-16.514-8.471-6.125-5.931-13.746-13.311-28.472-13.311-14.72 0-22.338 7.38-28.461 13.31-5.267 5.101-8.746 8.472-16.514 8.472-.644 0-1.256-.031-1.855-.078-6.594-17.718-18.662-33.224-34.725-43.895v-154.233c0-27.484-22.36-49.844-49.844-49.844-13.312 0-25.826 5.183-35.242 14.598-9.409 9.422-14.59 21.94-14.59 35.246v154.238c-15.217 10.109-26.848 24.558-33.638 41.115-2.387 1.59-5.389 2.858-10.027 2.858-7.767 0-11.247-3.37-16.514-8.471-6.125-5.931-13.746-13.311-28.472-13.311-4.747 0-8.594 3.848-8.594 8.594s3.847 8.594 8.594 8.594c7.767 0 11.246 3.37 16.514 8.471 6.125 5.931 13.746 13.311 28.472 13.311 1.562 0 3.032-.093 4.431-.25-.761 4.692-1.157 9.469-1.157 14.296 0 4.746 3.847 8.594 8.594 8.594s8.594-3.848 8.594-8.594c0-25.804 13.85-49.958 36.145-63.034 2.631-1.542 4.247-4.363 4.247-7.412v-158.999c0-8.72 3.397-16.924 9.561-23.097 6.165-6.165 14.362-9.56 23.084-9.56 18.007 0 32.657 14.65 32.657 32.657v158.998c0 3.049 1.616 5.87 4.245 7.412 22.296 13.078 36.146 37.231 36.146 63.034 0 5.019-.52 9.97-1.518 14.816-.525-.5-1.06-1.015-1.617-1.556-2.223-2.153-4.65-4.495-7.535-6.608.235-2.213.359-4.436.359-6.653 0-22.157-11.901-42.903-31.055-54.139l-9.342-5.487c-.172-4.595-3.951-8.268-8.588-8.268-4.747 0-8.594 3.848-8.594 8.594v4.597c0 3.048 1.613 5.867 4.242 7.41l13.583 7.977c13.92 8.165 22.566 23.23 22.566 39.315l-.005.171c-1.307-.133-2.658-.222-4.096-.222-14.725 0-22.346 7.382-28.47 13.312-5.268 5.101-8.746 8.471-16.512 8.471-7.767 0-11.245-3.37-16.513-8.471-5.695-5.516-12.693-12.277-25.486-13.198l-.001-.062c0-16.084 8.643-31.15 22.557-39.316l13.59-7.975c2.63-1.542 4.244-4.363 4.244-7.411v-134.646c0-4.746-3.847-8.594-8.594-8.594s-8.594 3.848-8.594 8.594v129.725l-9.347 5.485c-19.148 11.241-31.044 31.985-31.044 54.139 0 .91.022 1.818.061 2.726-6.212 2.69-10.556 6.884-14.324 10.535-5.267 5.101-8.746 8.471-16.512 8.471-7.764 0-11.244-3.37-16.51-8.471-6.123-5.931-13.743-13.312-28.469-13.312-4.747 0-8.594 3.848-8.594 8.594s3.847 8.594 8.594 8.594c7.764 0 11.244 3.37 16.51 8.471 6.123 5.931 13.743 13.312 28.469 13.312s22.346-7.382 28.47-13.312c5.267-5.101 8.746-8.471 16.512-8.471 7.765 0 11.244 3.37 16.512 8.471 6.125 5.931 13.744 13.312 28.471 13.312 14.725 0 22.346-7.382 28.47-13.312 5.267-5.101 8.746-8.471 16.512-8.471 7.763 0 11.243 3.37 16.508 8.47 6.122 5.931 13.743 13.312 28.467 13.312 14.725 0 22.346-7.382 28.47-13.312 5.267-5.101 8.746-8.471 16.512-8.471s11.244 3.37 16.512 8.471c6.125 5.931 13.744 13.312 28.471 13.312 14.725 0 22.346-7.382 28.471-13.312 5.267-5.101 8.746-8.471 16.513-8.471 7.767 0 11.245 3.37 16.513 8.471 6.125 5.931 13.744 13.312 28.47 13.312 14.728 0 22.349-7.38 28.474-13.312 5.268-5.101 8.747-8.471 16.515-8.471 7.769 0 11.249 3.37 16.516 8.471 6.126 5.931 13.747 13.311 28.473 13.311 4.747 0 8.594-3.848 8.594-8.594s-3.85-8.593-8.597-8.593zM257.008 172.103h-36.092c-4.747 0-8.594 3.848-8.594 8.594s3.847 8.594 8.594 8.594h36.092c4.747 0 8.594-3.848 8.594-8.594s-3.847-8.594-8.594-8.594zM257.008 271.788h-36.092c-4.747 0-8.594 3.848-8.594 8.594s3.847 8.594 8.594 8.594h36.092c4.747 0 8.594-3.848 8.594-8.594s-3.847-8.594-8.594-8.594zM257.008 221.945h-36.092c-4.747 0-8.594 3.848-8.594 8.594s3.847 8.594 8.594 8.594h36.092c4.747 0 8.594-3.848 8.594-8.594s-3.847-8.594-8.594-8.594zM333.777 77.577h-19.947c-.886-3.612-2.309-7.015-4.193-10.11l14.109-14.109c3.356-3.356 3.356-8.797 0-12.153-3.357-3.356-8.798-3.356-12.154 0l-14.109 14.107c-3.096-1.884-6.498-3.307-10.11-4.193v-19.947c0-4.746-3.847-8.594-8.594-8.594s-8.594 3.848-8.594 8.594v19.947c-3.612.886-7.015 2.309-10.11 4.193l-14.109-14.108c-3.357-3.356-8.798-3.356-12.154 0s-3.356 8.797 0 12.153l14.109 14.109c-1.884 3.096-3.306 6.498-4.192 10.11h-19.947c-4.747 0-8.594 3.848-8.594 8.594s3.845 8.594 8.593 8.594h19.947c.886 3.612 2.309 7.015 4.192 10.11l-14.109 14.109c-3.356 3.356-3.356 8.797 0 12.153 1.679 1.679 3.879 2.517 6.078 2.517s4.399-.839 6.078-2.517l14.109-14.108c3.096 1.884 6.498 3.307 10.11 4.193v19.947c0 4.746 3.847 8.594 8.594 8.594s8.594-3.848 8.594-8.594v-19.946c3.612-.886 7.015-2.309 10.11-4.193l14.108 14.108c1.679 1.679 3.879 2.517 6.078 2.517s4.399-.839 6.078-2.517c3.356-3.356 3.356-8.797 0-12.153l-14.109-14.109c1.884-3.096 3.307-6.498 4.193-10.11h19.947c4.747 0 8.594-3.848 8.594-8.594-.002-4.747-3.848-8.594-8.596-8.594zm-54.997 27.499c-10.424 0-18.904-8.48-18.904-18.905s8.48-18.905 18.904-18.905c10.425 0 18.905 8.48 18.905 18.905s-8.48 18.905-18.905 18.905z"/></svg>